<?xml version="1.0" encoding="utf-8" standalone="no"?>
<!DOCTYPE svg PUBLIC "-//W3C//DTD SVG 1.1//EN"
  "http://www.w3.org/Graphics/SVG/1.1/DTD/svg11.dtd">
<svg xmlns:xlink="http://www.w3.org/1999/xlink" width="1000.630312pt" height="633.88125pt" viewBox="0 0 1000.630312 633.88125" xmlns="http://www.w3.org/2000/svg" version="1.1">
 <metadata>
  <rdf:RDF xmlns:dc="http://purl.org/dc/elements/1.1/" xmlns:cc="http://creativecommons.org/ns#" xmlns:rdf="http://www.w3.org/1999/02/22-rdf-syntax-ns#">
   <cc:Work>
    <dc:type rdf:resource="http://purl.org/dc/dcmitype/StillImage"/>
    <dc:date>2025-04-24T15:52:05.618262</dc:date>
    <dc:format>image/svg+xml</dc:format>
    <dc:creator>
     <cc:Agent>
      <dc:title>Matplotlib v3.9.3, https://matplotlib.org/</dc:title>
     </cc:Agent>
    </dc:creator>
   </cc:Work>
  </rdf:RDF>
 </metadata>
 <defs>
  <style type="text/css">*{stroke-linejoin: round; stroke-linecap: butt}</style>
 </defs>
 <g id="figure_1">
  <g id="patch_1">
   <path d="M 0 633.88125 
L 1000.630312 633.88125 
L 1000.630312 0 
L 0 0 
z
" style="fill: #ffffff"/>
  </g>
  <g id="axes_1">
   <g id="patch_2">
    <path d="M 68.070312 237.485 
L 993.430313 237.485 
L 993.430313 72.365 
L 68.070312 72.365 
z
" style="fill: #ffffff"/>
   </g>
   <g id="matplotlib.axis_1">
    <g id="xtick_1">
     <g id="line2d_1">
      <path d="M 96.987813 237.485 
L 96.987813 72.365 
" clip-path="url(#p7ea27853ac)" style="fill: none; stroke: #b0b0b0; stroke-width: 0.8; stroke-linecap: square"/>
     </g>
     <g id="line2d_2">
      <defs>
       <path id="m365c89cc98" d="M 0 0 
L 0 3.5 
" style="stroke: #000000; stroke-width: 0.8"/>
      </defs>
      <g>
       <use xlink:href="#m365c89cc98" x="96.987813" y="237.485" style="stroke: #000000; stroke-width: 0.8"/>
      </g>
     </g>
    </g>
    <g id="xtick_2">
     <g id="line2d_3">
      <path d="M 228.430994 237.485 
L 228.430994 72.365 
" clip-path="url(#p7ea27853ac)" style="fill: none; stroke: #b0b0b0; stroke-width: 0.8; stroke-linecap: square"/>
     </g>
     <g id="line2d_4">
      <g>
       <use xlink:href="#m365c89cc98" x="228.430994" y="237.485" style="stroke: #000000; stroke-width: 0.8"/>
      </g>
     </g>
    </g>
    <g id="xtick_3">
     <g id="line2d_5">
      <path d="M 359.874176 237.485 
L 359.874176 72.365 
" clip-path="url(#p7ea27853ac)" style="fill: none; stroke: #b0b0b0; stroke-width: 0.8; stroke-linecap: square"/>
     </g>
     <g id="line2d_6">
      <g>
       <use xlink:href="#m365c89cc98" x="359.874176" y="237.485" style="stroke: #000000; stroke-width: 0.8"/>
      </g>
     </g>
    </g>
    <g id="xtick_4">
     <g id="line2d_7">
      <path d="M 491.317358 237.485 
L 491.317358 72.365 
" clip-path="url(#p7ea27853ac)" style="fill: none; stroke: #b0b0b0; stroke-width: 0.8; stroke-linecap: square"/>
     </g>
     <g id="line2d_8">
      <g>
       <use xlink:href="#m365c89cc98" x="491.317358" y="237.485" style="stroke: #000000; stroke-width: 0.8"/>
      </g>
     </g>
    </g>
    <g id="xtick_5">
     <g id="line2d_9">
      <path d="M 622.76054 237.485 
L 622.76054 72.365 
" clip-path="url(#p7ea27853ac)" style="fill: none; stroke: #b0b0b0; stroke-width: 0.8; stroke-linecap: square"/>
     </g>
     <g id="line2d_10">
      <g>
       <use xlink:href="#m365c89cc98" x="622.76054" y="237.485" style="stroke: #000000; stroke-width: 0.8"/>
      </g>
     </g>
    </g>
    <g id="xtick_6">
     <g id="line2d_11">
      <path d="M 754.203722 237.485 
L 754.203722 72.365 
" clip-path="url(#p7ea27853ac)" style="fill: none; stroke: #b0b0b0; stroke-width: 0.8; stroke-linecap: square"/>
     </g>
     <g id="line2d_12">
      <g>
       <use xlink:href="#m365c89cc98" x="754.203722" y="237.485" style="stroke: #000000; stroke-width: 0.8"/>
      </g>
     </g>
    </g>
    <g id="xtick_7">
     <g id="line2d_13">
      <path d="M 885.646903 237.485 
L 885.646903 72.365 
" clip-path="url(#p7ea27853ac)" style="fill: none; stroke: #b0b0b0; stroke-width: 0.8; stroke-linecap: square"/>
     </g>
     <g id="line2d_14">
      <g>
       <use xlink:href="#m365c89cc98" x="885.646903" y="237.485" style="stroke: #000000; stroke-width: 0.8"/>
      </g>
     </g>
    </g>
   </g>
   <g id="matplotlib.axis_2">
    <g id="ytick_1">
     <g id="line2d_15">
      <path d="M 68.070312 218.721364 
L 993.430313 218.721364 
" clip-path="url(#p7ea27853ac)" style="fill: none; stroke: #b0b0b0; stroke-width: 0.8; stroke-linecap: square"/>
     </g>
     <g id="line2d_16">
      <defs>
       <path id="m1c8bf791e7" d="M 0 0 
L -3.5 0 
" style="stroke: #000000; stroke-width: 0.8"/>
      </defs>
      <g>
       <use xlink:href="#m1c8bf791e7" x="68.070312" y="218.721364" style="stroke: #000000; stroke-width: 0.8"/>
      </g>
     </g>
     <g id="text_1">
      <!-- 0.2 -->
      <g transform="translate(45.167187 222.520582) scale(0.1 -0.1)">
       <defs>
        <path id="DejaVuSans-30" d="M 2034 4250 
Q 1547 4250 1301 3770 
Q 1056 3291 1056 2328 
Q 1056 1369 1301 889 
Q 1547 409 2034 409 
Q 2525 409 2770 889 
Q 3016 1369 3016 2328 
Q 3016 3291 2770 3770 
Q 2525 4250 2034 4250 
z
M 2034 4750 
Q 2819 4750 3233 4129 
Q 3647 3509 3647 2328 
Q 3647 1150 3233 529 
Q 2819 -91 2034 -91 
Q 1250 -91 836 529 
Q 422 1150 422 2328 
Q 422 3509 836 4129 
Q 1250 4750 2034 4750 
z
" transform="scale(0.015625)"/>
        <path id="DejaVuSans-2e" d="M 684 794 
L 1344 794 
L 1344 0 
L 684 0 
L 684 794 
z
" transform="scale(0.015625)"/>
        <path id="DejaVuSans-32" d="M 1228 531 
L 3431 531 
L 3431 0 
L 469 0 
L 469 531 
Q 828 903 1448 1529 
Q 2069 2156 2228 2338 
Q 2531 2678 2651 2914 
Q 2772 3150 2772 3378 
Q 2772 3750 2511 3984 
Q 2250 4219 1831 4219 
Q 1534 4219 1204 4116 
Q 875 4013 500 3803 
L 500 4441 
Q 881 4594 1212 4672 
Q 1544 4750 1819 4750 
Q 2544 4750 2975 4387 
Q 3406 4025 3406 3419 
Q 3406 3131 3298 2873 
Q 3191 2616 2906 2266 
Q 2828 2175 2409 1742 
Q 1991 1309 1228 531 
z
" transform="scale(0.015625)"/>
       </defs>
       <use xlink:href="#DejaVuSans-30"/>
       <use xlink:href="#DejaVuSans-2e" x="63.623047"/>
       <use xlink:href="#DejaVuSans-32" x="95.410156"/>
      </g>
     </g>
    </g>
    <g id="ytick_2">
     <g id="line2d_17">
      <path d="M 68.070312 181.194091 
L 993.430313 181.194091 
" clip-path="url(#p7ea27853ac)" style="fill: none; stroke: #b0b0b0; stroke-width: 0.8; stroke-linecap: square"/>
     </g>
     <g id="line2d_18">
      <g>
       <use xlink:href="#m1c8bf791e7" x="68.070312" y="181.194091" style="stroke: #000000; stroke-width: 0.8"/>
      </g>
     </g>
     <g id="text_2">
      <!-- 0.3 -->
      <g transform="translate(45.167187 184.99331) scale(0.1 -0.1)">
       <defs>
        <path id="DejaVuSans-33" d="M 2597 2516 
Q 3050 2419 3304 2112 
Q 3559 1806 3559 1356 
Q 3559 666 3084 287 
Q 2609 -91 1734 -91 
Q 1441 -91 1130 -33 
Q 819 25 488 141 
L 488 750 
Q 750 597 1062 519 
Q 1375 441 1716 441 
Q 2309 441 2620 675 
Q 2931 909 2931 1356 
Q 2931 1769 2642 2001 
Q 2353 2234 1838 2234 
L 1294 2234 
L 1294 2753 
L 1863 2753 
Q 2328 2753 2575 2939 
Q 2822 3125 2822 3475 
Q 2822 3834 2567 4026 
Q 2313 4219 1838 4219 
Q 1578 4219 1281 4162 
Q 984 4106 628 3988 
L 628 4550 
Q 988 4650 1302 4700 
Q 1616 4750 1894 4750 
Q 2613 4750 3031 4423 
Q 3450 4097 3450 3541 
Q 3450 3153 3228 2886 
Q 3006 2619 2597 2516 
z
" transform="scale(0.015625)"/>
       </defs>
       <use xlink:href="#DejaVuSans-30"/>
       <use xlink:href="#DejaVuSans-2e" x="63.623047"/>
       <use xlink:href="#DejaVuSans-33" x="95.410156"/>
      </g>
     </g>
    </g>
    <g id="ytick_3">
     <g id="line2d_19">
      <path d="M 68.070312 143.666818 
L 993.430313 143.666818 
" clip-path="url(#p7ea27853ac)" style="fill: none; stroke: #b0b0b0; stroke-width: 0.8; stroke-linecap: square"/>
     </g>
     <g id="line2d_20">
      <g>
       <use xlink:href="#m1c8bf791e7" x="68.070312" y="143.666818" style="stroke: #000000; stroke-width: 0.8"/>
      </g>
     </g>
     <g id="text_3">
      <!-- 0.4 -->
      <g transform="translate(45.167187 147.466037) scale(0.1 -0.1)">
       <defs>
        <path id="DejaVuSans-34" d="M 2419 4116 
L 825 1625 
L 2419 1625 
L 2419 4116 
z
M 2253 4666 
L 3047 4666 
L 3047 1625 
L 3713 1625 
L 3713 1100 
L 3047 1100 
L 3047 0 
L 2419 0 
L 2419 1100 
L 313 1100 
L 313 1709 
L 2253 4666 
z
" transform="scale(0.015625)"/>
       </defs>
       <use xlink:href="#DejaVuSans-30"/>
       <use xlink:href="#DejaVuSans-2e" x="63.623047"/>
       <use xlink:href="#DejaVuSans-34" x="95.410156"/>
      </g>
     </g>
    </g>
    <g id="ytick_4">
     <g id="line2d_21">
      <path d="M 68.070312 106.139545 
L 993.430313 106.139545 
" clip-path="url(#p7ea27853ac)" style="fill: none; stroke: #b0b0b0; stroke-width: 0.8; stroke-linecap: square"/>
     </g>
     <g id="line2d_22">
      <g>
       <use xlink:href="#m1c8bf791e7" x="68.070312" y="106.139545" style="stroke: #000000; stroke-width: 0.8"/>
      </g>
     </g>
     <g id="text_4">
      <!-- 0.5 -->
      <g transform="translate(45.167187 109.938764) scale(0.1 -0.1)">
       <defs>
        <path id="DejaVuSans-35" d="M 691 4666 
L 3169 4666 
L 3169 4134 
L 1269 4134 
L 1269 2991 
Q 1406 3038 1543 3061 
Q 1681 3084 1819 3084 
Q 2600 3084 3056 2656 
Q 3513 2228 3513 1497 
Q 3513 744 3044 326 
Q 2575 -91 1722 -91 
Q 1428 -91 1123 -41 
Q 819 9 494 109 
L 494 744 
Q 775 591 1075 516 
Q 1375 441 1709 441 
Q 2250 441 2565 725 
Q 2881 1009 2881 1497 
Q 2881 1984 2565 2268 
Q 2250 2553 1709 2553 
Q 1456 2553 1204 2497 
Q 953 2441 691 2322 
L 691 4666 
z
" transform="scale(0.015625)"/>
       </defs>
       <use xlink:href="#DejaVuSans-30"/>
       <use xlink:href="#DejaVuSans-2e" x="63.623047"/>
       <use xlink:href="#DejaVuSans-35" x="95.410156"/>
      </g>
     </g>
    </g>
    <g id="text_5">
     <!-- Map-Abgedeckt -->
     <g transform="translate(39.0875 193.869531) rotate(-90) scale(0.1 -0.1)">
      <defs>
       <path id="DejaVuSans-4d" d="M 628 4666 
L 1569 4666 
L 2759 1491 
L 3956 4666 
L 4897 4666 
L 4897 0 
L 4281 0 
L 4281 4097 
L 3078 897 
L 2444 897 
L 1241 4097 
L 1241 0 
L 628 0 
L 628 4666 
z
" transform="scale(0.015625)"/>
       <path id="DejaVuSans-61" d="M 2194 1759 
Q 1497 1759 1228 1600 
Q 959 1441 959 1056 
Q 959 750 1161 570 
Q 1363 391 1709 391 
Q 2188 391 2477 730 
Q 2766 1069 2766 1631 
L 2766 1759 
L 2194 1759 
z
M 3341 1997 
L 3341 0 
L 2766 0 
L 2766 531 
Q 2569 213 2275 61 
Q 1981 -91 1556 -91 
Q 1019 -91 701 211 
Q 384 513 384 1019 
Q 384 1609 779 1909 
Q 1175 2209 1959 2209 
L 2766 2209 
L 2766 2266 
Q 2766 2663 2505 2880 
Q 2244 3097 1772 3097 
Q 1472 3097 1187 3025 
Q 903 2953 641 2809 
L 641 3341 
Q 956 3463 1253 3523 
Q 1550 3584 1831 3584 
Q 2591 3584 2966 3190 
Q 3341 2797 3341 1997 
z
" transform="scale(0.015625)"/>
       <path id="DejaVuSans-70" d="M 1159 525 
L 1159 -1331 
L 581 -1331 
L 581 3500 
L 1159 3500 
L 1159 2969 
Q 1341 3281 1617 3432 
Q 1894 3584 2278 3584 
Q 2916 3584 3314 3078 
Q 3713 2572 3713 1747 
Q 3713 922 3314 415 
Q 2916 -91 2278 -91 
Q 1894 -91 1617 61 
Q 1341 213 1159 525 
z
M 3116 1747 
Q 3116 2381 2855 2742 
Q 2594 3103 2138 3103 
Q 1681 3103 1420 2742 
Q 1159 2381 1159 1747 
Q 1159 1113 1420 752 
Q 1681 391 2138 391 
Q 2594 391 2855 752 
Q 3116 1113 3116 1747 
z
" transform="scale(0.015625)"/>
       <path id="DejaVuSans-2d" d="M 313 2009 
L 1997 2009 
L 1997 1497 
L 313 1497 
L 313 2009 
z
" transform="scale(0.015625)"/>
       <path id="DejaVuSans-41" d="M 2188 4044 
L 1331 1722 
L 3047 1722 
L 2188 4044 
z
M 1831 4666 
L 2547 4666 
L 4325 0 
L 3669 0 
L 3244 1197 
L 1141 1197 
L 716 0 
L 50 0 
L 1831 4666 
z
" transform="scale(0.015625)"/>
       <path id="DejaVuSans-62" d="M 3116 1747 
Q 3116 2381 2855 2742 
Q 2594 3103 2138 3103 
Q 1681 3103 1420 2742 
Q 1159 2381 1159 1747 
Q 1159 1113 1420 752 
Q 1681 391 2138 391 
Q 2594 391 2855 752 
Q 3116 1113 3116 1747 
z
M 1159 2969 
Q 1341 3281 1617 3432 
Q 1894 3584 2278 3584 
Q 2916 3584 3314 3078 
Q 3713 2572 3713 1747 
Q 3713 922 3314 415 
Q 2916 -91 2278 -91 
Q 1894 -91 1617 61 
Q 1341 213 1159 525 
L 1159 0 
L 581 0 
L 581 4863 
L 1159 4863 
L 1159 2969 
z
" transform="scale(0.015625)"/>
       <path id="DejaVuSans-67" d="M 2906 1791 
Q 2906 2416 2648 2759 
Q 2391 3103 1925 3103 
Q 1463 3103 1205 2759 
Q 947 2416 947 1791 
Q 947 1169 1205 825 
Q 1463 481 1925 481 
Q 2391 481 2648 825 
Q 2906 1169 2906 1791 
z
M 3481 434 
Q 3481 -459 3084 -895 
Q 2688 -1331 1869 -1331 
Q 1566 -1331 1297 -1286 
Q 1028 -1241 775 -1147 
L 775 -588 
Q 1028 -725 1275 -790 
Q 1522 -856 1778 -856 
Q 2344 -856 2625 -561 
Q 2906 -266 2906 331 
L 2906 616 
Q 2728 306 2450 153 
Q 2172 0 1784 0 
Q 1141 0 747 490 
Q 353 981 353 1791 
Q 353 2603 747 3093 
Q 1141 3584 1784 3584 
Q 2172 3584 2450 3431 
Q 2728 3278 2906 2969 
L 2906 3500 
L 3481 3500 
L 3481 434 
z
" transform="scale(0.015625)"/>
       <path id="DejaVuSans-65" d="M 3597 1894 
L 3597 1613 
L 953 1613 
Q 991 1019 1311 708 
Q 1631 397 2203 397 
Q 2534 397 2845 478 
Q 3156 559 3463 722 
L 3463 178 
Q 3153 47 2828 -22 
Q 2503 -91 2169 -91 
Q 1331 -91 842 396 
Q 353 884 353 1716 
Q 353 2575 817 3079 
Q 1281 3584 2069 3584 
Q 2775 3584 3186 3129 
Q 3597 2675 3597 1894 
z
M 3022 2063 
Q 3016 2534 2758 2815 
Q 2500 3097 2075 3097 
Q 1594 3097 1305 2825 
Q 1016 2553 972 2059 
L 3022 2063 
z
" transform="scale(0.015625)"/>
       <path id="DejaVuSans-64" d="M 2906 2969 
L 2906 4863 
L 3481 4863 
L 3481 0 
L 2906 0 
L 2906 525 
Q 2725 213 2448 61 
Q 2172 -91 1784 -91 
Q 1150 -91 751 415 
Q 353 922 353 1747 
Q 353 2572 751 3078 
Q 1150 3584 1784 3584 
Q 2172 3584 2448 3432 
Q 2725 3281 2906 2969 
z
M 947 1747 
Q 947 1113 1208 752 
Q 1469 391 1925 391 
Q 2381 391 2643 752 
Q 2906 1113 2906 1747 
Q 2906 2381 2643 2742 
Q 2381 3103 1925 3103 
Q 1469 3103 1208 2742 
Q 947 2381 947 1747 
z
" transform="scale(0.015625)"/>
       <path id="DejaVuSans-63" d="M 3122 3366 
L 3122 2828 
Q 2878 2963 2633 3030 
Q 2388 3097 2138 3097 
Q 1578 3097 1268 2742 
Q 959 2388 959 1747 
Q 959 1106 1268 751 
Q 1578 397 2138 397 
Q 2388 397 2633 464 
Q 2878 531 3122 666 
L 3122 134 
Q 2881 22 2623 -34 
Q 2366 -91 2075 -91 
Q 1284 -91 818 406 
Q 353 903 353 1747 
Q 353 2603 823 3093 
Q 1294 3584 2113 3584 
Q 2378 3584 2631 3529 
Q 2884 3475 3122 3366 
z
" transform="scale(0.015625)"/>
       <path id="DejaVuSans-6b" d="M 581 4863 
L 1159 4863 
L 1159 1991 
L 2875 3500 
L 3609 3500 
L 1753 1863 
L 3688 0 
L 2938 0 
L 1159 1709 
L 1159 0 
L 581 0 
L 581 4863 
z
" transform="scale(0.015625)"/>
       <path id="DejaVuSans-74" d="M 1172 4494 
L 1172 3500 
L 2356 3500 
L 2356 3053 
L 1172 3053 
L 1172 1153 
Q 1172 725 1289 603 
Q 1406 481 1766 481 
L 2356 481 
L 2356 0 
L 1766 0 
Q 1100 0 847 248 
Q 594 497 594 1153 
L 594 3053 
L 172 3053 
L 172 3500 
L 594 3500 
L 594 4494 
L 1172 4494 
z
" transform="scale(0.015625)"/>
      </defs>
      <use xlink:href="#DejaVuSans-4d"/>
      <use xlink:href="#DejaVuSans-61" x="86.279297"/>
      <use xlink:href="#DejaVuSans-70" x="147.558594"/>
      <use xlink:href="#DejaVuSans-2d" x="211.035156"/>
      <use xlink:href="#DejaVuSans-41" x="244.869141"/>
      <use xlink:href="#DejaVuSans-62" x="313.277344"/>
      <use xlink:href="#DejaVuSans-67" x="376.753906"/>
      <use xlink:href="#DejaVuSans-65" x="440.230469"/>
      <use xlink:href="#DejaVuSans-64" x="501.753906"/>
      <use xlink:href="#DejaVuSans-65" x="565.230469"/>
      <use xlink:href="#DejaVuSans-63" x="626.753906"/>
      <use xlink:href="#DejaVuSans-6b" x="681.734375"/>
      <use xlink:href="#DejaVuSans-74" x="739.644531"/>
     </g>
    </g>
   </g>
   <g id="line2d_23">
    <path d="M 110.132131 147.419545 
L 123.276449 136.161364 
L 136.420767 147.419545 
L 149.565085 124.903182 
L 162.709403 79.870455 
L 175.853722 143.666818 
L 188.99804 102.386818 
L 202.142358 173.688636 
L 215.286676 121.150455 
L 228.430994 132.408636 
L 241.575312 128.655909 
L 254.719631 181.194091 
L 267.863949 154.925 
L 281.008267 166.183182 
L 294.152585 139.914091 
L 307.296903 218.721364 
L 320.441222 147.419545 
L 333.58554 207.463182 
L 346.729858 199.957727 
L 359.874176 192.452273 
L 373.018494 162.430455 
L 386.162813 143.666818 
L 399.307131 154.925 
L 412.451449 151.172273 
L 425.595767 203.710455 
L 438.740085 214.968636 
L 451.884403 132.408636 
L 465.028722 181.194091 
L 478.17304 173.688636 
L 491.317358 196.205 
L 504.461676 177.441364 
L 517.605994 214.968636 
L 530.750312 199.957727 
L 543.894631 177.441364 
L 557.038949 128.655909 
L 570.183267 154.925 
L 583.327585 83.623182 
L 596.471903 196.205 
L 609.616222 139.914091 
L 622.76054 199.957727 
L 635.904858 136.161364 
L 649.049176 169.935909 
L 662.193494 188.699545 
L 675.337813 162.430455 
L 688.482131 158.677727 
L 701.626449 169.935909 
L 714.770767 211.215909 
L 727.915085 196.205 
L 741.059403 192.452273 
L 754.203722 211.215909 
L 767.34804 151.172273 
L 780.492358 151.172273 
L 793.636676 181.194091 
L 806.780994 154.925 
L 819.925313 229.979545 
L 833.069631 199.957727 
L 846.213949 214.968636 
L 859.358267 113.645 
L 872.502585 91.128636 
L 885.646903 117.397727 
L 898.791222 94.881364 
L 911.93554 102.386818 
L 925.079858 158.677727 
L 938.224176 83.623182 
L 951.368494 154.925 
" clip-path="url(#p7ea27853ac)" style="fill: none; stroke: #1f77b4; stroke-width: 1.5; stroke-linecap: square"/>
    <defs>
     <path id="m25e45ccb91" d="M 0 3 
C 0.795609 3 1.55874 2.683901 2.12132 2.12132 
C 2.683901 1.55874 3 0.795609 3 0 
C 3 -0.795609 2.683901 -1.55874 2.12132 -2.12132 
C 1.55874 -2.683901 0.795609 -3 0 -3 
C -0.795609 -3 -1.55874 -2.683901 -2.12132 -2.12132 
C -2.683901 -1.55874 -3 -0.795609 -3 0 
C -3 0.795609 -2.683901 1.55874 -2.12132 2.12132 
C -1.55874 2.683901 -0.795609 3 0 3 
z
" style="stroke: #1f77b4"/>
    </defs>
    <g clip-path="url(#p7ea27853ac)">
     <use xlink:href="#m25e45ccb91" x="110.132131" y="147.419545" style="fill: #1f77b4; stroke: #1f77b4"/>
     <use xlink:href="#m25e45ccb91" x="123.276449" y="136.161364" style="fill: #1f77b4; stroke: #1f77b4"/>
     <use xlink:href="#m25e45ccb91" x="136.420767" y="147.419545" style="fill: #1f77b4; stroke: #1f77b4"/>
     <use xlink:href="#m25e45ccb91" x="149.565085" y="124.903182" style="fill: #1f77b4; stroke: #1f77b4"/>
     <use xlink:href="#m25e45ccb91" x="162.709403" y="79.870455" style="fill: #1f77b4; stroke: #1f77b4"/>
     <use xlink:href="#m25e45ccb91" x="175.853722" y="143.666818" style="fill: #1f77b4; stroke: #1f77b4"/>
     <use xlink:href="#m25e45ccb91" x="188.99804" y="102.386818" style="fill: #1f77b4; stroke: #1f77b4"/>
     <use xlink:href="#m25e45ccb91" x="202.142358" y="173.688636" style="fill: #1f77b4; stroke: #1f77b4"/>
     <use xlink:href="#m25e45ccb91" x="215.286676" y="121.150455" style="fill: #1f77b4; stroke: #1f77b4"/>
     <use xlink:href="#m25e45ccb91" x="228.430994" y="132.408636" style="fill: #1f77b4; stroke: #1f77b4"/>
     <use xlink:href="#m25e45ccb91" x="241.575312" y="128.655909" style="fill: #1f77b4; stroke: #1f77b4"/>
     <use xlink:href="#m25e45ccb91" x="254.719631" y="181.194091" style="fill: #1f77b4; stroke: #1f77b4"/>
     <use xlink:href="#m25e45ccb91" x="267.863949" y="154.925" style="fill: #1f77b4; stroke: #1f77b4"/>
     <use xlink:href="#m25e45ccb91" x="281.008267" y="166.183182" style="fill: #1f77b4; stroke: #1f77b4"/>
     <use xlink:href="#m25e45ccb91" x="294.152585" y="139.914091" style="fill: #1f77b4; stroke: #1f77b4"/>
     <use xlink:href="#m25e45ccb91" x="307.296903" y="218.721364" style="fill: #1f77b4; stroke: #1f77b4"/>
     <use xlink:href="#m25e45ccb91" x="320.441222" y="147.419545" style="fill: #1f77b4; stroke: #1f77b4"/>
     <use xlink:href="#m25e45ccb91" x="333.58554" y="207.463182" style="fill: #1f77b4; stroke: #1f77b4"/>
     <use xlink:href="#m25e45ccb91" x="346.729858" y="199.957727" style="fill: #1f77b4; stroke: #1f77b4"/>
     <use xlink:href="#m25e45ccb91" x="359.874176" y="192.452273" style="fill: #1f77b4; stroke: #1f77b4"/>
     <use xlink:href="#m25e45ccb91" x="373.018494" y="162.430455" style="fill: #1f77b4; stroke: #1f77b4"/>
     <use xlink:href="#m25e45ccb91" x="386.162813" y="143.666818" style="fill: #1f77b4; stroke: #1f77b4"/>
     <use xlink:href="#m25e45ccb91" x="399.307131" y="154.925" style="fill: #1f77b4; stroke: #1f77b4"/>
     <use xlink:href="#m25e45ccb91" x="412.451449" y="151.172273" style="fill: #1f77b4; stroke: #1f77b4"/>
     <use xlink:href="#m25e45ccb91" x="425.595767" y="203.710455" style="fill: #1f77b4; stroke: #1f77b4"/>
     <use xlink:href="#m25e45ccb91" x="438.740085" y="214.968636" style="fill: #1f77b4; stroke: #1f77b4"/>
     <use xlink:href="#m25e45ccb91" x="451.884403" y="132.408636" style="fill: #1f77b4; stroke: #1f77b4"/>
     <use xlink:href="#m25e45ccb91" x="465.028722" y="181.194091" style="fill: #1f77b4; stroke: #1f77b4"/>
     <use xlink:href="#m25e45ccb91" x="478.17304" y="173.688636" style="fill: #1f77b4; stroke: #1f77b4"/>
     <use xlink:href="#m25e45ccb91" x="491.317358" y="196.205" style="fill: #1f77b4; stroke: #1f77b4"/>
     <use xlink:href="#m25e45ccb91" x="504.461676" y="177.441364" style="fill: #1f77b4; stroke: #1f77b4"/>
     <use xlink:href="#m25e45ccb91" x="517.605994" y="214.968636" style="fill: #1f77b4; stroke: #1f77b4"/>
     <use xlink:href="#m25e45ccb91" x="530.750312" y="199.957727" style="fill: #1f77b4; stroke: #1f77b4"/>
     <use xlink:href="#m25e45ccb91" x="543.894631" y="177.441364" style="fill: #1f77b4; stroke: #1f77b4"/>
     <use xlink:href="#m25e45ccb91" x="557.038949" y="128.655909" style="fill: #1f77b4; stroke: #1f77b4"/>
     <use xlink:href="#m25e45ccb91" x="570.183267" y="154.925" style="fill: #1f77b4; stroke: #1f77b4"/>
     <use xlink:href="#m25e45ccb91" x="583.327585" y="83.623182" style="fill: #1f77b4; stroke: #1f77b4"/>
     <use xlink:href="#m25e45ccb91" x="596.471903" y="196.205" style="fill: #1f77b4; stroke: #1f77b4"/>
     <use xlink:href="#m25e45ccb91" x="609.616222" y="139.914091" style="fill: #1f77b4; stroke: #1f77b4"/>
     <use xlink:href="#m25e45ccb91" x="622.76054" y="199.957727" style="fill: #1f77b4; stroke: #1f77b4"/>
     <use xlink:href="#m25e45ccb91" x="635.904858" y="136.161364" style="fill: #1f77b4; stroke: #1f77b4"/>
     <use xlink:href="#m25e45ccb91" x="649.049176" y="169.935909" style="fill: #1f77b4; stroke: #1f77b4"/>
     <use xlink:href="#m25e45ccb91" x="662.193494" y="188.699545" style="fill: #1f77b4; stroke: #1f77b4"/>
     <use xlink:href="#m25e45ccb91" x="675.337813" y="162.430455" style="fill: #1f77b4; stroke: #1f77b4"/>
     <use xlink:href="#m25e45ccb91" x="688.482131" y="158.677727" style="fill: #1f77b4; stroke: #1f77b4"/>
     <use xlink:href="#m25e45ccb91" x="701.626449" y="169.935909" style="fill: #1f77b4; stroke: #1f77b4"/>
     <use xlink:href="#m25e45ccb91" x="714.770767" y="211.215909" style="fill: #1f77b4; stroke: #1f77b4"/>
     <use xlink:href="#m25e45ccb91" x="727.915085" y="196.205" style="fill: #1f77b4; stroke: #1f77b4"/>
     <use xlink:href="#m25e45ccb91" x="741.059403" y="192.452273" style="fill: #1f77b4; stroke: #1f77b4"/>
     <use xlink:href="#m25e45ccb91" x="754.203722" y="211.215909" style="fill: #1f77b4; stroke: #1f77b4"/>
     <use xlink:href="#m25e45ccb91" x="767.34804" y="151.172273" style="fill: #1f77b4; stroke: #1f77b4"/>
     <use xlink:href="#m25e45ccb91" x="780.492358" y="151.172273" style="fill: #1f77b4; stroke: #1f77b4"/>
     <use xlink:href="#m25e45ccb91" x="793.636676" y="181.194091" style="fill: #1f77b4; stroke: #1f77b4"/>
     <use xlink:href="#m25e45ccb91" x="806.780994" y="154.925" style="fill: #1f77b4; stroke: #1f77b4"/>
     <use xlink:href="#m25e45ccb91" x="819.925313" y="229.979545" style="fill: #1f77b4; stroke: #1f77b4"/>
     <use xlink:href="#m25e45ccb91" x="833.069631" y="199.957727" style="fill: #1f77b4; stroke: #1f77b4"/>
     <use xlink:href="#m25e45ccb91" x="846.213949" y="214.968636" style="fill: #1f77b4; stroke: #1f77b4"/>
     <use xlink:href="#m25e45ccb91" x="859.358267" y="113.645" style="fill: #1f77b4; stroke: #1f77b4"/>
     <use xlink:href="#m25e45ccb91" x="872.502585" y="91.128636" style="fill: #1f77b4; stroke: #1f77b4"/>
     <use xlink:href="#m25e45ccb91" x="885.646903" y="117.397727" style="fill: #1f77b4; stroke: #1f77b4"/>
     <use xlink:href="#m25e45ccb91" x="898.791222" y="94.881364" style="fill: #1f77b4; stroke: #1f77b4"/>
     <use xlink:href="#m25e45ccb91" x="911.93554" y="102.386818" style="fill: #1f77b4; stroke: #1f77b4"/>
     <use xlink:href="#m25e45ccb91" x="925.079858" y="158.677727" style="fill: #1f77b4; stroke: #1f77b4"/>
     <use xlink:href="#m25e45ccb91" x="938.224176" y="83.623182" style="fill: #1f77b4; stroke: #1f77b4"/>
     <use xlink:href="#m25e45ccb91" x="951.368494" y="154.925" style="fill: #1f77b4; stroke: #1f77b4"/>
    </g>
   </g>
   <g id="patch_3">
    <path d="M 68.070312 237.485 
L 68.070312 72.365 
" style="fill: none; stroke: #000000; stroke-width: 0.8; stroke-linejoin: miter; stroke-linecap: square"/>
   </g>
   <g id="patch_4">
    <path d="M 993.430313 237.485 
L 993.430313 72.365 
" style="fill: none; stroke: #000000; stroke-width: 0.8; stroke-linejoin: miter; stroke-linecap: square"/>
   </g>
   <g id="patch_5">
    <path d="M 68.070312 237.485 
L 993.430313 237.485 
" style="fill: none; stroke: #000000; stroke-width: 0.8; stroke-linejoin: miter; stroke-linecap: square"/>
   </g>
   <g id="patch_6">
    <path d="M 68.070312 72.365 
L 993.430313 72.365 
" style="fill: none; stroke: #000000; stroke-width: 0.8; stroke-linejoin: miter; stroke-linecap: square"/>
   </g>
  </g>
  <g id="axes_2">
   <g id="patch_7">
    <path d="M 68.070312 416.905 
L 993.430313 416.905 
L 993.430313 251.785 
L 68.070312 251.785 
z
" style="fill: #ffffff"/>
   </g>
   <g id="matplotlib.axis_3">
    <g id="xtick_8">
     <g id="line2d_24">
      <path d="M 96.987813 416.905 
L 96.987813 251.785 
" clip-path="url(#p34b3d4e6a7)" style="fill: none; stroke: #b0b0b0; stroke-width: 0.8; stroke-linecap: square"/>
     </g>
     <g id="line2d_25">
      <g>
       <use xlink:href="#m365c89cc98" x="96.987813" y="416.905" style="stroke: #000000; stroke-width: 0.8"/>
      </g>
     </g>
    </g>
    <g id="xtick_9">
     <g id="line2d_26">
      <path d="M 228.430994 416.905 
L 228.430994 251.785 
" clip-path="url(#p34b3d4e6a7)" style="fill: none; stroke: #b0b0b0; stroke-width: 0.8; stroke-linecap: square"/>
     </g>
     <g id="line2d_27">
      <g>
       <use xlink:href="#m365c89cc98" x="228.430994" y="416.905" style="stroke: #000000; stroke-width: 0.8"/>
      </g>
     </g>
    </g>
    <g id="xtick_10">
     <g id="line2d_28">
      <path d="M 359.874176 416.905 
L 359.874176 251.785 
" clip-path="url(#p34b3d4e6a7)" style="fill: none; stroke: #b0b0b0; stroke-width: 0.8; stroke-linecap: square"/>
     </g>
     <g id="line2d_29">
      <g>
       <use xlink:href="#m365c89cc98" x="359.874176" y="416.905" style="stroke: #000000; stroke-width: 0.8"/>
      </g>
     </g>
    </g>
    <g id="xtick_11">
     <g id="line2d_30">
      <path d="M 491.317358 416.905 
L 491.317358 251.785 
" clip-path="url(#p34b3d4e6a7)" style="fill: none; stroke: #b0b0b0; stroke-width: 0.8; stroke-linecap: square"/>
     </g>
     <g id="line2d_31">
      <g>
       <use xlink:href="#m365c89cc98" x="491.317358" y="416.905" style="stroke: #000000; stroke-width: 0.8"/>
      </g>
     </g>
    </g>
    <g id="xtick_12">
     <g id="line2d_32">
      <path d="M 622.76054 416.905 
L 622.76054 251.785 
" clip-path="url(#p34b3d4e6a7)" style="fill: none; stroke: #b0b0b0; stroke-width: 0.8; stroke-linecap: square"/>
     </g>
     <g id="line2d_33">
      <g>
       <use xlink:href="#m365c89cc98" x="622.76054" y="416.905" style="stroke: #000000; stroke-width: 0.8"/>
      </g>
     </g>
    </g>
    <g id="xtick_13">
     <g id="line2d_34">
      <path d="M 754.203722 416.905 
L 754.203722 251.785 
" clip-path="url(#p34b3d4e6a7)" style="fill: none; stroke: #b0b0b0; stroke-width: 0.8; stroke-linecap: square"/>
     </g>
     <g id="line2d_35">
      <g>
       <use xlink:href="#m365c89cc98" x="754.203722" y="416.905" style="stroke: #000000; stroke-width: 0.8"/>
      </g>
     </g>
    </g>
    <g id="xtick_14">
     <g id="line2d_36">
      <path d="M 885.646903 416.905 
L 885.646903 251.785 
" clip-path="url(#p34b3d4e6a7)" style="fill: none; stroke: #b0b0b0; stroke-width: 0.8; stroke-linecap: square"/>
     </g>
     <g id="line2d_37">
      <g>
       <use xlink:href="#m365c89cc98" x="885.646903" y="416.905" style="stroke: #000000; stroke-width: 0.8"/>
      </g>
     </g>
    </g>
   </g>
   <g id="matplotlib.axis_4">
    <g id="ytick_5">
     <g id="line2d_38">
      <path d="M 68.070312 409.399545 
L 993.430313 409.399545 
" clip-path="url(#p34b3d4e6a7)" style="fill: none; stroke: #b0b0b0; stroke-width: 0.8; stroke-linecap: square"/>
     </g>
     <g id="line2d_39">
      <g>
       <use xlink:href="#m1c8bf791e7" x="68.070312" y="409.399545" style="stroke: #000000; stroke-width: 0.8"/>
      </g>
     </g>
     <g id="text_6">
      <!-- 0 -->
      <g transform="translate(54.707813 413.198764) scale(0.1 -0.1)">
       <use xlink:href="#DejaVuSans-30"/>
      </g>
     </g>
    </g>
    <g id="ytick_6">
     <g id="line2d_40">
      <path d="M 68.070312 371.872273 
L 993.430313 371.872273 
" clip-path="url(#p34b3d4e6a7)" style="fill: none; stroke: #b0b0b0; stroke-width: 0.8; stroke-linecap: square"/>
     </g>
     <g id="line2d_41">
      <g>
       <use xlink:href="#m1c8bf791e7" x="68.070312" y="371.872273" style="stroke: #000000; stroke-width: 0.8"/>
      </g>
     </g>
     <g id="text_7">
      <!-- 100 -->
      <g transform="translate(41.982812 375.671491) scale(0.1 -0.1)">
       <defs>
        <path id="DejaVuSans-31" d="M 794 531 
L 1825 531 
L 1825 4091 
L 703 3866 
L 703 4441 
L 1819 4666 
L 2450 4666 
L 2450 531 
L 3481 531 
L 3481 0 
L 794 0 
L 794 531 
z
" transform="scale(0.015625)"/>
       </defs>
       <use xlink:href="#DejaVuSans-31"/>
       <use xlink:href="#DejaVuSans-30" x="63.623047"/>
       <use xlink:href="#DejaVuSans-30" x="127.246094"/>
      </g>
     </g>
    </g>
    <g id="ytick_7">
     <g id="line2d_42">
      <path d="M 68.070312 334.345 
L 993.430313 334.345 
" clip-path="url(#p34b3d4e6a7)" style="fill: none; stroke: #b0b0b0; stroke-width: 0.8; stroke-linecap: square"/>
     </g>
     <g id="line2d_43">
      <g>
       <use xlink:href="#m1c8bf791e7" x="68.070312" y="334.345" style="stroke: #000000; stroke-width: 0.8"/>
      </g>
     </g>
     <g id="text_8">
      <!-- 200 -->
      <g transform="translate(41.982812 338.144219) scale(0.1 -0.1)">
       <use xlink:href="#DejaVuSans-32"/>
       <use xlink:href="#DejaVuSans-30" x="63.623047"/>
       <use xlink:href="#DejaVuSans-30" x="127.246094"/>
      </g>
     </g>
    </g>
    <g id="ytick_8">
     <g id="line2d_44">
      <path d="M 68.070312 296.817727 
L 993.430313 296.817727 
" clip-path="url(#p34b3d4e6a7)" style="fill: none; stroke: #b0b0b0; stroke-width: 0.8; stroke-linecap: square"/>
     </g>
     <g id="line2d_45">
      <g>
       <use xlink:href="#m1c8bf791e7" x="68.070312" y="296.817727" style="stroke: #000000; stroke-width: 0.8"/>
      </g>
     </g>
     <g id="text_9">
      <!-- 300 -->
      <g transform="translate(41.982812 300.616946) scale(0.1 -0.1)">
       <use xlink:href="#DejaVuSans-33"/>
       <use xlink:href="#DejaVuSans-30" x="63.623047"/>
       <use xlink:href="#DejaVuSans-30" x="127.246094"/>
      </g>
     </g>
    </g>
    <g id="ytick_9">
     <g id="line2d_46">
      <path d="M 68.070312 259.290455 
L 993.430313 259.290455 
" clip-path="url(#p34b3d4e6a7)" style="fill: none; stroke: #b0b0b0; stroke-width: 0.8; stroke-linecap: square"/>
     </g>
     <g id="line2d_47">
      <g>
       <use xlink:href="#m1c8bf791e7" x="68.070312" y="259.290455" style="stroke: #000000; stroke-width: 0.8"/>
      </g>
     </g>
     <g id="text_10">
      <!-- 400 -->
      <g transform="translate(41.982812 263.089673) scale(0.1 -0.1)">
       <use xlink:href="#DejaVuSans-34"/>
       <use xlink:href="#DejaVuSans-30" x="63.623047"/>
       <use xlink:href="#DejaVuSans-30" x="127.246094"/>
      </g>
     </g>
    </g>
    <g id="text_11">
     <!-- Wand berührungen -->
     <g transform="translate(35.903125 382.422344) rotate(-90) scale(0.1 -0.1)">
      <defs>
       <path id="DejaVuSans-57" d="M 213 4666 
L 850 4666 
L 1831 722 
L 2809 4666 
L 3519 4666 
L 4500 722 
L 5478 4666 
L 6119 4666 
L 4947 0 
L 4153 0 
L 3169 4050 
L 2175 0 
L 1381 0 
L 213 4666 
z
" transform="scale(0.015625)"/>
       <path id="DejaVuSans-6e" d="M 3513 2113 
L 3513 0 
L 2938 0 
L 2938 2094 
Q 2938 2591 2744 2837 
Q 2550 3084 2163 3084 
Q 1697 3084 1428 2787 
Q 1159 2491 1159 1978 
L 1159 0 
L 581 0 
L 581 3500 
L 1159 3500 
L 1159 2956 
Q 1366 3272 1645 3428 
Q 1925 3584 2291 3584 
Q 2894 3584 3203 3211 
Q 3513 2838 3513 2113 
z
" transform="scale(0.015625)"/>
       <path id="DejaVuSans-20" transform="scale(0.015625)"/>
       <path id="DejaVuSans-72" d="M 2631 2963 
Q 2534 3019 2420 3045 
Q 2306 3072 2169 3072 
Q 1681 3072 1420 2755 
Q 1159 2438 1159 1844 
L 1159 0 
L 581 0 
L 581 3500 
L 1159 3500 
L 1159 2956 
Q 1341 3275 1631 3429 
Q 1922 3584 2338 3584 
Q 2397 3584 2469 3576 
Q 2541 3569 2628 3553 
L 2631 2963 
z
" transform="scale(0.015625)"/>
       <path id="DejaVuSans-fc" d="M 544 1381 
L 544 3500 
L 1119 3500 
L 1119 1403 
Q 1119 906 1312 657 
Q 1506 409 1894 409 
Q 2359 409 2629 706 
Q 2900 1003 2900 1516 
L 2900 3500 
L 3475 3500 
L 3475 0 
L 2900 0 
L 2900 538 
Q 2691 219 2414 64 
Q 2138 -91 1772 -91 
Q 1169 -91 856 284 
Q 544 659 544 1381 
z
M 1991 3584 
L 1991 3584 
z
M 2278 4850 
L 2912 4850 
L 2912 4219 
L 2278 4219 
L 2278 4850 
z
M 1056 4850 
L 1690 4850 
L 1690 4219 
L 1056 4219 
L 1056 4850 
z
" transform="scale(0.015625)"/>
       <path id="DejaVuSans-68" d="M 3513 2113 
L 3513 0 
L 2938 0 
L 2938 2094 
Q 2938 2591 2744 2837 
Q 2550 3084 2163 3084 
Q 1697 3084 1428 2787 
Q 1159 2491 1159 1978 
L 1159 0 
L 581 0 
L 581 4863 
L 1159 4863 
L 1159 2956 
Q 1366 3272 1645 3428 
Q 1925 3584 2291 3584 
Q 2894 3584 3203 3211 
Q 3513 2838 3513 2113 
z
" transform="scale(0.015625)"/>
       <path id="DejaVuSans-75" d="M 544 1381 
L 544 3500 
L 1119 3500 
L 1119 1403 
Q 1119 906 1312 657 
Q 1506 409 1894 409 
Q 2359 409 2629 706 
Q 2900 1003 2900 1516 
L 2900 3500 
L 3475 3500 
L 3475 0 
L 2900 0 
L 2900 538 
Q 2691 219 2414 64 
Q 2138 -91 1772 -91 
Q 1169 -91 856 284 
Q 544 659 544 1381 
z
M 1991 3584 
L 1991 3584 
z
" transform="scale(0.015625)"/>
      </defs>
      <use xlink:href="#DejaVuSans-57"/>
      <use xlink:href="#DejaVuSans-61" x="92.501953"/>
      <use xlink:href="#DejaVuSans-6e" x="153.78125"/>
      <use xlink:href="#DejaVuSans-64" x="217.160156"/>
      <use xlink:href="#DejaVuSans-20" x="280.636719"/>
      <use xlink:href="#DejaVuSans-62" x="312.423828"/>
      <use xlink:href="#DejaVuSans-65" x="375.900391"/>
      <use xlink:href="#DejaVuSans-72" x="437.423828"/>
      <use xlink:href="#DejaVuSans-fc" x="478.537109"/>
      <use xlink:href="#DejaVuSans-68" x="541.916016"/>
      <use xlink:href="#DejaVuSans-72" x="605.294922"/>
      <use xlink:href="#DejaVuSans-75" x="646.408203"/>
      <use xlink:href="#DejaVuSans-6e" x="709.787109"/>
      <use xlink:href="#DejaVuSans-67" x="773.166016"/>
      <use xlink:href="#DejaVuSans-65" x="836.642578"/>
      <use xlink:href="#DejaVuSans-6e" x="898.166016"/>
     </g>
    </g>
   </g>
   <g id="line2d_48">
    <path d="M 110.132131 326.089 
L 123.276449 313.329727 
L 136.420767 259.290455 
L 149.565085 359.113 
L 162.709403 360.614091 
L 175.853722 354.609727 
L 188.99804 305.073727 
L 202.142358 303.197364 
L 215.286676 288.561727 
L 228.430994 314.080273 
L 241.575312 294.190818 
L 254.719631 320.835182 
L 267.863949 369.245364 
L 281.008267 324.963182 
L 294.152585 348.605364 
L 307.296903 409.399545 
L 320.441222 337.722455 
L 333.58554 342.976273 
L 346.729858 366.993727 
L 359.874176 395.514455 
L 373.018494 402.269364 
L 386.162813 290.813364 
L 399.307131 359.488273 
L 412.451449 329.091182 
L 425.595767 340.724636 
L 438.740085 392.887545 
L 451.884403 345.978455 
L 465.028722 351.607545 
L 478.17304 297.568273 
L 491.317358 390.635909 
L 504.461676 384.631545 
L 517.605994 401.143545 
L 530.750312 401.143545 
L 543.894631 323.462091 
L 557.038949 303.572636 
L 570.183267 322.711545 
L 583.327585 339.598818 
L 596.471903 372.247545 
L 609.616222 372.247545 
L 622.76054 391.011182 
L 635.904858 374.499182 
L 649.049176 357.236636 
L 662.193494 382.004636 
L 675.337813 373.748636 
L 688.482131 369.620636 
L 701.626449 364.366818 
L 714.770767 396.640273 
L 727.915085 372.247545 
L 741.059403 344.477364 
L 754.203722 288.937 
L 767.34804 397.766091 
L 780.492358 400.768273 
L 793.636676 405.646818 
L 806.780994 389.134818 
L 819.925313 374.874455 
L 833.069631 402.644636 
L 846.213949 384.631545 
L 859.358267 327.965364 
L 872.502585 391.761727 
L 885.646903 324.963182 
L 898.791222 347.854818 
L 911.93554 346.353727 
L 925.079858 330.592273 
L 938.224176 355.360273 
L 951.368494 359.488273 
" clip-path="url(#p34b3d4e6a7)" style="fill: none; stroke: #1f77b4; stroke-width: 1.5; stroke-linecap: square"/>
    <g clip-path="url(#p34b3d4e6a7)">
     <use xlink:href="#m25e45ccb91" x="110.132131" y="326.089" style="fill: #1f77b4; stroke: #1f77b4"/>
     <use xlink:href="#m25e45ccb91" x="123.276449" y="313.329727" style="fill: #1f77b4; stroke: #1f77b4"/>
     <use xlink:href="#m25e45ccb91" x="136.420767" y="259.290455" style="fill: #1f77b4; stroke: #1f77b4"/>
     <use xlink:href="#m25e45ccb91" x="149.565085" y="359.113" style="fill: #1f77b4; stroke: #1f77b4"/>
     <use xlink:href="#m25e45ccb91" x="162.709403" y="360.614091" style="fill: #1f77b4; stroke: #1f77b4"/>
     <use xlink:href="#m25e45ccb91" x="175.853722" y="354.609727" style="fill: #1f77b4; stroke: #1f77b4"/>
     <use xlink:href="#m25e45ccb91" x="188.99804" y="305.073727" style="fill: #1f77b4; stroke: #1f77b4"/>
     <use xlink:href="#m25e45ccb91" x="202.142358" y="303.197364" style="fill: #1f77b4; stroke: #1f77b4"/>
     <use xlink:href="#m25e45ccb91" x="215.286676" y="288.561727" style="fill: #1f77b4; stroke: #1f77b4"/>
     <use xlink:href="#m25e45ccb91" x="228.430994" y="314.080273" style="fill: #1f77b4; stroke: #1f77b4"/>
     <use xlink:href="#m25e45ccb91" x="241.575312" y="294.190818" style="fill: #1f77b4; stroke: #1f77b4"/>
     <use xlink:href="#m25e45ccb91" x="254.719631" y="320.835182" style="fill: #1f77b4; stroke: #1f77b4"/>
     <use xlink:href="#m25e45ccb91" x="267.863949" y="369.245364" style="fill: #1f77b4; stroke: #1f77b4"/>
     <use xlink:href="#m25e45ccb91" x="281.008267" y="324.963182" style="fill: #1f77b4; stroke: #1f77b4"/>
     <use xlink:href="#m25e45ccb91" x="294.152585" y="348.605364" style="fill: #1f77b4; stroke: #1f77b4"/>
     <use xlink:href="#m25e45ccb91" x="307.296903" y="409.399545" style="fill: #1f77b4; stroke: #1f77b4"/>
     <use xlink:href="#m25e45ccb91" x="320.441222" y="337.722455" style="fill: #1f77b4; stroke: #1f77b4"/>
     <use xlink:href="#m25e45ccb91" x="333.58554" y="342.976273" style="fill: #1f77b4; stroke: #1f77b4"/>
     <use xlink:href="#m25e45ccb91" x="346.729858" y="366.993727" style="fill: #1f77b4; stroke: #1f77b4"/>
     <use xlink:href="#m25e45ccb91" x="359.874176" y="395.514455" style="fill: #1f77b4; stroke: #1f77b4"/>
     <use xlink:href="#m25e45ccb91" x="373.018494" y="402.269364" style="fill: #1f77b4; stroke: #1f77b4"/>
     <use xlink:href="#m25e45ccb91" x="386.162813" y="290.813364" style="fill: #1f77b4; stroke: #1f77b4"/>
     <use xlink:href="#m25e45ccb91" x="399.307131" y="359.488273" style="fill: #1f77b4; stroke: #1f77b4"/>
     <use xlink:href="#m25e45ccb91" x="412.451449" y="329.091182" style="fill: #1f77b4; stroke: #1f77b4"/>
     <use xlink:href="#m25e45ccb91" x="425.595767" y="340.724636" style="fill: #1f77b4; stroke: #1f77b4"/>
     <use xlink:href="#m25e45ccb91" x="438.740085" y="392.887545" style="fill: #1f77b4; stroke: #1f77b4"/>
     <use xlink:href="#m25e45ccb91" x="451.884403" y="345.978455" style="fill: #1f77b4; stroke: #1f77b4"/>
     <use xlink:href="#m25e45ccb91" x="465.028722" y="351.607545" style="fill: #1f77b4; stroke: #1f77b4"/>
     <use xlink:href="#m25e45ccb91" x="478.17304" y="297.568273" style="fill: #1f77b4; stroke: #1f77b4"/>
     <use xlink:href="#m25e45ccb91" x="491.317358" y="390.635909" style="fill: #1f77b4; stroke: #1f77b4"/>
     <use xlink:href="#m25e45ccb91" x="504.461676" y="384.631545" style="fill: #1f77b4; stroke: #1f77b4"/>
     <use xlink:href="#m25e45ccb91" x="517.605994" y="401.143545" style="fill: #1f77b4; stroke: #1f77b4"/>
     <use xlink:href="#m25e45ccb91" x="530.750312" y="401.143545" style="fill: #1f77b4; stroke: #1f77b4"/>
     <use xlink:href="#m25e45ccb91" x="543.894631" y="323.462091" style="fill: #1f77b4; stroke: #1f77b4"/>
     <use xlink:href="#m25e45ccb91" x="557.038949" y="303.572636" style="fill: #1f77b4; stroke: #1f77b4"/>
     <use xlink:href="#m25e45ccb91" x="570.183267" y="322.711545" style="fill: #1f77b4; stroke: #1f77b4"/>
     <use xlink:href="#m25e45ccb91" x="583.327585" y="339.598818" style="fill: #1f77b4; stroke: #1f77b4"/>
     <use xlink:href="#m25e45ccb91" x="596.471903" y="372.247545" style="fill: #1f77b4; stroke: #1f77b4"/>
     <use xlink:href="#m25e45ccb91" x="609.616222" y="372.247545" style="fill: #1f77b4; stroke: #1f77b4"/>
     <use xlink:href="#m25e45ccb91" x="622.76054" y="391.011182" style="fill: #1f77b4; stroke: #1f77b4"/>
     <use xlink:href="#m25e45ccb91" x="635.904858" y="374.499182" style="fill: #1f77b4; stroke: #1f77b4"/>
     <use xlink:href="#m25e45ccb91" x="649.049176" y="357.236636" style="fill: #1f77b4; stroke: #1f77b4"/>
     <use xlink:href="#m25e45ccb91" x="662.193494" y="382.004636" style="fill: #1f77b4; stroke: #1f77b4"/>
     <use xlink:href="#m25e45ccb91" x="675.337813" y="373.748636" style="fill: #1f77b4; stroke: #1f77b4"/>
     <use xlink:href="#m25e45ccb91" x="688.482131" y="369.620636" style="fill: #1f77b4; stroke: #1f77b4"/>
     <use xlink:href="#m25e45ccb91" x="701.626449" y="364.366818" style="fill: #1f77b4; stroke: #1f77b4"/>
     <use xlink:href="#m25e45ccb91" x="714.770767" y="396.640273" style="fill: #1f77b4; stroke: #1f77b4"/>
     <use xlink:href="#m25e45ccb91" x="727.915085" y="372.247545" style="fill: #1f77b4; stroke: #1f77b4"/>
     <use xlink:href="#m25e45ccb91" x="741.059403" y="344.477364" style="fill: #1f77b4; stroke: #1f77b4"/>
     <use xlink:href="#m25e45ccb91" x="754.203722" y="288.937" style="fill: #1f77b4; stroke: #1f77b4"/>
     <use xlink:href="#m25e45ccb91" x="767.34804" y="397.766091" style="fill: #1f77b4; stroke: #1f77b4"/>
     <use xlink:href="#m25e45ccb91" x="780.492358" y="400.768273" style="fill: #1f77b4; stroke: #1f77b4"/>
     <use xlink:href="#m25e45ccb91" x="793.636676" y="405.646818" style="fill: #1f77b4; stroke: #1f77b4"/>
     <use xlink:href="#m25e45ccb91" x="806.780994" y="389.134818" style="fill: #1f77b4; stroke: #1f77b4"/>
     <use xlink:href="#m25e45ccb91" x="819.925313" y="374.874455" style="fill: #1f77b4; stroke: #1f77b4"/>
     <use xlink:href="#m25e45ccb91" x="833.069631" y="402.644636" style="fill: #1f77b4; stroke: #1f77b4"/>
     <use xlink:href="#m25e45ccb91" x="846.213949" y="384.631545" style="fill: #1f77b4; stroke: #1f77b4"/>
     <use xlink:href="#m25e45ccb91" x="859.358267" y="327.965364" style="fill: #1f77b4; stroke: #1f77b4"/>
     <use xlink:href="#m25e45ccb91" x="872.502585" y="391.761727" style="fill: #1f77b4; stroke: #1f77b4"/>
     <use xlink:href="#m25e45ccb91" x="885.646903" y="324.963182" style="fill: #1f77b4; stroke: #1f77b4"/>
     <use xlink:href="#m25e45ccb91" x="898.791222" y="347.854818" style="fill: #1f77b4; stroke: #1f77b4"/>
     <use xlink:href="#m25e45ccb91" x="911.93554" y="346.353727" style="fill: #1f77b4; stroke: #1f77b4"/>
     <use xlink:href="#m25e45ccb91" x="925.079858" y="330.592273" style="fill: #1f77b4; stroke: #1f77b4"/>
     <use xlink:href="#m25e45ccb91" x="938.224176" y="355.360273" style="fill: #1f77b4; stroke: #1f77b4"/>
     <use xlink:href="#m25e45ccb91" x="951.368494" y="359.488273" style="fill: #1f77b4; stroke: #1f77b4"/>
    </g>
   </g>
   <g id="patch_8">
    <path d="M 68.070312 416.905 
L 68.070312 251.785 
" style="fill: none; stroke: #000000; stroke-width: 0.8; stroke-linejoin: miter; stroke-linecap: square"/>
   </g>
   <g id="patch_9">
    <path d="M 993.430313 416.905 
L 993.430313 251.785 
" style="fill: none; stroke: #000000; stroke-width: 0.8; stroke-linejoin: miter; stroke-linecap: square"/>
   </g>
   <g id="patch_10">
    <path d="M 68.070312 416.905 
L 993.430313 416.905 
" style="fill: none; stroke: #000000; stroke-width: 0.8; stroke-linejoin: miter; stroke-linecap: square"/>
   </g>
   <g id="patch_11">
    <path d="M 68.070312 251.785 
L 993.430313 251.785 
" style="fill: none; stroke: #000000; stroke-width: 0.8; stroke-linejoin: miter; stroke-linecap: square"/>
   </g>
  </g>
  <g id="axes_3">
   <g id="patch_12">
    <path d="M 68.070312 596.325 
L 993.430313 596.325 
L 993.430313 431.205 
L 68.070312 431.205 
z
" style="fill: #ffffff"/>
   </g>
   <g id="matplotlib.axis_5">
    <g id="xtick_15">
     <g id="line2d_49">
      <path d="M 96.987813 596.325 
L 96.987813 431.205 
" clip-path="url(#p9c66c74598)" style="fill: none; stroke: #b0b0b0; stroke-width: 0.8; stroke-linecap: square"/>
     </g>
     <g id="line2d_50">
      <g>
       <use xlink:href="#m365c89cc98" x="96.987813" y="596.325" style="stroke: #000000; stroke-width: 0.8"/>
      </g>
     </g>
     <g id="text_12">
      <!-- 0 -->
      <g transform="translate(93.806562 610.923437) scale(0.1 -0.1)">
       <use xlink:href="#DejaVuSans-30"/>
      </g>
     </g>
    </g>
    <g id="xtick_16">
     <g id="line2d_51">
      <path d="M 228.430994 596.325 
L 228.430994 431.205 
" clip-path="url(#p9c66c74598)" style="fill: none; stroke: #b0b0b0; stroke-width: 0.8; stroke-linecap: square"/>
     </g>
     <g id="line2d_52">
      <g>
       <use xlink:href="#m365c89cc98" x="228.430994" y="596.325" style="stroke: #000000; stroke-width: 0.8"/>
      </g>
     </g>
     <g id="text_13">
      <!-- 10 -->
      <g transform="translate(222.068494 610.923437) scale(0.1 -0.1)">
       <use xlink:href="#DejaVuSans-31"/>
       <use xlink:href="#DejaVuSans-30" x="63.623047"/>
      </g>
     </g>
    </g>
    <g id="xtick_17">
     <g id="line2d_53">
      <path d="M 359.874176 596.325 
L 359.874176 431.205 
" clip-path="url(#p9c66c74598)" style="fill: none; stroke: #b0b0b0; stroke-width: 0.8; stroke-linecap: square"/>
     </g>
     <g id="line2d_54">
      <g>
       <use xlink:href="#m365c89cc98" x="359.874176" y="596.325" style="stroke: #000000; stroke-width: 0.8"/>
      </g>
     </g>
     <g id="text_14">
      <!-- 20 -->
      <g transform="translate(353.511676 610.923437) scale(0.1 -0.1)">
       <use xlink:href="#DejaVuSans-32"/>
       <use xlink:href="#DejaVuSans-30" x="63.623047"/>
      </g>
     </g>
    </g>
    <g id="xtick_18">
     <g id="line2d_55">
      <path d="M 491.317358 596.325 
L 491.317358 431.205 
" clip-path="url(#p9c66c74598)" style="fill: none; stroke: #b0b0b0; stroke-width: 0.8; stroke-linecap: square"/>
     </g>
     <g id="line2d_56">
      <g>
       <use xlink:href="#m365c89cc98" x="491.317358" y="596.325" style="stroke: #000000; stroke-width: 0.8"/>
      </g>
     </g>
     <g id="text_15">
      <!-- 30 -->
      <g transform="translate(484.954858 610.923437) scale(0.1 -0.1)">
       <use xlink:href="#DejaVuSans-33"/>
       <use xlink:href="#DejaVuSans-30" x="63.623047"/>
      </g>
     </g>
    </g>
    <g id="xtick_19">
     <g id="line2d_57">
      <path d="M 622.76054 596.325 
L 622.76054 431.205 
" clip-path="url(#p9c66c74598)" style="fill: none; stroke: #b0b0b0; stroke-width: 0.8; stroke-linecap: square"/>
     </g>
     <g id="line2d_58">
      <g>
       <use xlink:href="#m365c89cc98" x="622.76054" y="596.325" style="stroke: #000000; stroke-width: 0.8"/>
      </g>
     </g>
     <g id="text_16">
      <!-- 40 -->
      <g transform="translate(616.39804 610.923437) scale(0.1 -0.1)">
       <use xlink:href="#DejaVuSans-34"/>
       <use xlink:href="#DejaVuSans-30" x="63.623047"/>
      </g>
     </g>
    </g>
    <g id="xtick_20">
     <g id="line2d_59">
      <path d="M 754.203722 596.325 
L 754.203722 431.205 
" clip-path="url(#p9c66c74598)" style="fill: none; stroke: #b0b0b0; stroke-width: 0.8; stroke-linecap: square"/>
     </g>
     <g id="line2d_60">
      <g>
       <use xlink:href="#m365c89cc98" x="754.203722" y="596.325" style="stroke: #000000; stroke-width: 0.8"/>
      </g>
     </g>
     <g id="text_17">
      <!-- 50 -->
      <g transform="translate(747.841222 610.923437) scale(0.1 -0.1)">
       <use xlink:href="#DejaVuSans-35"/>
       <use xlink:href="#DejaVuSans-30" x="63.623047"/>
      </g>
     </g>
    </g>
    <g id="xtick_21">
     <g id="line2d_61">
      <path d="M 885.646903 596.325 
L 885.646903 431.205 
" clip-path="url(#p9c66c74598)" style="fill: none; stroke: #b0b0b0; stroke-width: 0.8; stroke-linecap: square"/>
     </g>
     <g id="line2d_62">
      <g>
       <use xlink:href="#m365c89cc98" x="885.646903" y="596.325" style="stroke: #000000; stroke-width: 0.8"/>
      </g>
     </g>
     <g id="text_18">
      <!-- 60 -->
      <g transform="translate(879.284403 610.923437) scale(0.1 -0.1)">
       <defs>
        <path id="DejaVuSans-36" d="M 2113 2584 
Q 1688 2584 1439 2293 
Q 1191 2003 1191 1497 
Q 1191 994 1439 701 
Q 1688 409 2113 409 
Q 2538 409 2786 701 
Q 3034 994 3034 1497 
Q 3034 2003 2786 2293 
Q 2538 2584 2113 2584 
z
M 3366 4563 
L 3366 3988 
Q 3128 4100 2886 4159 
Q 2644 4219 2406 4219 
Q 1781 4219 1451 3797 
Q 1122 3375 1075 2522 
Q 1259 2794 1537 2939 
Q 1816 3084 2150 3084 
Q 2853 3084 3261 2657 
Q 3669 2231 3669 1497 
Q 3669 778 3244 343 
Q 2819 -91 2113 -91 
Q 1303 -91 875 529 
Q 447 1150 447 2328 
Q 447 3434 972 4092 
Q 1497 4750 2381 4750 
Q 2619 4750 2861 4703 
Q 3103 4656 3366 4563 
z
" transform="scale(0.015625)"/>
       </defs>
       <use xlink:href="#DejaVuSans-36"/>
       <use xlink:href="#DejaVuSans-30" x="63.623047"/>
      </g>
     </g>
    </g>
    <g id="text_19">
     <!-- Runde -->
     <g transform="translate(514.912813 624.601562) scale(0.1 -0.1)">
      <defs>
       <path id="DejaVuSans-52" d="M 2841 2188 
Q 3044 2119 3236 1894 
Q 3428 1669 3622 1275 
L 4263 0 
L 3584 0 
L 2988 1197 
Q 2756 1666 2539 1819 
Q 2322 1972 1947 1972 
L 1259 1972 
L 1259 0 
L 628 0 
L 628 4666 
L 2053 4666 
Q 2853 4666 3247 4331 
Q 3641 3997 3641 3322 
Q 3641 2881 3436 2590 
Q 3231 2300 2841 2188 
z
M 1259 4147 
L 1259 2491 
L 2053 2491 
Q 2509 2491 2742 2702 
Q 2975 2913 2975 3322 
Q 2975 3731 2742 3939 
Q 2509 4147 2053 4147 
L 1259 4147 
z
" transform="scale(0.015625)"/>
      </defs>
      <use xlink:href="#DejaVuSans-52"/>
      <use xlink:href="#DejaVuSans-75" x="64.982422"/>
      <use xlink:href="#DejaVuSans-6e" x="128.361328"/>
      <use xlink:href="#DejaVuSans-64" x="191.740234"/>
      <use xlink:href="#DejaVuSans-65" x="255.216797"/>
     </g>
    </g>
   </g>
   <g id="matplotlib.axis_6">
    <g id="ytick_10">
     <g id="line2d_63">
      <path d="M 68.070312 583.623741 
L 993.430313 583.623741 
" clip-path="url(#p9c66c74598)" style="fill: none; stroke: #b0b0b0; stroke-width: 0.8; stroke-linecap: square"/>
     </g>
     <g id="line2d_64">
      <g>
       <use xlink:href="#m1c8bf791e7" x="68.070312" y="583.623741" style="stroke: #000000; stroke-width: 0.8"/>
      </g>
     </g>
     <g id="text_20">
      <!-- −12000 -->
      <g transform="translate(20.878125 587.422959) scale(0.1 -0.1)">
       <defs>
        <path id="DejaVuSans-2212" d="M 678 2272 
L 4684 2272 
L 4684 1741 
L 678 1741 
L 678 2272 
z
" transform="scale(0.015625)"/>
       </defs>
       <use xlink:href="#DejaVuSans-2212"/>
       <use xlink:href="#DejaVuSans-31" x="83.789062"/>
       <use xlink:href="#DejaVuSans-32" x="147.412109"/>
       <use xlink:href="#DejaVuSans-30" x="211.035156"/>
       <use xlink:href="#DejaVuSans-30" x="274.658203"/>
       <use xlink:href="#DejaVuSans-30" x="338.28125"/>
      </g>
     </g>
    </g>
    <g id="ytick_11">
     <g id="line2d_65">
      <path d="M 68.070312 562.197419 
L 993.430313 562.197419 
" clip-path="url(#p9c66c74598)" style="fill: none; stroke: #b0b0b0; stroke-width: 0.8; stroke-linecap: square"/>
     </g>
     <g id="line2d_66">
      <g>
       <use xlink:href="#m1c8bf791e7" x="68.070312" y="562.197419" style="stroke: #000000; stroke-width: 0.8"/>
      </g>
     </g>
     <g id="text_21">
      <!-- −10000 -->
      <g transform="translate(20.878125 565.996637) scale(0.1 -0.1)">
       <use xlink:href="#DejaVuSans-2212"/>
       <use xlink:href="#DejaVuSans-31" x="83.789062"/>
       <use xlink:href="#DejaVuSans-30" x="147.412109"/>
       <use xlink:href="#DejaVuSans-30" x="211.035156"/>
       <use xlink:href="#DejaVuSans-30" x="274.658203"/>
       <use xlink:href="#DejaVuSans-30" x="338.28125"/>
      </g>
     </g>
    </g>
    <g id="ytick_12">
     <g id="line2d_67">
      <path d="M 68.070312 540.771096 
L 993.430313 540.771096 
" clip-path="url(#p9c66c74598)" style="fill: none; stroke: #b0b0b0; stroke-width: 0.8; stroke-linecap: square"/>
     </g>
     <g id="line2d_68">
      <g>
       <use xlink:href="#m1c8bf791e7" x="68.070312" y="540.771096" style="stroke: #000000; stroke-width: 0.8"/>
      </g>
     </g>
     <g id="text_22">
      <!-- −8000 -->
      <g transform="translate(27.240625 544.570315) scale(0.1 -0.1)">
       <defs>
        <path id="DejaVuSans-38" d="M 2034 2216 
Q 1584 2216 1326 1975 
Q 1069 1734 1069 1313 
Q 1069 891 1326 650 
Q 1584 409 2034 409 
Q 2484 409 2743 651 
Q 3003 894 3003 1313 
Q 3003 1734 2745 1975 
Q 2488 2216 2034 2216 
z
M 1403 2484 
Q 997 2584 770 2862 
Q 544 3141 544 3541 
Q 544 4100 942 4425 
Q 1341 4750 2034 4750 
Q 2731 4750 3128 4425 
Q 3525 4100 3525 3541 
Q 3525 3141 3298 2862 
Q 3072 2584 2669 2484 
Q 3125 2378 3379 2068 
Q 3634 1759 3634 1313 
Q 3634 634 3220 271 
Q 2806 -91 2034 -91 
Q 1263 -91 848 271 
Q 434 634 434 1313 
Q 434 1759 690 2068 
Q 947 2378 1403 2484 
z
M 1172 3481 
Q 1172 3119 1398 2916 
Q 1625 2713 2034 2713 
Q 2441 2713 2670 2916 
Q 2900 3119 2900 3481 
Q 2900 3844 2670 4047 
Q 2441 4250 2034 4250 
Q 1625 4250 1398 4047 
Q 1172 3844 1172 3481 
z
" transform="scale(0.015625)"/>
       </defs>
       <use xlink:href="#DejaVuSans-2212"/>
       <use xlink:href="#DejaVuSans-38" x="83.789062"/>
       <use xlink:href="#DejaVuSans-30" x="147.412109"/>
       <use xlink:href="#DejaVuSans-30" x="211.035156"/>
       <use xlink:href="#DejaVuSans-30" x="274.658203"/>
      </g>
     </g>
    </g>
    <g id="ytick_13">
     <g id="line2d_69">
      <path d="M 68.070312 519.344774 
L 993.430313 519.344774 
" clip-path="url(#p9c66c74598)" style="fill: none; stroke: #b0b0b0; stroke-width: 0.8; stroke-linecap: square"/>
     </g>
     <g id="line2d_70">
      <g>
       <use xlink:href="#m1c8bf791e7" x="68.070312" y="519.344774" style="stroke: #000000; stroke-width: 0.8"/>
      </g>
     </g>
     <g id="text_23">
      <!-- −6000 -->
      <g transform="translate(27.240625 523.143993) scale(0.1 -0.1)">
       <use xlink:href="#DejaVuSans-2212"/>
       <use xlink:href="#DejaVuSans-36" x="83.789062"/>
       <use xlink:href="#DejaVuSans-30" x="147.412109"/>
       <use xlink:href="#DejaVuSans-30" x="211.035156"/>
       <use xlink:href="#DejaVuSans-30" x="274.658203"/>
      </g>
     </g>
    </g>
    <g id="ytick_14">
     <g id="line2d_71">
      <path d="M 68.070312 497.918452 
L 993.430313 497.918452 
" clip-path="url(#p9c66c74598)" style="fill: none; stroke: #b0b0b0; stroke-width: 0.8; stroke-linecap: square"/>
     </g>
     <g id="line2d_72">
      <g>
       <use xlink:href="#m1c8bf791e7" x="68.070312" y="497.918452" style="stroke: #000000; stroke-width: 0.8"/>
      </g>
     </g>
     <g id="text_24">
      <!-- −4000 -->
      <g transform="translate(27.240625 501.717671) scale(0.1 -0.1)">
       <use xlink:href="#DejaVuSans-2212"/>
       <use xlink:href="#DejaVuSans-34" x="83.789062"/>
       <use xlink:href="#DejaVuSans-30" x="147.412109"/>
       <use xlink:href="#DejaVuSans-30" x="211.035156"/>
       <use xlink:href="#DejaVuSans-30" x="274.658203"/>
      </g>
     </g>
    </g>
    <g id="ytick_15">
     <g id="line2d_73">
      <path d="M 68.070312 476.49213 
L 993.430313 476.49213 
" clip-path="url(#p9c66c74598)" style="fill: none; stroke: #b0b0b0; stroke-width: 0.8; stroke-linecap: square"/>
     </g>
     <g id="line2d_74">
      <g>
       <use xlink:href="#m1c8bf791e7" x="68.070312" y="476.49213" style="stroke: #000000; stroke-width: 0.8"/>
      </g>
     </g>
     <g id="text_25">
      <!-- −2000 -->
      <g transform="translate(27.240625 480.291349) scale(0.1 -0.1)">
       <use xlink:href="#DejaVuSans-2212"/>
       <use xlink:href="#DejaVuSans-32" x="83.789062"/>
       <use xlink:href="#DejaVuSans-30" x="147.412109"/>
       <use xlink:href="#DejaVuSans-30" x="211.035156"/>
       <use xlink:href="#DejaVuSans-30" x="274.658203"/>
      </g>
     </g>
    </g>
    <g id="ytick_16">
     <g id="line2d_75">
      <path d="M 68.070312 455.065808 
L 993.430313 455.065808 
" clip-path="url(#p9c66c74598)" style="fill: none; stroke: #b0b0b0; stroke-width: 0.8; stroke-linecap: square"/>
     </g>
     <g id="line2d_76">
      <g>
       <use xlink:href="#m1c8bf791e7" x="68.070312" y="455.065808" style="stroke: #000000; stroke-width: 0.8"/>
      </g>
     </g>
     <g id="text_26">
      <!-- 0 -->
      <g transform="translate(54.707813 458.865027) scale(0.1 -0.1)">
       <use xlink:href="#DejaVuSans-30"/>
      </g>
     </g>
    </g>
    <g id="ytick_17">
     <g id="line2d_77">
      <path d="M 68.070312 433.639486 
L 993.430313 433.639486 
" clip-path="url(#p9c66c74598)" style="fill: none; stroke: #b0b0b0; stroke-width: 0.8; stroke-linecap: square"/>
     </g>
     <g id="line2d_78">
      <g>
       <use xlink:href="#m1c8bf791e7" x="68.070312" y="433.639486" style="stroke: #000000; stroke-width: 0.8"/>
      </g>
     </g>
     <g id="text_27">
      <!-- 2000 -->
      <g transform="translate(35.620312 437.438704) scale(0.1 -0.1)">
       <use xlink:href="#DejaVuSans-32"/>
       <use xlink:href="#DejaVuSans-30" x="63.623047"/>
       <use xlink:href="#DejaVuSans-30" x="127.246094"/>
       <use xlink:href="#DejaVuSans-30" x="190.869141"/>
      </g>
     </g>
    </g>
    <g id="text_28">
     <!-- Summe Reward -->
     <g transform="translate(14.798437 553.135312) rotate(-90) scale(0.1 -0.1)">
      <defs>
       <path id="DejaVuSans-53" d="M 3425 4513 
L 3425 3897 
Q 3066 4069 2747 4153 
Q 2428 4238 2131 4238 
Q 1616 4238 1336 4038 
Q 1056 3838 1056 3469 
Q 1056 3159 1242 3001 
Q 1428 2844 1947 2747 
L 2328 2669 
Q 3034 2534 3370 2195 
Q 3706 1856 3706 1288 
Q 3706 609 3251 259 
Q 2797 -91 1919 -91 
Q 1588 -91 1214 -16 
Q 841 59 441 206 
L 441 856 
Q 825 641 1194 531 
Q 1563 422 1919 422 
Q 2459 422 2753 634 
Q 3047 847 3047 1241 
Q 3047 1584 2836 1778 
Q 2625 1972 2144 2069 
L 1759 2144 
Q 1053 2284 737 2584 
Q 422 2884 422 3419 
Q 422 4038 858 4394 
Q 1294 4750 2059 4750 
Q 2388 4750 2728 4690 
Q 3069 4631 3425 4513 
z
" transform="scale(0.015625)"/>
       <path id="DejaVuSans-6d" d="M 3328 2828 
Q 3544 3216 3844 3400 
Q 4144 3584 4550 3584 
Q 5097 3584 5394 3201 
Q 5691 2819 5691 2113 
L 5691 0 
L 5113 0 
L 5113 2094 
Q 5113 2597 4934 2840 
Q 4756 3084 4391 3084 
Q 3944 3084 3684 2787 
Q 3425 2491 3425 1978 
L 3425 0 
L 2847 0 
L 2847 2094 
Q 2847 2600 2669 2842 
Q 2491 3084 2119 3084 
Q 1678 3084 1418 2786 
Q 1159 2488 1159 1978 
L 1159 0 
L 581 0 
L 581 3500 
L 1159 3500 
L 1159 2956 
Q 1356 3278 1631 3431 
Q 1906 3584 2284 3584 
Q 2666 3584 2933 3390 
Q 3200 3197 3328 2828 
z
" transform="scale(0.015625)"/>
       <path id="DejaVuSans-77" d="M 269 3500 
L 844 3500 
L 1563 769 
L 2278 3500 
L 2956 3500 
L 3675 769 
L 4391 3500 
L 4966 3500 
L 4050 0 
L 3372 0 
L 2619 2869 
L 1863 0 
L 1184 0 
L 269 3500 
z
" transform="scale(0.015625)"/>
      </defs>
      <use xlink:href="#DejaVuSans-53"/>
      <use xlink:href="#DejaVuSans-75" x="63.476562"/>
      <use xlink:href="#DejaVuSans-6d" x="126.855469"/>
      <use xlink:href="#DejaVuSans-6d" x="224.267578"/>
      <use xlink:href="#DejaVuSans-65" x="321.679688"/>
      <use xlink:href="#DejaVuSans-20" x="383.203125"/>
      <use xlink:href="#DejaVuSans-52" x="414.990234"/>
      <use xlink:href="#DejaVuSans-65" x="479.972656"/>
      <use xlink:href="#DejaVuSans-77" x="541.496094"/>
      <use xlink:href="#DejaVuSans-61" x="623.283203"/>
      <use xlink:href="#DejaVuSans-72" x="684.5625"/>
      <use xlink:href="#DejaVuSans-64" x="723.925781"/>
     </g>
    </g>
   </g>
   <g id="line2d_79">
    <path d="M 110.132131 513.540616 
L 123.276449 523.631569 
L 136.420767 562.764252 
L 149.565085 477.152324 
L 162.709403 469.091583 
L 175.853722 479.139232 
L 188.99804 528.474506 
L 202.142358 539.121549 
L 215.286676 567.529155 
L 228.430994 533.448559 
L 241.575312 561.655703 
L 254.719631 518.623737 
L 267.863949 463.782194 
L 281.008267 527.409585 
L 294.152585 500.203499 
L 307.296903 447.552311 
L 320.441222 489.016112 
L 333.58554 493.264737 
L 346.729858 462.608038 
L 359.874176 449.225362 
L 373.018494 441.011233 
L 386.162813 558.486817 
L 399.307131 462.910028 
L 412.451449 517.465577 
L 425.595767 470.38874 
L 438.740085 451.363676 
L 451.884403 483.601056 
L 465.028722 476.337127 
L 478.17304 548.508612 
L 491.317358 452.430478 
L 504.461676 451.545027 
L 517.605994 449.566287 
L 530.750312 446.285026 
L 543.894631 462.68439 
L 557.038949 505.696088 
L 570.183267 540.286455 
L 583.327585 494.067165 
L 596.471903 466.200167 
L 609.616222 458.95425 
L 622.76054 460.412439 
L 635.904858 468.530258 
L 649.049176 466.377736 
L 662.193494 447.693892 
L 675.337813 449.651433 
L 688.482131 469.986325 
L 701.626449 458.061652 
L 714.770767 452.018427 
L 727.915085 467.195785 
L 741.059403 485.09213 
L 754.203722 588.819545 
L 767.34804 440.689674 
L 780.492358 441.777321 
L 793.636676 443.698666 
L 806.780994 448.920776 
L 819.925313 494.672385 
L 833.069631 450.622453 
L 846.213949 460.902235 
L 859.358267 522.936027 
L 872.502585 438.710455 
L 885.646903 506.408538 
L 898.791222 474.078388 
L 911.93554 464.447481 
L 925.079858 525.074085 
L 938.224176 476.596803 
L 951.368494 460.81723 
" clip-path="url(#p9c66c74598)" style="fill: none; stroke: #1f77b4; stroke-width: 1.5; stroke-linecap: square"/>
    <g clip-path="url(#p9c66c74598)">
     <use xlink:href="#m25e45ccb91" x="110.132131" y="513.540616" style="fill: #1f77b4; stroke: #1f77b4"/>
     <use xlink:href="#m25e45ccb91" x="123.276449" y="523.631569" style="fill: #1f77b4; stroke: #1f77b4"/>
     <use xlink:href="#m25e45ccb91" x="136.420767" y="562.764252" style="fill: #1f77b4; stroke: #1f77b4"/>
     <use xlink:href="#m25e45ccb91" x="149.565085" y="477.152324" style="fill: #1f77b4; stroke: #1f77b4"/>
     <use xlink:href="#m25e45ccb91" x="162.709403" y="469.091583" style="fill: #1f77b4; stroke: #1f77b4"/>
     <use xlink:href="#m25e45ccb91" x="175.853722" y="479.139232" style="fill: #1f77b4; stroke: #1f77b4"/>
     <use xlink:href="#m25e45ccb91" x="188.99804" y="528.474506" style="fill: #1f77b4; stroke: #1f77b4"/>
     <use xlink:href="#m25e45ccb91" x="202.142358" y="539.121549" style="fill: #1f77b4; stroke: #1f77b4"/>
     <use xlink:href="#m25e45ccb91" x="215.286676" y="567.529155" style="fill: #1f77b4; stroke: #1f77b4"/>
     <use xlink:href="#m25e45ccb91" x="228.430994" y="533.448559" style="fill: #1f77b4; stroke: #1f77b4"/>
     <use xlink:href="#m25e45ccb91" x="241.575312" y="561.655703" style="fill: #1f77b4; stroke: #1f77b4"/>
     <use xlink:href="#m25e45ccb91" x="254.719631" y="518.623737" style="fill: #1f77b4; stroke: #1f77b4"/>
     <use xlink:href="#m25e45ccb91" x="267.863949" y="463.782194" style="fill: #1f77b4; stroke: #1f77b4"/>
     <use xlink:href="#m25e45ccb91" x="281.008267" y="527.409585" style="fill: #1f77b4; stroke: #1f77b4"/>
     <use xlink:href="#m25e45ccb91" x="294.152585" y="500.203499" style="fill: #1f77b4; stroke: #1f77b4"/>
     <use xlink:href="#m25e45ccb91" x="307.296903" y="447.552311" style="fill: #1f77b4; stroke: #1f77b4"/>
     <use xlink:href="#m25e45ccb91" x="320.441222" y="489.016112" style="fill: #1f77b4; stroke: #1f77b4"/>
     <use xlink:href="#m25e45ccb91" x="333.58554" y="493.264737" style="fill: #1f77b4; stroke: #1f77b4"/>
     <use xlink:href="#m25e45ccb91" x="346.729858" y="462.608038" style="fill: #1f77b4; stroke: #1f77b4"/>
     <use xlink:href="#m25e45ccb91" x="359.874176" y="449.225362" style="fill: #1f77b4; stroke: #1f77b4"/>
     <use xlink:href="#m25e45ccb91" x="373.018494" y="441.011233" style="fill: #1f77b4; stroke: #1f77b4"/>
     <use xlink:href="#m25e45ccb91" x="386.162813" y="558.486817" style="fill: #1f77b4; stroke: #1f77b4"/>
     <use xlink:href="#m25e45ccb91" x="399.307131" y="462.910028" style="fill: #1f77b4; stroke: #1f77b4"/>
     <use xlink:href="#m25e45ccb91" x="412.451449" y="517.465577" style="fill: #1f77b4; stroke: #1f77b4"/>
     <use xlink:href="#m25e45ccb91" x="425.595767" y="470.38874" style="fill: #1f77b4; stroke: #1f77b4"/>
     <use xlink:href="#m25e45ccb91" x="438.740085" y="451.363676" style="fill: #1f77b4; stroke: #1f77b4"/>
     <use xlink:href="#m25e45ccb91" x="451.884403" y="483.601056" style="fill: #1f77b4; stroke: #1f77b4"/>
     <use xlink:href="#m25e45ccb91" x="465.028722" y="476.337127" style="fill: #1f77b4; stroke: #1f77b4"/>
     <use xlink:href="#m25e45ccb91" x="478.17304" y="548.508612" style="fill: #1f77b4; stroke: #1f77b4"/>
     <use xlink:href="#m25e45ccb91" x="491.317358" y="452.430478" style="fill: #1f77b4; stroke: #1f77b4"/>
     <use xlink:href="#m25e45ccb91" x="504.461676" y="451.545027" style="fill: #1f77b4; stroke: #1f77b4"/>
     <use xlink:href="#m25e45ccb91" x="517.605994" y="449.566287" style="fill: #1f77b4; stroke: #1f77b4"/>
     <use xlink:href="#m25e45ccb91" x="530.750312" y="446.285026" style="fill: #1f77b4; stroke: #1f77b4"/>
     <use xlink:href="#m25e45ccb91" x="543.894631" y="462.68439" style="fill: #1f77b4; stroke: #1f77b4"/>
     <use xlink:href="#m25e45ccb91" x="557.038949" y="505.696088" style="fill: #1f77b4; stroke: #1f77b4"/>
     <use xlink:href="#m25e45ccb91" x="570.183267" y="540.286455" style="fill: #1f77b4; stroke: #1f77b4"/>
     <use xlink:href="#m25e45ccb91" x="583.327585" y="494.067165" style="fill: #1f77b4; stroke: #1f77b4"/>
     <use xlink:href="#m25e45ccb91" x="596.471903" y="466.200167" style="fill: #1f77b4; stroke: #1f77b4"/>
     <use xlink:href="#m25e45ccb91" x="609.616222" y="458.95425" style="fill: #1f77b4; stroke: #1f77b4"/>
     <use xlink:href="#m25e45ccb91" x="622.76054" y="460.412439" style="fill: #1f77b4; stroke: #1f77b4"/>
     <use xlink:href="#m25e45ccb91" x="635.904858" y="468.530258" style="fill: #1f77b4; stroke: #1f77b4"/>
     <use xlink:href="#m25e45ccb91" x="649.049176" y="466.377736" style="fill: #1f77b4; stroke: #1f77b4"/>
     <use xlink:href="#m25e45ccb91" x="662.193494" y="447.693892" style="fill: #1f77b4; stroke: #1f77b4"/>
     <use xlink:href="#m25e45ccb91" x="675.337813" y="449.651433" style="fill: #1f77b4; stroke: #1f77b4"/>
     <use xlink:href="#m25e45ccb91" x="688.482131" y="469.986325" style="fill: #1f77b4; stroke: #1f77b4"/>
     <use xlink:href="#m25e45ccb91" x="701.626449" y="458.061652" style="fill: #1f77b4; stroke: #1f77b4"/>
     <use xlink:href="#m25e45ccb91" x="714.770767" y="452.018427" style="fill: #1f77b4; stroke: #1f77b4"/>
     <use xlink:href="#m25e45ccb91" x="727.915085" y="467.195785" style="fill: #1f77b4; stroke: #1f77b4"/>
     <use xlink:href="#m25e45ccb91" x="741.059403" y="485.09213" style="fill: #1f77b4; stroke: #1f77b4"/>
     <use xlink:href="#m25e45ccb91" x="754.203722" y="588.819545" style="fill: #1f77b4; stroke: #1f77b4"/>
     <use xlink:href="#m25e45ccb91" x="767.34804" y="440.689674" style="fill: #1f77b4; stroke: #1f77b4"/>
     <use xlink:href="#m25e45ccb91" x="780.492358" y="441.777321" style="fill: #1f77b4; stroke: #1f77b4"/>
     <use xlink:href="#m25e45ccb91" x="793.636676" y="443.698666" style="fill: #1f77b4; stroke: #1f77b4"/>
     <use xlink:href="#m25e45ccb91" x="806.780994" y="448.920776" style="fill: #1f77b4; stroke: #1f77b4"/>
     <use xlink:href="#m25e45ccb91" x="819.925313" y="494.672385" style="fill: #1f77b4; stroke: #1f77b4"/>
     <use xlink:href="#m25e45ccb91" x="833.069631" y="450.622453" style="fill: #1f77b4; stroke: #1f77b4"/>
     <use xlink:href="#m25e45ccb91" x="846.213949" y="460.902235" style="fill: #1f77b4; stroke: #1f77b4"/>
     <use xlink:href="#m25e45ccb91" x="859.358267" y="522.936027" style="fill: #1f77b4; stroke: #1f77b4"/>
     <use xlink:href="#m25e45ccb91" x="872.502585" y="438.710455" style="fill: #1f77b4; stroke: #1f77b4"/>
     <use xlink:href="#m25e45ccb91" x="885.646903" y="506.408538" style="fill: #1f77b4; stroke: #1f77b4"/>
     <use xlink:href="#m25e45ccb91" x="898.791222" y="474.078388" style="fill: #1f77b4; stroke: #1f77b4"/>
     <use xlink:href="#m25e45ccb91" x="911.93554" y="464.447481" style="fill: #1f77b4; stroke: #1f77b4"/>
     <use xlink:href="#m25e45ccb91" x="925.079858" y="525.074085" style="fill: #1f77b4; stroke: #1f77b4"/>
     <use xlink:href="#m25e45ccb91" x="938.224176" y="476.596803" style="fill: #1f77b4; stroke: #1f77b4"/>
     <use xlink:href="#m25e45ccb91" x="951.368494" y="460.81723" style="fill: #1f77b4; stroke: #1f77b4"/>
    </g>
   </g>
   <g id="patch_13">
    <path d="M 68.070312 596.325 
L 68.070312 431.205 
" style="fill: none; stroke: #000000; stroke-width: 0.8; stroke-linejoin: miter; stroke-linecap: square"/>
   </g>
   <g id="patch_14">
    <path d="M 993.430313 596.325 
L 993.430313 431.205 
" style="fill: none; stroke: #000000; stroke-width: 0.8; stroke-linejoin: miter; stroke-linecap: square"/>
   </g>
   <g id="patch_15">
    <path d="M 68.070312 596.325 
L 993.430313 596.325 
" style="fill: none; stroke: #000000; stroke-width: 0.8; stroke-linejoin: miter; stroke-linecap: square"/>
   </g>
   <g id="patch_16">
    <path d="M 68.070312 431.205 
L 993.430313 431.205 
" style="fill: none; stroke: #000000; stroke-width: 0.8; stroke-linejoin: miter; stroke-linecap: square"/>
   </g>
  </g>
  <g id="text_29">
   <!-- Auswertung über Runden - Maze 21 -->
   <g transform="translate(356.936563 19.3575) scale(0.16 -0.16)">
    <defs>
     <path id="DejaVuSans-73" d="M 2834 3397 
L 2834 2853 
Q 2591 2978 2328 3040 
Q 2066 3103 1784 3103 
Q 1356 3103 1142 2972 
Q 928 2841 928 2578 
Q 928 2378 1081 2264 
Q 1234 2150 1697 2047 
L 1894 2003 
Q 2506 1872 2764 1633 
Q 3022 1394 3022 966 
Q 3022 478 2636 193 
Q 2250 -91 1575 -91 
Q 1294 -91 989 -36 
Q 684 19 347 128 
L 347 722 
Q 666 556 975 473 
Q 1284 391 1588 391 
Q 1994 391 2212 530 
Q 2431 669 2431 922 
Q 2431 1156 2273 1281 
Q 2116 1406 1581 1522 
L 1381 1569 
Q 847 1681 609 1914 
Q 372 2147 372 2553 
Q 372 3047 722 3315 
Q 1072 3584 1716 3584 
Q 2034 3584 2315 3537 
Q 2597 3491 2834 3397 
z
" transform="scale(0.015625)"/>
     <path id="DejaVuSans-7a" d="M 353 3500 
L 3084 3500 
L 3084 2975 
L 922 459 
L 3084 459 
L 3084 0 
L 275 0 
L 275 525 
L 2438 3041 
L 353 3041 
L 353 3500 
z
" transform="scale(0.015625)"/>
    </defs>
    <use xlink:href="#DejaVuSans-41"/>
    <use xlink:href="#DejaVuSans-75" x="68.408203"/>
    <use xlink:href="#DejaVuSans-73" x="131.787109"/>
    <use xlink:href="#DejaVuSans-77" x="183.886719"/>
    <use xlink:href="#DejaVuSans-65" x="265.673828"/>
    <use xlink:href="#DejaVuSans-72" x="327.197266"/>
    <use xlink:href="#DejaVuSans-74" x="368.310547"/>
    <use xlink:href="#DejaVuSans-75" x="407.519531"/>
    <use xlink:href="#DejaVuSans-6e" x="470.898438"/>
    <use xlink:href="#DejaVuSans-67" x="534.277344"/>
    <use xlink:href="#DejaVuSans-20" x="597.753906"/>
    <use xlink:href="#DejaVuSans-fc" x="629.541016"/>
    <use xlink:href="#DejaVuSans-62" x="692.919922"/>
    <use xlink:href="#DejaVuSans-65" x="756.396484"/>
    <use xlink:href="#DejaVuSans-72" x="817.919922"/>
    <use xlink:href="#DejaVuSans-20" x="859.033203"/>
    <use xlink:href="#DejaVuSans-52" x="890.820312"/>
    <use xlink:href="#DejaVuSans-75" x="955.802734"/>
    <use xlink:href="#DejaVuSans-6e" x="1019.181641"/>
    <use xlink:href="#DejaVuSans-64" x="1082.560547"/>
    <use xlink:href="#DejaVuSans-65" x="1146.037109"/>
    <use xlink:href="#DejaVuSans-6e" x="1207.560547"/>
    <use xlink:href="#DejaVuSans-20" x="1270.939453"/>
    <use xlink:href="#DejaVuSans-2d" x="1302.726562"/>
    <use xlink:href="#DejaVuSans-20" x="1338.810547"/>
    <use xlink:href="#DejaVuSans-4d" x="1370.597656"/>
    <use xlink:href="#DejaVuSans-61" x="1456.876953"/>
    <use xlink:href="#DejaVuSans-7a" x="1518.15625"/>
    <use xlink:href="#DejaVuSans-65" x="1570.646484"/>
    <use xlink:href="#DejaVuSans-20" x="1632.169922"/>
    <use xlink:href="#DejaVuSans-32" x="1663.957031"/>
    <use xlink:href="#DejaVuSans-31" x="1727.580078"/>
   </g>
  </g>
  <g id="text_30">
   <!-- M5_R4_O7_A2_20250402-090812_mit5x5.csv -->
   <g transform="translate(363.244688 51.243125) scale(0.12 -0.12)">
    <defs>
     <path id="DejaVuSans-Oblique-4d" d="M 1081 4666 
L 2028 4666 
L 2572 1522 
L 4378 4666 
L 5350 4666 
L 4441 0 
L 3828 0 
L 4622 4091 
L 2791 897 
L 2175 897 
L 1581 4103 
L 788 0 
L 172 0 
L 1081 4666 
z
" transform="scale(0.015625)"/>
     <path id="DejaVuSans-Oblique-35" d="M 3719 4666 
L 3622 4141 
L 1691 4141 
L 1466 2988 
Q 1609 3034 1757 3056 
Q 1906 3078 2059 3078 
Q 2706 3078 3081 2731 
Q 3456 2384 3456 1791 
Q 3456 1375 3264 994 
Q 3072 613 2719 325 
Q 2469 125 2108 17 
Q 1747 -91 1319 -91 
Q 1038 -91 744 -41 
Q 450 9 128 109 
L 244 697 
Q 531 556 820 486 
Q 1109 416 1403 416 
Q 2013 416 2411 781 
Q 2809 1147 2809 1697 
Q 2809 2103 2548 2328 
Q 2288 2553 1819 2553 
Q 1572 2553 1305 2495 
Q 1038 2438 756 2322 
L 1209 4666 
L 3719 4666 
z
" transform="scale(0.015625)"/>
     <path id="DejaVuSans-Oblique-5f" d="M 3263 -1063 
L 3263 -1509 
L -63 -1509 
L -63 -1063 
L 3263 -1063 
z
" transform="scale(0.015625)"/>
     <path id="DejaVuSans-Oblique-52" d="M 1613 4147 
L 1294 2491 
L 2106 2491 
Q 2584 2491 2879 2755 
Q 3175 3019 3175 3444 
Q 3175 3784 2976 3965 
Q 2778 4147 2406 4147 
L 1613 4147 
z
M 2772 2241 
Q 2972 2194 3105 2009 
Q 3238 1825 3413 1275 
L 3809 0 
L 3144 0 
L 2778 1197 
Q 2638 1659 2453 1815 
Q 2269 1972 1888 1972 
L 1191 1972 
L 806 0 
L 172 0 
L 1081 4666 
L 2503 4666 
Q 3150 4666 3495 4373 
Q 3841 4081 3841 3531 
Q 3841 3044 3547 2687 
Q 3253 2331 2772 2241 
z
" transform="scale(0.015625)"/>
     <path id="DejaVuSans-Oblique-34" d="M 2753 4666 
L 3547 4666 
L 2950 1625 
L 3616 1625 
L 3513 1100 
L 2847 1100 
L 2638 0 
L 2009 0 
L 2222 1100 
L 116 1100 
L 238 1709 
L 2753 4666 
z
M 2809 4116 
L 728 1625 
L 2322 1625 
L 2809 4116 
z
" transform="scale(0.015625)"/>
     <path id="DejaVuSans-Oblique-4f" d="M 2919 4238 
Q 2400 4238 2003 3986 
Q 1606 3734 1313 3219 
Q 1125 2891 1026 2522 
Q 928 2153 928 1778 
Q 928 1128 1239 775 
Q 1550 422 2119 422 
Q 2631 422 3032 676 
Q 3434 931 3719 1434 
Q 3909 1772 4009 2142 
Q 4109 2513 4109 2881 
Q 4109 3528 3796 3883 
Q 3484 4238 2919 4238 
z
M 2100 -91 
Q 1241 -91 748 418 
Q 256 928 256 1813 
Q 256 2319 448 2847 
Q 641 3375 978 3788 
Q 1375 4272 1862 4511 
Q 2350 4750 2938 4750 
Q 3794 4750 4287 4245 
Q 4781 3741 4781 2869 
Q 4781 2331 4593 1812 
Q 4406 1294 4056 872 
Q 3656 384 3173 146 
Q 2691 -91 2100 -91 
z
" transform="scale(0.015625)"/>
     <path id="DejaVuSans-Oblique-37" d="M 819 4666 
L 4013 4666 
L 3956 4397 
L 1288 0 
L 594 0 
L 3116 4134 
L 716 4134 
L 819 4666 
z
" transform="scale(0.015625)"/>
     <path id="DejaVuSans-Oblique-41" d="M 2356 4666 
L 3072 4666 
L 3938 0 
L 3278 0 
L 3084 1197 
L 984 1197 
L 325 0 
L -341 0 
L 2356 4666 
z
M 2584 4044 
L 1275 1722 
L 2988 1722 
L 2584 4044 
z
" transform="scale(0.015625)"/>
     <path id="DejaVuSans-Oblique-32" d="M 2950 2253 
L 934 525 
L 3163 525 
L 3053 0 
L 25 0 
L 128 531 
L 2234 2338 
Q 2656 2703 2832 2979 
Q 3009 3256 3009 3547 
Q 3009 3850 2796 4040 
Q 2584 4231 2241 4231 
Q 1944 4231 1581 4125 
Q 1219 4019 806 3816 
L 922 4441 
Q 1309 4594 1662 4672 
Q 2016 4750 2316 4750 
Q 2928 4750 3301 4425 
Q 3675 4100 3675 3572 
Q 3675 3216 3497 2892 
Q 3319 2569 2950 2253 
z
" transform="scale(0.015625)"/>
     <path id="DejaVuSans-Oblique-30" d="M 2444 4750 
Q 3078 4750 3414 4328 
Q 3750 3906 3750 3116 
Q 3750 2516 3592 1923 
Q 3434 1331 3150 863 
Q 2859 394 2467 151 
Q 2075 -91 1600 -91 
Q 988 -91 653 334 
Q 319 759 319 1544 
Q 319 2138 480 2733 
Q 641 3328 928 3794 
Q 1216 4263 1602 4506 
Q 1988 4750 2444 4750 
z
M 2406 4250 
Q 2169 4250 1955 4123 
Q 1741 3997 1569 3750 
Q 1281 3338 1111 2720 
Q 941 2103 941 1453 
Q 941 938 1123 673 
Q 1306 409 1663 409 
Q 1913 409 2125 536 
Q 2338 663 2509 909 
Q 2794 1319 2961 1936 
Q 3128 2553 3128 3206 
Q 3128 3722 2945 3986 
Q 2763 4250 2406 4250 
z
" transform="scale(0.015625)"/>
     <path id="DejaVuSans-Oblique-2d" d="M 391 2009 
L 2075 2009 
L 1978 1497 
L 288 1497 
L 391 2009 
z
" transform="scale(0.015625)"/>
     <path id="DejaVuSans-Oblique-39" d="M 281 103 
L 397 678 
Q 578 559 809 496 
Q 1041 434 1306 434 
Q 1953 434 2348 843 
Q 2744 1253 2938 2119 
Q 2706 1853 2401 1714 
Q 2097 1575 1747 1575 
Q 1178 1575 842 1904 
Q 506 2234 506 2791 
Q 506 3247 672 3639 
Q 838 4031 1159 4325 
Q 1378 4531 1665 4640 
Q 1953 4750 2278 4750 
Q 2925 4750 3300 4339 
Q 3675 3928 3675 3219 
Q 3675 2559 3501 1943 
Q 3328 1328 3022 878 
Q 2697 403 2240 156 
Q 1784 -91 1228 -91 
Q 988 -91 748 -42 
Q 509 6 281 103 
z
M 1131 2938 
Q 1131 2541 1337 2308 
Q 1544 2075 1894 2075 
Q 2378 2075 2706 2447 
Q 3034 2819 3034 3372 
Q 3034 3784 2831 4017 
Q 2628 4250 2272 4250 
Q 1788 4250 1459 3870 
Q 1131 3491 1131 2938 
z
" transform="scale(0.015625)"/>
     <path id="DejaVuSans-Oblique-38" d="M 2847 1416 
Q 2847 1769 2600 1992 
Q 2353 2216 1953 2216 
Q 1466 2216 1148 1923 
Q 831 1631 831 1184 
Q 831 828 1073 618 
Q 1316 409 1728 409 
Q 2219 409 2533 693 
Q 2847 978 2847 1416 
z
M 3169 3591 
Q 3169 3888 2950 4069 
Q 2731 4250 2369 4250 
Q 1941 4250 1664 4009 
Q 1388 3769 1388 3406 
Q 1388 3094 1605 2903 
Q 1822 2713 2181 2713 
Q 2613 2713 2891 2961 
Q 3169 3209 3169 3591 
z
M 2741 2456 
Q 3094 2322 3281 2050 
Q 3469 1778 3469 1394 
Q 3469 747 2969 328 
Q 2469 -91 1678 -91 
Q 1006 -91 609 239 
Q 213 569 213 1119 
Q 213 1619 553 2008 
Q 894 2397 1441 2503 
Q 1113 2616 941 2852 
Q 769 3088 769 3425 
Q 769 3991 1239 4370 
Q 1709 4750 2431 4750 
Q 3034 4750 3414 4442 
Q 3794 4134 3794 3659 
Q 3794 3247 3511 2923 
Q 3228 2600 2741 2456 
z
" transform="scale(0.015625)"/>
     <path id="DejaVuSans-Oblique-31" d="M 416 531 
L 1447 531 
L 2144 4122 
L 978 3897 
L 1088 4441 
L 2247 4666 
L 2881 4666 
L 2075 531 
L 3103 531 
L 3003 0 
L 313 0 
L 416 531 
z
" transform="scale(0.015625)"/>
     <path id="DejaVuSans-Oblique-6d" d="M 5747 2113 
L 5338 0 
L 4763 0 
L 5166 2094 
Q 5191 2228 5203 2325 
Q 5216 2422 5216 2491 
Q 5216 2772 5059 2928 
Q 4903 3084 4622 3084 
Q 4203 3084 3875 2770 
Q 3547 2456 3450 1953 
L 3066 0 
L 2491 0 
L 2900 2094 
Q 2925 2209 2937 2307 
Q 2950 2406 2950 2484 
Q 2950 2769 2794 2926 
Q 2638 3084 2363 3084 
Q 1938 3084 1609 2770 
Q 1281 2456 1184 1953 
L 800 0 
L 225 0 
L 909 3500 
L 1484 3500 
L 1375 2956 
Q 1609 3263 1923 3423 
Q 2238 3584 2597 3584 
Q 2978 3584 3223 3384 
Q 3469 3184 3519 2828 
Q 3781 3197 4126 3390 
Q 4472 3584 4856 3584 
Q 5306 3584 5551 3325 
Q 5797 3066 5797 2591 
Q 5797 2488 5784 2364 
Q 5772 2241 5747 2113 
z
" transform="scale(0.015625)"/>
     <path id="DejaVuSans-Oblique-69" d="M 1172 4863 
L 1747 4863 
L 1606 4134 
L 1031 4134 
L 1172 4863 
z
M 909 3500 
L 1484 3500 
L 800 0 
L 225 0 
L 909 3500 
z
" transform="scale(0.015625)"/>
     <path id="DejaVuSans-Oblique-74" d="M 2706 3500 
L 2619 3053 
L 1472 3053 
L 1100 1153 
Q 1081 1047 1072 975 
Q 1063 903 1063 863 
Q 1063 663 1183 572 
Q 1303 481 1569 481 
L 2150 481 
L 2053 0 
L 1503 0 
Q 991 0 739 200 
Q 488 400 488 806 
Q 488 878 497 964 
Q 506 1050 525 1153 
L 897 3053 
L 409 3053 
L 500 3500 
L 978 3500 
L 1172 4494 
L 1747 4494 
L 1556 3500 
L 2706 3500 
z
" transform="scale(0.015625)"/>
     <path id="DejaVuSans-Oblique-78" d="M 3841 3500 
L 2234 1784 
L 3219 0 
L 2559 0 
L 1819 1388 
L 531 0 
L -166 0 
L 1556 1844 
L 641 3500 
L 1300 3500 
L 1972 2234 
L 3144 3500 
L 3841 3500 
z
" transform="scale(0.015625)"/>
     <path id="DejaVuSans-Oblique-2e" d="M 525 794 
L 1184 794 
L 1031 0 
L 372 0 
L 525 794 
z
" transform="scale(0.015625)"/>
     <path id="DejaVuSans-Oblique-63" d="M 3431 3366 
L 3316 2797 
Q 3109 2947 2876 3022 
Q 2644 3097 2394 3097 
Q 2119 3097 1870 3000 
Q 1622 2903 1453 2725 
Q 1184 2453 1037 2087 
Q 891 1722 891 1331 
Q 891 859 1127 628 
Q 1363 397 1844 397 
Q 2081 397 2348 469 
Q 2616 541 2906 684 
L 2797 116 
Q 2547 13 2283 -39 
Q 2019 -91 1741 -91 
Q 1044 -91 669 257 
Q 294 606 294 1253 
Q 294 1797 489 2255 
Q 684 2713 1069 3078 
Q 1331 3328 1684 3456 
Q 2038 3584 2456 3584 
Q 2700 3584 2940 3529 
Q 3181 3475 3431 3366 
z
" transform="scale(0.015625)"/>
     <path id="DejaVuSans-Oblique-73" d="M 3200 3397 
L 3091 2853 
Q 2863 2978 2609 3040 
Q 2356 3103 2088 3103 
Q 1634 3103 1373 2948 
Q 1113 2794 1113 2528 
Q 1113 2219 1719 2053 
Q 1766 2041 1788 2034 
L 1972 1978 
Q 2547 1819 2739 1644 
Q 2931 1469 2931 1166 
Q 2931 609 2489 259 
Q 2047 -91 1331 -91 
Q 1053 -91 747 -37 
Q 441 16 72 128 
L 184 722 
Q 500 559 806 475 
Q 1113 391 1394 391 
Q 1816 391 2080 572 
Q 2344 753 2344 1031 
Q 2344 1331 1650 1516 
L 1591 1531 
L 1394 1581 
Q 956 1697 753 1886 
Q 550 2075 550 2369 
Q 550 2928 970 3256 
Q 1391 3584 2113 3584 
Q 2397 3584 2667 3537 
Q 2938 3491 3200 3397 
z
" transform="scale(0.015625)"/>
     <path id="DejaVuSans-Oblique-76" d="M 459 3500 
L 1069 3500 
L 1581 525 
L 3256 3500 
L 3866 3500 
L 1875 0 
L 1100 0 
L 459 3500 
z
" transform="scale(0.015625)"/>
    </defs>
    <use xlink:href="#DejaVuSans-Oblique-4d"/>
    <use xlink:href="#DejaVuSans-Oblique-35" x="86.279297"/>
    <use xlink:href="#DejaVuSans-Oblique-5f" x="149.902344"/>
    <use xlink:href="#DejaVuSans-Oblique-52" x="199.902344"/>
    <use xlink:href="#DejaVuSans-Oblique-34" x="269.384766"/>
    <use xlink:href="#DejaVuSans-Oblique-5f" x="333.007812"/>
    <use xlink:href="#DejaVuSans-Oblique-4f" x="383.007812"/>
    <use xlink:href="#DejaVuSans-Oblique-37" x="461.71875"/>
    <use xlink:href="#DejaVuSans-Oblique-5f" x="525.341797"/>
    <use xlink:href="#DejaVuSans-Oblique-41" x="575.341797"/>
    <use xlink:href="#DejaVuSans-Oblique-32" x="643.75"/>
    <use xlink:href="#DejaVuSans-Oblique-5f" x="707.373047"/>
    <use xlink:href="#DejaVuSans-Oblique-32" x="757.373047"/>
    <use xlink:href="#DejaVuSans-Oblique-30" x="820.996094"/>
    <use xlink:href="#DejaVuSans-Oblique-32" x="884.619141"/>
    <use xlink:href="#DejaVuSans-Oblique-35" x="948.242188"/>
    <use xlink:href="#DejaVuSans-Oblique-30" x="1011.865234"/>
    <use xlink:href="#DejaVuSans-Oblique-34" x="1075.488281"/>
    <use xlink:href="#DejaVuSans-Oblique-30" x="1139.111328"/>
    <use xlink:href="#DejaVuSans-Oblique-32" x="1202.734375"/>
    <use xlink:href="#DejaVuSans-Oblique-2d" x="1266.357422"/>
    <use xlink:href="#DejaVuSans-Oblique-30" x="1302.441406"/>
    <use xlink:href="#DejaVuSans-Oblique-39" x="1366.064453"/>
    <use xlink:href="#DejaVuSans-Oblique-30" x="1429.6875"/>
    <use xlink:href="#DejaVuSans-Oblique-38" x="1493.310547"/>
    <use xlink:href="#DejaVuSans-Oblique-31" x="1556.933594"/>
    <use xlink:href="#DejaVuSans-Oblique-32" x="1620.556641"/>
    <use xlink:href="#DejaVuSans-Oblique-5f" x="1684.179688"/>
    <use xlink:href="#DejaVuSans-Oblique-6d" x="1734.179688"/>
    <use xlink:href="#DejaVuSans-Oblique-69" x="1831.591797"/>
    <use xlink:href="#DejaVuSans-Oblique-74" x="1859.375"/>
    <use xlink:href="#DejaVuSans-Oblique-35" x="1898.583984"/>
    <use xlink:href="#DejaVuSans-Oblique-78" x="1962.207031"/>
    <use xlink:href="#DejaVuSans-Oblique-35" x="2021.386719"/>
    <use xlink:href="#DejaVuSans-Oblique-2e" x="2085.009766"/>
    <use xlink:href="#DejaVuSans-Oblique-63" x="2116.796875"/>
    <use xlink:href="#DejaVuSans-Oblique-73" x="2171.777344"/>
    <use xlink:href="#DejaVuSans-Oblique-76" x="2223.876953"/>
   </g>
  </g>
 </g>
 <defs>
  <clipPath id="p7ea27853ac">
   <rect x="68.070312" y="72.365" width="925.36" height="165.12"/>
  </clipPath>
  <clipPath id="p34b3d4e6a7">
   <rect x="68.070312" y="251.785" width="925.36" height="165.12"/>
  </clipPath>
  <clipPath id="p9c66c74598">
   <rect x="68.070312" y="431.205" width="925.36" height="165.12"/>
  </clipPath>
 </defs>
</svg>
