<?xml version="1.0" encoding="utf-8" standalone="no"?>
<!DOCTYPE svg PUBLIC "-//W3C//DTD SVG 1.1//EN"
  "http://www.w3.org/Graphics/SVG/1.1/DTD/svg11.dtd">
<svg xmlns:xlink="http://www.w3.org/1999/xlink" width="1000.630312pt" height="839.08125pt" viewBox="0 0 1000.630312 839.08125" xmlns="http://www.w3.org/2000/svg" version="1.1">
 <metadata>
  <rdf:RDF xmlns:dc="http://purl.org/dc/elements/1.1/" xmlns:cc="http://creativecommons.org/ns#" xmlns:rdf="http://www.w3.org/1999/02/22-rdf-syntax-ns#">
   <cc:Work>
    <dc:type rdf:resource="http://purl.org/dc/dcmitype/StillImage"/>
    <dc:date>2025-04-24T15:51:58.122077</dc:date>
    <dc:format>image/svg+xml</dc:format>
    <dc:creator>
     <cc:Agent>
      <dc:title>Matplotlib v3.9.3, https://matplotlib.org/</dc:title>
     </cc:Agent>
    </dc:creator>
   </cc:Work>
  </rdf:RDF>
 </metadata>
 <defs>
  <style type="text/css">*{stroke-linejoin: round; stroke-linecap: butt}</style>
 </defs>
 <g id="figure_1">
  <g id="patch_1">
   <path d="M 0 839.08125 
L 1000.630312 839.08125 
L 1000.630312 0 
L 0 0 
z
" style="fill: #ffffff"/>
  </g>
  <g id="axes_1">
   <g id="patch_2">
    <path d="M 68.070312 256.171779 
L 993.430313 256.171779 
L 993.430313 88.687372 
L 68.070312 88.687372 
z
" style="fill: #ffffff"/>
   </g>
   <g id="matplotlib.axis_1">
    <g id="xtick_1">
     <g id="line2d_1">
      <path d="M 104.036215 256.171779 
L 104.036215 88.687372 
" clip-path="url(#pe363ff0dca)" style="fill: none; stroke: #b0b0b0; stroke-width: 0.8; stroke-linecap: square"/>
     </g>
     <g id="line2d_2">
      <defs>
       <path id="mf49f4245f4" d="M 0 0 
L 0 3.5 
" style="stroke: #000000; stroke-width: 0.8"/>
      </defs>
      <g>
       <use xlink:href="#mf49f4245f4" x="104.036215" y="256.171779" style="stroke: #000000; stroke-width: 0.8"/>
      </g>
     </g>
    </g>
    <g id="xtick_2">
     <g id="line2d_3">
      <path d="M 225.954529 256.171779 
L 225.954529 88.687372 
" clip-path="url(#pe363ff0dca)" style="fill: none; stroke: #b0b0b0; stroke-width: 0.8; stroke-linecap: square"/>
     </g>
     <g id="line2d_4">
      <g>
       <use xlink:href="#mf49f4245f4" x="225.954529" y="256.171779" style="stroke: #000000; stroke-width: 0.8"/>
      </g>
     </g>
    </g>
    <g id="xtick_3">
     <g id="line2d_5">
      <path d="M 347.872842 256.171779 
L 347.872842 88.687372 
" clip-path="url(#pe363ff0dca)" style="fill: none; stroke: #b0b0b0; stroke-width: 0.8; stroke-linecap: square"/>
     </g>
     <g id="line2d_6">
      <g>
       <use xlink:href="#mf49f4245f4" x="347.872842" y="256.171779" style="stroke: #000000; stroke-width: 0.8"/>
      </g>
     </g>
    </g>
    <g id="xtick_4">
     <g id="line2d_7">
      <path d="M 469.791156 256.171779 
L 469.791156 88.687372 
" clip-path="url(#pe363ff0dca)" style="fill: none; stroke: #b0b0b0; stroke-width: 0.8; stroke-linecap: square"/>
     </g>
     <g id="line2d_8">
      <g>
       <use xlink:href="#mf49f4245f4" x="469.791156" y="256.171779" style="stroke: #000000; stroke-width: 0.8"/>
      </g>
     </g>
    </g>
    <g id="xtick_5">
     <g id="line2d_9">
      <path d="M 591.709469 256.171779 
L 591.709469 88.687372 
" clip-path="url(#pe363ff0dca)" style="fill: none; stroke: #b0b0b0; stroke-width: 0.8; stroke-linecap: square"/>
     </g>
     <g id="line2d_10">
      <g>
       <use xlink:href="#mf49f4245f4" x="591.709469" y="256.171779" style="stroke: #000000; stroke-width: 0.8"/>
      </g>
     </g>
    </g>
    <g id="xtick_6">
     <g id="line2d_11">
      <path d="M 713.627783 256.171779 
L 713.627783 88.687372 
" clip-path="url(#pe363ff0dca)" style="fill: none; stroke: #b0b0b0; stroke-width: 0.8; stroke-linecap: square"/>
     </g>
     <g id="line2d_12">
      <g>
       <use xlink:href="#mf49f4245f4" x="713.627783" y="256.171779" style="stroke: #000000; stroke-width: 0.8"/>
      </g>
     </g>
    </g>
    <g id="xtick_7">
     <g id="line2d_13">
      <path d="M 835.546096 256.171779 
L 835.546096 88.687372 
" clip-path="url(#pe363ff0dca)" style="fill: none; stroke: #b0b0b0; stroke-width: 0.8; stroke-linecap: square"/>
     </g>
     <g id="line2d_14">
      <g>
       <use xlink:href="#mf49f4245f4" x="835.546096" y="256.171779" style="stroke: #000000; stroke-width: 0.8"/>
      </g>
     </g>
    </g>
    <g id="xtick_8">
     <g id="line2d_15">
      <path d="M 957.46441 256.171779 
L 957.46441 88.687372 
" clip-path="url(#pe363ff0dca)" style="fill: none; stroke: #b0b0b0; stroke-width: 0.8; stroke-linecap: square"/>
     </g>
     <g id="line2d_16">
      <g>
       <use xlink:href="#mf49f4245f4" x="957.46441" y="256.171779" style="stroke: #000000; stroke-width: 0.8"/>
      </g>
     </g>
    </g>
   </g>
   <g id="matplotlib.axis_2">
    <g id="ytick_1">
     <g id="line2d_17">
      <path d="M 68.070312 227.796321 
L 993.430313 227.796321 
" clip-path="url(#pe363ff0dca)" style="fill: none; stroke: #b0b0b0; stroke-width: 0.8; stroke-linecap: square"/>
     </g>
     <g id="line2d_18">
      <defs>
       <path id="mecc313d9e0" d="M 0 0 
L -3.5 0 
" style="stroke: #000000; stroke-width: 0.8"/>
      </defs>
      <g>
       <use xlink:href="#mecc313d9e0" x="68.070312" y="227.796321" style="stroke: #000000; stroke-width: 0.8"/>
      </g>
     </g>
     <g id="text_1">
      <!-- 0.10 -->
      <g transform="translate(38.804688 231.59554) scale(0.1 -0.1)">
       <defs>
        <path id="DejaVuSans-30" d="M 2034 4250 
Q 1547 4250 1301 3770 
Q 1056 3291 1056 2328 
Q 1056 1369 1301 889 
Q 1547 409 2034 409 
Q 2525 409 2770 889 
Q 3016 1369 3016 2328 
Q 3016 3291 2770 3770 
Q 2525 4250 2034 4250 
z
M 2034 4750 
Q 2819 4750 3233 4129 
Q 3647 3509 3647 2328 
Q 3647 1150 3233 529 
Q 2819 -91 2034 -91 
Q 1250 -91 836 529 
Q 422 1150 422 2328 
Q 422 3509 836 4129 
Q 1250 4750 2034 4750 
z
" transform="scale(0.015625)"/>
        <path id="DejaVuSans-2e" d="M 684 794 
L 1344 794 
L 1344 0 
L 684 0 
L 684 794 
z
" transform="scale(0.015625)"/>
        <path id="DejaVuSans-31" d="M 794 531 
L 1825 531 
L 1825 4091 
L 703 3866 
L 703 4441 
L 1819 4666 
L 2450 4666 
L 2450 531 
L 3481 531 
L 3481 0 
L 794 0 
L 794 531 
z
" transform="scale(0.015625)"/>
       </defs>
       <use xlink:href="#DejaVuSans-30"/>
       <use xlink:href="#DejaVuSans-2e" x="63.623047"/>
       <use xlink:href="#DejaVuSans-31" x="95.410156"/>
       <use xlink:href="#DejaVuSans-30" x="159.033203"/>
      </g>
     </g>
    </g>
    <g id="ytick_2">
     <g id="line2d_19">
      <path d="M 68.070312 193.192105 
L 993.430313 193.192105 
" clip-path="url(#pe363ff0dca)" style="fill: none; stroke: #b0b0b0; stroke-width: 0.8; stroke-linecap: square"/>
     </g>
     <g id="line2d_20">
      <g>
       <use xlink:href="#mecc313d9e0" x="68.070312" y="193.192105" style="stroke: #000000; stroke-width: 0.8"/>
      </g>
     </g>
     <g id="text_2">
      <!-- 0.15 -->
      <g transform="translate(38.804688 196.991324) scale(0.1 -0.1)">
       <defs>
        <path id="DejaVuSans-35" d="M 691 4666 
L 3169 4666 
L 3169 4134 
L 1269 4134 
L 1269 2991 
Q 1406 3038 1543 3061 
Q 1681 3084 1819 3084 
Q 2600 3084 3056 2656 
Q 3513 2228 3513 1497 
Q 3513 744 3044 326 
Q 2575 -91 1722 -91 
Q 1428 -91 1123 -41 
Q 819 9 494 109 
L 494 744 
Q 775 591 1075 516 
Q 1375 441 1709 441 
Q 2250 441 2565 725 
Q 2881 1009 2881 1497 
Q 2881 1984 2565 2268 
Q 2250 2553 1709 2553 
Q 1456 2553 1204 2497 
Q 953 2441 691 2322 
L 691 4666 
z
" transform="scale(0.015625)"/>
       </defs>
       <use xlink:href="#DejaVuSans-30"/>
       <use xlink:href="#DejaVuSans-2e" x="63.623047"/>
       <use xlink:href="#DejaVuSans-31" x="95.410156"/>
       <use xlink:href="#DejaVuSans-35" x="159.033203"/>
      </g>
     </g>
    </g>
    <g id="ytick_3">
     <g id="line2d_21">
      <path d="M 68.070312 158.587889 
L 993.430313 158.587889 
" clip-path="url(#pe363ff0dca)" style="fill: none; stroke: #b0b0b0; stroke-width: 0.8; stroke-linecap: square"/>
     </g>
     <g id="line2d_22">
      <g>
       <use xlink:href="#mecc313d9e0" x="68.070312" y="158.587889" style="stroke: #000000; stroke-width: 0.8"/>
      </g>
     </g>
     <g id="text_3">
      <!-- 0.20 -->
      <g transform="translate(38.804688 162.387107) scale(0.1 -0.1)">
       <defs>
        <path id="DejaVuSans-32" d="M 1228 531 
L 3431 531 
L 3431 0 
L 469 0 
L 469 531 
Q 828 903 1448 1529 
Q 2069 2156 2228 2338 
Q 2531 2678 2651 2914 
Q 2772 3150 2772 3378 
Q 2772 3750 2511 3984 
Q 2250 4219 1831 4219 
Q 1534 4219 1204 4116 
Q 875 4013 500 3803 
L 500 4441 
Q 881 4594 1212 4672 
Q 1544 4750 1819 4750 
Q 2544 4750 2975 4387 
Q 3406 4025 3406 3419 
Q 3406 3131 3298 2873 
Q 3191 2616 2906 2266 
Q 2828 2175 2409 1742 
Q 1991 1309 1228 531 
z
" transform="scale(0.015625)"/>
       </defs>
       <use xlink:href="#DejaVuSans-30"/>
       <use xlink:href="#DejaVuSans-2e" x="63.623047"/>
       <use xlink:href="#DejaVuSans-32" x="95.410156"/>
       <use xlink:href="#DejaVuSans-30" x="159.033203"/>
      </g>
     </g>
    </g>
    <g id="ytick_4">
     <g id="line2d_23">
      <path d="M 68.070312 123.983672 
L 993.430313 123.983672 
" clip-path="url(#pe363ff0dca)" style="fill: none; stroke: #b0b0b0; stroke-width: 0.8; stroke-linecap: square"/>
     </g>
     <g id="line2d_24">
      <g>
       <use xlink:href="#mecc313d9e0" x="68.070312" y="123.983672" style="stroke: #000000; stroke-width: 0.8"/>
      </g>
     </g>
     <g id="text_4">
      <!-- 0.25 -->
      <g transform="translate(38.804688 127.782891) scale(0.1 -0.1)">
       <use xlink:href="#DejaVuSans-30"/>
       <use xlink:href="#DejaVuSans-2e" x="63.623047"/>
       <use xlink:href="#DejaVuSans-32" x="95.410156"/>
       <use xlink:href="#DejaVuSans-35" x="159.033203"/>
      </g>
     </g>
    </g>
    <g id="ytick_5">
     <g id="line2d_25">
      <path d="M 68.070312 89.379456 
L 993.430313 89.379456 
" clip-path="url(#pe363ff0dca)" style="fill: none; stroke: #b0b0b0; stroke-width: 0.8; stroke-linecap: square"/>
     </g>
     <g id="line2d_26">
      <g>
       <use xlink:href="#mecc313d9e0" x="68.070312" y="89.379456" style="stroke: #000000; stroke-width: 0.8"/>
      </g>
     </g>
     <g id="text_5">
      <!-- 0.30 -->
      <g transform="translate(38.804688 93.178675) scale(0.1 -0.1)">
       <defs>
        <path id="DejaVuSans-33" d="M 2597 2516 
Q 3050 2419 3304 2112 
Q 3559 1806 3559 1356 
Q 3559 666 3084 287 
Q 2609 -91 1734 -91 
Q 1441 -91 1130 -33 
Q 819 25 488 141 
L 488 750 
Q 750 597 1062 519 
Q 1375 441 1716 441 
Q 2309 441 2620 675 
Q 2931 909 2931 1356 
Q 2931 1769 2642 2001 
Q 2353 2234 1838 2234 
L 1294 2234 
L 1294 2753 
L 1863 2753 
Q 2328 2753 2575 2939 
Q 2822 3125 2822 3475 
Q 2822 3834 2567 4026 
Q 2313 4219 1838 4219 
Q 1578 4219 1281 4162 
Q 984 4106 628 3988 
L 628 4550 
Q 988 4650 1302 4700 
Q 1616 4750 1894 4750 
Q 2613 4750 3031 4423 
Q 3450 4097 3450 3541 
Q 3450 3153 3228 2886 
Q 3006 2619 2597 2516 
z
" transform="scale(0.015625)"/>
       </defs>
       <use xlink:href="#DejaVuSans-30"/>
       <use xlink:href="#DejaVuSans-2e" x="63.623047"/>
       <use xlink:href="#DejaVuSans-33" x="95.410156"/>
       <use xlink:href="#DejaVuSans-30" x="159.033203"/>
      </g>
     </g>
    </g>
    <g id="text_6">
     <!-- Map-Abgedeckt -->
     <g transform="translate(32.725 211.374106) rotate(-90) scale(0.1 -0.1)">
      <defs>
       <path id="DejaVuSans-4d" d="M 628 4666 
L 1569 4666 
L 2759 1491 
L 3956 4666 
L 4897 4666 
L 4897 0 
L 4281 0 
L 4281 4097 
L 3078 897 
L 2444 897 
L 1241 4097 
L 1241 0 
L 628 0 
L 628 4666 
z
" transform="scale(0.015625)"/>
       <path id="DejaVuSans-61" d="M 2194 1759 
Q 1497 1759 1228 1600 
Q 959 1441 959 1056 
Q 959 750 1161 570 
Q 1363 391 1709 391 
Q 2188 391 2477 730 
Q 2766 1069 2766 1631 
L 2766 1759 
L 2194 1759 
z
M 3341 1997 
L 3341 0 
L 2766 0 
L 2766 531 
Q 2569 213 2275 61 
Q 1981 -91 1556 -91 
Q 1019 -91 701 211 
Q 384 513 384 1019 
Q 384 1609 779 1909 
Q 1175 2209 1959 2209 
L 2766 2209 
L 2766 2266 
Q 2766 2663 2505 2880 
Q 2244 3097 1772 3097 
Q 1472 3097 1187 3025 
Q 903 2953 641 2809 
L 641 3341 
Q 956 3463 1253 3523 
Q 1550 3584 1831 3584 
Q 2591 3584 2966 3190 
Q 3341 2797 3341 1997 
z
" transform="scale(0.015625)"/>
       <path id="DejaVuSans-70" d="M 1159 525 
L 1159 -1331 
L 581 -1331 
L 581 3500 
L 1159 3500 
L 1159 2969 
Q 1341 3281 1617 3432 
Q 1894 3584 2278 3584 
Q 2916 3584 3314 3078 
Q 3713 2572 3713 1747 
Q 3713 922 3314 415 
Q 2916 -91 2278 -91 
Q 1894 -91 1617 61 
Q 1341 213 1159 525 
z
M 3116 1747 
Q 3116 2381 2855 2742 
Q 2594 3103 2138 3103 
Q 1681 3103 1420 2742 
Q 1159 2381 1159 1747 
Q 1159 1113 1420 752 
Q 1681 391 2138 391 
Q 2594 391 2855 752 
Q 3116 1113 3116 1747 
z
" transform="scale(0.015625)"/>
       <path id="DejaVuSans-2d" d="M 313 2009 
L 1997 2009 
L 1997 1497 
L 313 1497 
L 313 2009 
z
" transform="scale(0.015625)"/>
       <path id="DejaVuSans-41" d="M 2188 4044 
L 1331 1722 
L 3047 1722 
L 2188 4044 
z
M 1831 4666 
L 2547 4666 
L 4325 0 
L 3669 0 
L 3244 1197 
L 1141 1197 
L 716 0 
L 50 0 
L 1831 4666 
z
" transform="scale(0.015625)"/>
       <path id="DejaVuSans-62" d="M 3116 1747 
Q 3116 2381 2855 2742 
Q 2594 3103 2138 3103 
Q 1681 3103 1420 2742 
Q 1159 2381 1159 1747 
Q 1159 1113 1420 752 
Q 1681 391 2138 391 
Q 2594 391 2855 752 
Q 3116 1113 3116 1747 
z
M 1159 2969 
Q 1341 3281 1617 3432 
Q 1894 3584 2278 3584 
Q 2916 3584 3314 3078 
Q 3713 2572 3713 1747 
Q 3713 922 3314 415 
Q 2916 -91 2278 -91 
Q 1894 -91 1617 61 
Q 1341 213 1159 525 
L 1159 0 
L 581 0 
L 581 4863 
L 1159 4863 
L 1159 2969 
z
" transform="scale(0.015625)"/>
       <path id="DejaVuSans-67" d="M 2906 1791 
Q 2906 2416 2648 2759 
Q 2391 3103 1925 3103 
Q 1463 3103 1205 2759 
Q 947 2416 947 1791 
Q 947 1169 1205 825 
Q 1463 481 1925 481 
Q 2391 481 2648 825 
Q 2906 1169 2906 1791 
z
M 3481 434 
Q 3481 -459 3084 -895 
Q 2688 -1331 1869 -1331 
Q 1566 -1331 1297 -1286 
Q 1028 -1241 775 -1147 
L 775 -588 
Q 1028 -725 1275 -790 
Q 1522 -856 1778 -856 
Q 2344 -856 2625 -561 
Q 2906 -266 2906 331 
L 2906 616 
Q 2728 306 2450 153 
Q 2172 0 1784 0 
Q 1141 0 747 490 
Q 353 981 353 1791 
Q 353 2603 747 3093 
Q 1141 3584 1784 3584 
Q 2172 3584 2450 3431 
Q 2728 3278 2906 2969 
L 2906 3500 
L 3481 3500 
L 3481 434 
z
" transform="scale(0.015625)"/>
       <path id="DejaVuSans-65" d="M 3597 1894 
L 3597 1613 
L 953 1613 
Q 991 1019 1311 708 
Q 1631 397 2203 397 
Q 2534 397 2845 478 
Q 3156 559 3463 722 
L 3463 178 
Q 3153 47 2828 -22 
Q 2503 -91 2169 -91 
Q 1331 -91 842 396 
Q 353 884 353 1716 
Q 353 2575 817 3079 
Q 1281 3584 2069 3584 
Q 2775 3584 3186 3129 
Q 3597 2675 3597 1894 
z
M 3022 2063 
Q 3016 2534 2758 2815 
Q 2500 3097 2075 3097 
Q 1594 3097 1305 2825 
Q 1016 2553 972 2059 
L 3022 2063 
z
" transform="scale(0.015625)"/>
       <path id="DejaVuSans-64" d="M 2906 2969 
L 2906 4863 
L 3481 4863 
L 3481 0 
L 2906 0 
L 2906 525 
Q 2725 213 2448 61 
Q 2172 -91 1784 -91 
Q 1150 -91 751 415 
Q 353 922 353 1747 
Q 353 2572 751 3078 
Q 1150 3584 1784 3584 
Q 2172 3584 2448 3432 
Q 2725 3281 2906 2969 
z
M 947 1747 
Q 947 1113 1208 752 
Q 1469 391 1925 391 
Q 2381 391 2643 752 
Q 2906 1113 2906 1747 
Q 2906 2381 2643 2742 
Q 2381 3103 1925 3103 
Q 1469 3103 1208 2742 
Q 947 2381 947 1747 
z
" transform="scale(0.015625)"/>
       <path id="DejaVuSans-63" d="M 3122 3366 
L 3122 2828 
Q 2878 2963 2633 3030 
Q 2388 3097 2138 3097 
Q 1578 3097 1268 2742 
Q 959 2388 959 1747 
Q 959 1106 1268 751 
Q 1578 397 2138 397 
Q 2388 397 2633 464 
Q 2878 531 3122 666 
L 3122 134 
Q 2881 22 2623 -34 
Q 2366 -91 2075 -91 
Q 1284 -91 818 406 
Q 353 903 353 1747 
Q 353 2603 823 3093 
Q 1294 3584 2113 3584 
Q 2378 3584 2631 3529 
Q 2884 3475 3122 3366 
z
" transform="scale(0.015625)"/>
       <path id="DejaVuSans-6b" d="M 581 4863 
L 1159 4863 
L 1159 1991 
L 2875 3500 
L 3609 3500 
L 1753 1863 
L 3688 0 
L 2938 0 
L 1159 1709 
L 1159 0 
L 581 0 
L 581 4863 
z
" transform="scale(0.015625)"/>
       <path id="DejaVuSans-74" d="M 1172 4494 
L 1172 3500 
L 2356 3500 
L 2356 3053 
L 1172 3053 
L 1172 1153 
Q 1172 725 1289 603 
Q 1406 481 1766 481 
L 2356 481 
L 2356 0 
L 1766 0 
Q 1100 0 847 248 
Q 594 497 594 1153 
L 594 3053 
L 172 3053 
L 172 3500 
L 594 3500 
L 594 4494 
L 1172 4494 
z
" transform="scale(0.015625)"/>
      </defs>
      <use xlink:href="#DejaVuSans-4d"/>
      <use xlink:href="#DejaVuSans-61" x="86.279297"/>
      <use xlink:href="#DejaVuSans-70" x="147.558594"/>
      <use xlink:href="#DejaVuSans-2d" x="211.035156"/>
      <use xlink:href="#DejaVuSans-41" x="244.869141"/>
      <use xlink:href="#DejaVuSans-62" x="313.277344"/>
      <use xlink:href="#DejaVuSans-67" x="376.753906"/>
      <use xlink:href="#DejaVuSans-65" x="440.230469"/>
      <use xlink:href="#DejaVuSans-64" x="501.753906"/>
      <use xlink:href="#DejaVuSans-65" x="565.230469"/>
      <use xlink:href="#DejaVuSans-63" x="626.753906"/>
      <use xlink:href="#DejaVuSans-6b" x="681.734375"/>
      <use xlink:href="#DejaVuSans-74" x="739.644531"/>
     </g>
    </g>
   </g>
   <g id="line2d_27">
    <path d="M 110.132131 186.271262 
L 110.132131 207.033791 
L 116.228046 248.558851 
L 116.228046 179.350418 
L 122.323962 207.033791 
L 128.419878 151.667045 
L 134.515793 130.904515 
L 140.611709 144.746202 
L 274.721854 207.033791 
L 280.81777 117.062829 
L 286.913685 200.112948 
L 293.009601 144.746202 
L 299.105517 144.746202 
L 305.201432 179.350418 
L 311.297348 96.300299 
L 402.736083 130.904515 
L 408.831999 172.429575 
L 414.927915 165.508732 
L 421.02383 158.587889 
L 427.119746 165.508732 
L 433.215662 137.825359 
L 439.311577 165.508732 
L 914.793 158.587889 
L 920.888916 200.112948 
L 926.984832 227.796321 
L 933.080747 234.717165 
L 939.176663 234.717165 
L 945.272579 110.141986 
L 951.368494 227.796321 
" clip-path="url(#pe363ff0dca)" style="fill: none; stroke: #1f77b4; stroke-width: 1.5; stroke-linecap: square"/>
    <defs>
     <path id="m3c72801a1b" d="M 0 3 
C 0.795609 3 1.55874 2.683901 2.12132 2.12132 
C 2.683901 1.55874 3 0.795609 3 0 
C 3 -0.795609 2.683901 -1.55874 2.12132 -2.12132 
C 1.55874 -2.683901 0.795609 -3 0 -3 
C -0.795609 -3 -1.55874 -2.683901 -2.12132 -2.12132 
C -2.683901 -1.55874 -3 -0.795609 -3 0 
C -3 0.795609 -2.683901 1.55874 -2.12132 2.12132 
C -1.55874 2.683901 -0.795609 3 0 3 
z
" style="stroke: #1f77b4"/>
    </defs>
    <g clip-path="url(#pe363ff0dca)">
     <use xlink:href="#m3c72801a1b" x="110.132131" y="186.271262" style="fill: #1f77b4; stroke: #1f77b4"/>
     <use xlink:href="#m3c72801a1b" x="110.132131" y="207.033791" style="fill: #1f77b4; stroke: #1f77b4"/>
     <use xlink:href="#m3c72801a1b" x="116.228046" y="248.558851" style="fill: #1f77b4; stroke: #1f77b4"/>
     <use xlink:href="#m3c72801a1b" x="116.228046" y="179.350418" style="fill: #1f77b4; stroke: #1f77b4"/>
     <use xlink:href="#m3c72801a1b" x="122.323962" y="207.033791" style="fill: #1f77b4; stroke: #1f77b4"/>
     <use xlink:href="#m3c72801a1b" x="128.419878" y="151.667045" style="fill: #1f77b4; stroke: #1f77b4"/>
     <use xlink:href="#m3c72801a1b" x="134.515793" y="130.904515" style="fill: #1f77b4; stroke: #1f77b4"/>
     <use xlink:href="#m3c72801a1b" x="140.611709" y="144.746202" style="fill: #1f77b4; stroke: #1f77b4"/>
     <use xlink:href="#m3c72801a1b" x="274.721854" y="207.033791" style="fill: #1f77b4; stroke: #1f77b4"/>
     <use xlink:href="#m3c72801a1b" x="280.81777" y="117.062829" style="fill: #1f77b4; stroke: #1f77b4"/>
     <use xlink:href="#m3c72801a1b" x="286.913685" y="200.112948" style="fill: #1f77b4; stroke: #1f77b4"/>
     <use xlink:href="#m3c72801a1b" x="293.009601" y="144.746202" style="fill: #1f77b4; stroke: #1f77b4"/>
     <use xlink:href="#m3c72801a1b" x="299.105517" y="144.746202" style="fill: #1f77b4; stroke: #1f77b4"/>
     <use xlink:href="#m3c72801a1b" x="305.201432" y="179.350418" style="fill: #1f77b4; stroke: #1f77b4"/>
     <use xlink:href="#m3c72801a1b" x="311.297348" y="96.300299" style="fill: #1f77b4; stroke: #1f77b4"/>
     <use xlink:href="#m3c72801a1b" x="402.736083" y="130.904515" style="fill: #1f77b4; stroke: #1f77b4"/>
     <use xlink:href="#m3c72801a1b" x="408.831999" y="172.429575" style="fill: #1f77b4; stroke: #1f77b4"/>
     <use xlink:href="#m3c72801a1b" x="414.927915" y="165.508732" style="fill: #1f77b4; stroke: #1f77b4"/>
     <use xlink:href="#m3c72801a1b" x="421.02383" y="158.587889" style="fill: #1f77b4; stroke: #1f77b4"/>
     <use xlink:href="#m3c72801a1b" x="427.119746" y="165.508732" style="fill: #1f77b4; stroke: #1f77b4"/>
     <use xlink:href="#m3c72801a1b" x="433.215662" y="137.825359" style="fill: #1f77b4; stroke: #1f77b4"/>
     <use xlink:href="#m3c72801a1b" x="439.311577" y="165.508732" style="fill: #1f77b4; stroke: #1f77b4"/>
     <use xlink:href="#m3c72801a1b" x="914.793" y="158.587889" style="fill: #1f77b4; stroke: #1f77b4"/>
     <use xlink:href="#m3c72801a1b" x="920.888916" y="200.112948" style="fill: #1f77b4; stroke: #1f77b4"/>
     <use xlink:href="#m3c72801a1b" x="926.984832" y="227.796321" style="fill: #1f77b4; stroke: #1f77b4"/>
     <use xlink:href="#m3c72801a1b" x="933.080747" y="234.717165" style="fill: #1f77b4; stroke: #1f77b4"/>
     <use xlink:href="#m3c72801a1b" x="939.176663" y="234.717165" style="fill: #1f77b4; stroke: #1f77b4"/>
     <use xlink:href="#m3c72801a1b" x="945.272579" y="110.141986" style="fill: #1f77b4; stroke: #1f77b4"/>
     <use xlink:href="#m3c72801a1b" x="951.368494" y="227.796321" style="fill: #1f77b4; stroke: #1f77b4"/>
    </g>
   </g>
   <g id="patch_3">
    <path d="M 68.070312 256.171779 
L 68.070312 88.687372 
" style="fill: none; stroke: #000000; stroke-width: 0.8; stroke-linejoin: miter; stroke-linecap: square"/>
   </g>
   <g id="patch_4">
    <path d="M 993.430313 256.171779 
L 993.430313 88.687372 
" style="fill: none; stroke: #000000; stroke-width: 0.8; stroke-linejoin: miter; stroke-linecap: square"/>
   </g>
   <g id="patch_5">
    <path d="M 68.070312 256.171779 
L 993.430313 256.171779 
" style="fill: none; stroke: #000000; stroke-width: 0.8; stroke-linejoin: miter; stroke-linecap: square"/>
   </g>
   <g id="patch_6">
    <path d="M 68.070312 88.687372 
L 993.430313 88.687372 
" style="fill: none; stroke: #000000; stroke-width: 0.8; stroke-linejoin: miter; stroke-linecap: square"/>
   </g>
  </g>
  <g id="axes_2">
   <g id="patch_7">
    <path d="M 68.070312 437.956186 
L 993.430313 437.956186 
L 993.430313 270.471779 
L 68.070312 270.471779 
z
" style="fill: #ffffff"/>
   </g>
   <g id="matplotlib.axis_3">
    <g id="xtick_9">
     <g id="line2d_28">
      <path d="M 104.036215 437.956186 
L 104.036215 270.471779 
" clip-path="url(#p393f104f43)" style="fill: none; stroke: #b0b0b0; stroke-width: 0.8; stroke-linecap: square"/>
     </g>
     <g id="line2d_29">
      <g>
       <use xlink:href="#mf49f4245f4" x="104.036215" y="437.956186" style="stroke: #000000; stroke-width: 0.8"/>
      </g>
     </g>
    </g>
    <g id="xtick_10">
     <g id="line2d_30">
      <path d="M 225.954529 437.956186 
L 225.954529 270.471779 
" clip-path="url(#p393f104f43)" style="fill: none; stroke: #b0b0b0; stroke-width: 0.8; stroke-linecap: square"/>
     </g>
     <g id="line2d_31">
      <g>
       <use xlink:href="#mf49f4245f4" x="225.954529" y="437.956186" style="stroke: #000000; stroke-width: 0.8"/>
      </g>
     </g>
    </g>
    <g id="xtick_11">
     <g id="line2d_32">
      <path d="M 347.872842 437.956186 
L 347.872842 270.471779 
" clip-path="url(#p393f104f43)" style="fill: none; stroke: #b0b0b0; stroke-width: 0.8; stroke-linecap: square"/>
     </g>
     <g id="line2d_33">
      <g>
       <use xlink:href="#mf49f4245f4" x="347.872842" y="437.956186" style="stroke: #000000; stroke-width: 0.8"/>
      </g>
     </g>
    </g>
    <g id="xtick_12">
     <g id="line2d_34">
      <path d="M 469.791156 437.956186 
L 469.791156 270.471779 
" clip-path="url(#p393f104f43)" style="fill: none; stroke: #b0b0b0; stroke-width: 0.8; stroke-linecap: square"/>
     </g>
     <g id="line2d_35">
      <g>
       <use xlink:href="#mf49f4245f4" x="469.791156" y="437.956186" style="stroke: #000000; stroke-width: 0.8"/>
      </g>
     </g>
    </g>
    <g id="xtick_13">
     <g id="line2d_36">
      <path d="M 591.709469 437.956186 
L 591.709469 270.471779 
" clip-path="url(#p393f104f43)" style="fill: none; stroke: #b0b0b0; stroke-width: 0.8; stroke-linecap: square"/>
     </g>
     <g id="line2d_37">
      <g>
       <use xlink:href="#mf49f4245f4" x="591.709469" y="437.956186" style="stroke: #000000; stroke-width: 0.8"/>
      </g>
     </g>
    </g>
    <g id="xtick_14">
     <g id="line2d_38">
      <path d="M 713.627783 437.956186 
L 713.627783 270.471779 
" clip-path="url(#p393f104f43)" style="fill: none; stroke: #b0b0b0; stroke-width: 0.8; stroke-linecap: square"/>
     </g>
     <g id="line2d_39">
      <g>
       <use xlink:href="#mf49f4245f4" x="713.627783" y="437.956186" style="stroke: #000000; stroke-width: 0.8"/>
      </g>
     </g>
    </g>
    <g id="xtick_15">
     <g id="line2d_40">
      <path d="M 835.546096 437.956186 
L 835.546096 270.471779 
" clip-path="url(#p393f104f43)" style="fill: none; stroke: #b0b0b0; stroke-width: 0.8; stroke-linecap: square"/>
     </g>
     <g id="line2d_41">
      <g>
       <use xlink:href="#mf49f4245f4" x="835.546096" y="437.956186" style="stroke: #000000; stroke-width: 0.8"/>
      </g>
     </g>
    </g>
    <g id="xtick_16">
     <g id="line2d_42">
      <path d="M 957.46441 437.956186 
L 957.46441 270.471779 
" clip-path="url(#p393f104f43)" style="fill: none; stroke: #b0b0b0; stroke-width: 0.8; stroke-linecap: square"/>
     </g>
     <g id="line2d_43">
      <g>
       <use xlink:href="#mf49f4245f4" x="957.46441" y="437.956186" style="stroke: #000000; stroke-width: 0.8"/>
      </g>
     </g>
    </g>
   </g>
   <g id="matplotlib.axis_4">
    <g id="ytick_6">
     <g id="line2d_44">
      <path d="M 68.070312 411.528038 
L 993.430313 411.528038 
" clip-path="url(#p393f104f43)" style="fill: none; stroke: #b0b0b0; stroke-width: 0.8; stroke-linecap: square"/>
     </g>
     <g id="line2d_45">
      <g>
       <use xlink:href="#mecc313d9e0" x="68.070312" y="411.528038" style="stroke: #000000; stroke-width: 0.8"/>
      </g>
     </g>
     <g id="text_7">
      <!-- 100 -->
      <g transform="translate(41.982812 415.327257) scale(0.1 -0.1)">
       <use xlink:href="#DejaVuSans-31"/>
       <use xlink:href="#DejaVuSans-30" x="63.623047"/>
       <use xlink:href="#DejaVuSans-30" x="127.246094"/>
      </g>
     </g>
    </g>
    <g id="ytick_7">
     <g id="line2d_46">
      <path d="M 68.070312 382.581545 
L 993.430313 382.581545 
" clip-path="url(#p393f104f43)" style="fill: none; stroke: #b0b0b0; stroke-width: 0.8; stroke-linecap: square"/>
     </g>
     <g id="line2d_47">
      <g>
       <use xlink:href="#mecc313d9e0" x="68.070312" y="382.581545" style="stroke: #000000; stroke-width: 0.8"/>
      </g>
     </g>
     <g id="text_8">
      <!-- 200 -->
      <g transform="translate(41.982812 386.380764) scale(0.1 -0.1)">
       <use xlink:href="#DejaVuSans-32"/>
       <use xlink:href="#DejaVuSans-30" x="63.623047"/>
       <use xlink:href="#DejaVuSans-30" x="127.246094"/>
      </g>
     </g>
    </g>
    <g id="ytick_8">
     <g id="line2d_48">
      <path d="M 68.070312 353.635052 
L 993.430313 353.635052 
" clip-path="url(#p393f104f43)" style="fill: none; stroke: #b0b0b0; stroke-width: 0.8; stroke-linecap: square"/>
     </g>
     <g id="line2d_49">
      <g>
       <use xlink:href="#mecc313d9e0" x="68.070312" y="353.635052" style="stroke: #000000; stroke-width: 0.8"/>
      </g>
     </g>
     <g id="text_9">
      <!-- 300 -->
      <g transform="translate(41.982812 357.434271) scale(0.1 -0.1)">
       <use xlink:href="#DejaVuSans-33"/>
       <use xlink:href="#DejaVuSans-30" x="63.623047"/>
       <use xlink:href="#DejaVuSans-30" x="127.246094"/>
      </g>
     </g>
    </g>
    <g id="ytick_9">
     <g id="line2d_50">
      <path d="M 68.070312 324.68856 
L 993.430313 324.68856 
" clip-path="url(#p393f104f43)" style="fill: none; stroke: #b0b0b0; stroke-width: 0.8; stroke-linecap: square"/>
     </g>
     <g id="line2d_51">
      <g>
       <use xlink:href="#mecc313d9e0" x="68.070312" y="324.68856" style="stroke: #000000; stroke-width: 0.8"/>
      </g>
     </g>
     <g id="text_10">
      <!-- 400 -->
      <g transform="translate(41.982812 328.487778) scale(0.1 -0.1)">
       <defs>
        <path id="DejaVuSans-34" d="M 2419 4116 
L 825 1625 
L 2419 1625 
L 2419 4116 
z
M 2253 4666 
L 3047 4666 
L 3047 1625 
L 3713 1625 
L 3713 1100 
L 3047 1100 
L 3047 0 
L 2419 0 
L 2419 1100 
L 313 1100 
L 313 1709 
L 2253 4666 
z
" transform="scale(0.015625)"/>
       </defs>
       <use xlink:href="#DejaVuSans-34"/>
       <use xlink:href="#DejaVuSans-30" x="63.623047"/>
       <use xlink:href="#DejaVuSans-30" x="127.246094"/>
      </g>
     </g>
    </g>
    <g id="ytick_10">
     <g id="line2d_52">
      <path d="M 68.070312 295.742067 
L 993.430313 295.742067 
" clip-path="url(#p393f104f43)" style="fill: none; stroke: #b0b0b0; stroke-width: 0.8; stroke-linecap: square"/>
     </g>
     <g id="line2d_53">
      <g>
       <use xlink:href="#mecc313d9e0" x="68.070312" y="295.742067" style="stroke: #000000; stroke-width: 0.8"/>
      </g>
     </g>
     <g id="text_11">
      <!-- 500 -->
      <g transform="translate(41.982812 299.541286) scale(0.1 -0.1)">
       <use xlink:href="#DejaVuSans-35"/>
       <use xlink:href="#DejaVuSans-30" x="63.623047"/>
       <use xlink:href="#DejaVuSans-30" x="127.246094"/>
      </g>
     </g>
    </g>
    <g id="text_12">
     <!-- Wand berührungen -->
     <g transform="translate(35.903125 402.291326) rotate(-90) scale(0.1 -0.1)">
      <defs>
       <path id="DejaVuSans-57" d="M 213 4666 
L 850 4666 
L 1831 722 
L 2809 4666 
L 3519 4666 
L 4500 722 
L 5478 4666 
L 6119 4666 
L 4947 0 
L 4153 0 
L 3169 4050 
L 2175 0 
L 1381 0 
L 213 4666 
z
" transform="scale(0.015625)"/>
       <path id="DejaVuSans-6e" d="M 3513 2113 
L 3513 0 
L 2938 0 
L 2938 2094 
Q 2938 2591 2744 2837 
Q 2550 3084 2163 3084 
Q 1697 3084 1428 2787 
Q 1159 2491 1159 1978 
L 1159 0 
L 581 0 
L 581 3500 
L 1159 3500 
L 1159 2956 
Q 1366 3272 1645 3428 
Q 1925 3584 2291 3584 
Q 2894 3584 3203 3211 
Q 3513 2838 3513 2113 
z
" transform="scale(0.015625)"/>
       <path id="DejaVuSans-20" transform="scale(0.015625)"/>
       <path id="DejaVuSans-72" d="M 2631 2963 
Q 2534 3019 2420 3045 
Q 2306 3072 2169 3072 
Q 1681 3072 1420 2755 
Q 1159 2438 1159 1844 
L 1159 0 
L 581 0 
L 581 3500 
L 1159 3500 
L 1159 2956 
Q 1341 3275 1631 3429 
Q 1922 3584 2338 3584 
Q 2397 3584 2469 3576 
Q 2541 3569 2628 3553 
L 2631 2963 
z
" transform="scale(0.015625)"/>
       <path id="DejaVuSans-fc" d="M 544 1381 
L 544 3500 
L 1119 3500 
L 1119 1403 
Q 1119 906 1312 657 
Q 1506 409 1894 409 
Q 2359 409 2629 706 
Q 2900 1003 2900 1516 
L 2900 3500 
L 3475 3500 
L 3475 0 
L 2900 0 
L 2900 538 
Q 2691 219 2414 64 
Q 2138 -91 1772 -91 
Q 1169 -91 856 284 
Q 544 659 544 1381 
z
M 1991 3584 
L 1991 3584 
z
M 2278 4850 
L 2912 4850 
L 2912 4219 
L 2278 4219 
L 2278 4850 
z
M 1056 4850 
L 1690 4850 
L 1690 4219 
L 1056 4219 
L 1056 4850 
z
" transform="scale(0.015625)"/>
       <path id="DejaVuSans-68" d="M 3513 2113 
L 3513 0 
L 2938 0 
L 2938 2094 
Q 2938 2591 2744 2837 
Q 2550 3084 2163 3084 
Q 1697 3084 1428 2787 
Q 1159 2491 1159 1978 
L 1159 0 
L 581 0 
L 581 4863 
L 1159 4863 
L 1159 2956 
Q 1366 3272 1645 3428 
Q 1925 3584 2291 3584 
Q 2894 3584 3203 3211 
Q 3513 2838 3513 2113 
z
" transform="scale(0.015625)"/>
       <path id="DejaVuSans-75" d="M 544 1381 
L 544 3500 
L 1119 3500 
L 1119 1403 
Q 1119 906 1312 657 
Q 1506 409 1894 409 
Q 2359 409 2629 706 
Q 2900 1003 2900 1516 
L 2900 3500 
L 3475 3500 
L 3475 0 
L 2900 0 
L 2900 538 
Q 2691 219 2414 64 
Q 2138 -91 1772 -91 
Q 1169 -91 856 284 
Q 544 659 544 1381 
z
M 1991 3584 
L 1991 3584 
z
" transform="scale(0.015625)"/>
      </defs>
      <use xlink:href="#DejaVuSans-57"/>
      <use xlink:href="#DejaVuSans-61" x="92.501953"/>
      <use xlink:href="#DejaVuSans-6e" x="153.78125"/>
      <use xlink:href="#DejaVuSans-64" x="217.160156"/>
      <use xlink:href="#DejaVuSans-20" x="280.636719"/>
      <use xlink:href="#DejaVuSans-62" x="312.423828"/>
      <use xlink:href="#DejaVuSans-65" x="375.900391"/>
      <use xlink:href="#DejaVuSans-72" x="437.423828"/>
      <use xlink:href="#DejaVuSans-fc" x="478.537109"/>
      <use xlink:href="#DejaVuSans-68" x="541.916016"/>
      <use xlink:href="#DejaVuSans-72" x="605.294922"/>
      <use xlink:href="#DejaVuSans-75" x="646.408203"/>
      <use xlink:href="#DejaVuSans-6e" x="709.787109"/>
      <use xlink:href="#DejaVuSans-67" x="773.166016"/>
      <use xlink:href="#DejaVuSans-65" x="836.642578"/>
      <use xlink:href="#DejaVuSans-6e" x="898.166016"/>
     </g>
    </g>
   </g>
   <g id="line2d_54">
    <path d="M 110.132131 388.949774 
L 110.132131 332.214648 
L 116.228046 278.084706 
L 116.228046 373.318667 
L 122.323962 365.792579 
L 128.419878 419.922521 
L 134.515793 363.766325 
L 140.611709 377.371176 
L 274.721854 413.264827 
L 280.81777 401.396765 
L 286.913685 365.792579 
L 293.009601 402.554625 
L 299.105517 409.791248 
L 305.201432 389.818168 
L 311.297348 381.71315 
L 402.736083 404.00195 
L 408.831999 430.343258 
L 414.927915 357.977026 
L 421.02383 404.58088 
L 427.119746 362.89793 
L 433.215662 384.318335 
L 439.311577 429.185398 
L 914.793 324.399095 
L 920.888916 303.847085 
L 926.984832 346.977359 
L 933.080747 315.715147 
L 939.176663 334.819832 
L 945.272579 344.08271 
L 951.368494 355.661307 
" clip-path="url(#p393f104f43)" style="fill: none; stroke: #1f77b4; stroke-width: 1.5; stroke-linecap: square"/>
    <g clip-path="url(#p393f104f43)">
     <use xlink:href="#m3c72801a1b" x="110.132131" y="388.949774" style="fill: #1f77b4; stroke: #1f77b4"/>
     <use xlink:href="#m3c72801a1b" x="110.132131" y="332.214648" style="fill: #1f77b4; stroke: #1f77b4"/>
     <use xlink:href="#m3c72801a1b" x="116.228046" y="278.084706" style="fill: #1f77b4; stroke: #1f77b4"/>
     <use xlink:href="#m3c72801a1b" x="116.228046" y="373.318667" style="fill: #1f77b4; stroke: #1f77b4"/>
     <use xlink:href="#m3c72801a1b" x="122.323962" y="365.792579" style="fill: #1f77b4; stroke: #1f77b4"/>
     <use xlink:href="#m3c72801a1b" x="128.419878" y="419.922521" style="fill: #1f77b4; stroke: #1f77b4"/>
     <use xlink:href="#m3c72801a1b" x="134.515793" y="363.766325" style="fill: #1f77b4; stroke: #1f77b4"/>
     <use xlink:href="#m3c72801a1b" x="140.611709" y="377.371176" style="fill: #1f77b4; stroke: #1f77b4"/>
     <use xlink:href="#m3c72801a1b" x="274.721854" y="413.264827" style="fill: #1f77b4; stroke: #1f77b4"/>
     <use xlink:href="#m3c72801a1b" x="280.81777" y="401.396765" style="fill: #1f77b4; stroke: #1f77b4"/>
     <use xlink:href="#m3c72801a1b" x="286.913685" y="365.792579" style="fill: #1f77b4; stroke: #1f77b4"/>
     <use xlink:href="#m3c72801a1b" x="293.009601" y="402.554625" style="fill: #1f77b4; stroke: #1f77b4"/>
     <use xlink:href="#m3c72801a1b" x="299.105517" y="409.791248" style="fill: #1f77b4; stroke: #1f77b4"/>
     <use xlink:href="#m3c72801a1b" x="305.201432" y="389.818168" style="fill: #1f77b4; stroke: #1f77b4"/>
     <use xlink:href="#m3c72801a1b" x="311.297348" y="381.71315" style="fill: #1f77b4; stroke: #1f77b4"/>
     <use xlink:href="#m3c72801a1b" x="402.736083" y="404.00195" style="fill: #1f77b4; stroke: #1f77b4"/>
     <use xlink:href="#m3c72801a1b" x="408.831999" y="430.343258" style="fill: #1f77b4; stroke: #1f77b4"/>
     <use xlink:href="#m3c72801a1b" x="414.927915" y="357.977026" style="fill: #1f77b4; stroke: #1f77b4"/>
     <use xlink:href="#m3c72801a1b" x="421.02383" y="404.58088" style="fill: #1f77b4; stroke: #1f77b4"/>
     <use xlink:href="#m3c72801a1b" x="427.119746" y="362.89793" style="fill: #1f77b4; stroke: #1f77b4"/>
     <use xlink:href="#m3c72801a1b" x="433.215662" y="384.318335" style="fill: #1f77b4; stroke: #1f77b4"/>
     <use xlink:href="#m3c72801a1b" x="439.311577" y="429.185398" style="fill: #1f77b4; stroke: #1f77b4"/>
     <use xlink:href="#m3c72801a1b" x="914.793" y="324.399095" style="fill: #1f77b4; stroke: #1f77b4"/>
     <use xlink:href="#m3c72801a1b" x="920.888916" y="303.847085" style="fill: #1f77b4; stroke: #1f77b4"/>
     <use xlink:href="#m3c72801a1b" x="926.984832" y="346.977359" style="fill: #1f77b4; stroke: #1f77b4"/>
     <use xlink:href="#m3c72801a1b" x="933.080747" y="315.715147" style="fill: #1f77b4; stroke: #1f77b4"/>
     <use xlink:href="#m3c72801a1b" x="939.176663" y="334.819832" style="fill: #1f77b4; stroke: #1f77b4"/>
     <use xlink:href="#m3c72801a1b" x="945.272579" y="344.08271" style="fill: #1f77b4; stroke: #1f77b4"/>
     <use xlink:href="#m3c72801a1b" x="951.368494" y="355.661307" style="fill: #1f77b4; stroke: #1f77b4"/>
    </g>
   </g>
   <g id="patch_8">
    <path d="M 68.070312 437.956186 
L 68.070312 270.471779 
" style="fill: none; stroke: #000000; stroke-width: 0.8; stroke-linejoin: miter; stroke-linecap: square"/>
   </g>
   <g id="patch_9">
    <path d="M 993.430313 437.956186 
L 993.430313 270.471779 
" style="fill: none; stroke: #000000; stroke-width: 0.8; stroke-linejoin: miter; stroke-linecap: square"/>
   </g>
   <g id="patch_10">
    <path d="M 68.070312 437.956186 
L 993.430313 437.956186 
" style="fill: none; stroke: #000000; stroke-width: 0.8; stroke-linejoin: miter; stroke-linecap: square"/>
   </g>
   <g id="patch_11">
    <path d="M 68.070312 270.471779 
L 993.430313 270.471779 
" style="fill: none; stroke: #000000; stroke-width: 0.8; stroke-linejoin: miter; stroke-linecap: square"/>
   </g>
  </g>
  <g id="axes_3">
   <g id="patch_12">
    <path d="M 68.070312 619.740593 
L 993.430313 619.740593 
L 993.430313 452.256186 
L 68.070312 452.256186 
z
" style="fill: #ffffff"/>
   </g>
   <g id="matplotlib.axis_5">
    <g id="xtick_17">
     <g id="line2d_55">
      <path d="M 104.036215 619.740593 
L 104.036215 452.256186 
" clip-path="url(#pb996191baf)" style="fill: none; stroke: #b0b0b0; stroke-width: 0.8; stroke-linecap: square"/>
     </g>
     <g id="line2d_56">
      <g>
       <use xlink:href="#mf49f4245f4" x="104.036215" y="619.740593" style="stroke: #000000; stroke-width: 0.8"/>
      </g>
     </g>
    </g>
    <g id="xtick_18">
     <g id="line2d_57">
      <path d="M 225.954529 619.740593 
L 225.954529 452.256186 
" clip-path="url(#pb996191baf)" style="fill: none; stroke: #b0b0b0; stroke-width: 0.8; stroke-linecap: square"/>
     </g>
     <g id="line2d_58">
      <g>
       <use xlink:href="#mf49f4245f4" x="225.954529" y="619.740593" style="stroke: #000000; stroke-width: 0.8"/>
      </g>
     </g>
    </g>
    <g id="xtick_19">
     <g id="line2d_59">
      <path d="M 347.872842 619.740593 
L 347.872842 452.256186 
" clip-path="url(#pb996191baf)" style="fill: none; stroke: #b0b0b0; stroke-width: 0.8; stroke-linecap: square"/>
     </g>
     <g id="line2d_60">
      <g>
       <use xlink:href="#mf49f4245f4" x="347.872842" y="619.740593" style="stroke: #000000; stroke-width: 0.8"/>
      </g>
     </g>
    </g>
    <g id="xtick_20">
     <g id="line2d_61">
      <path d="M 469.791156 619.740593 
L 469.791156 452.256186 
" clip-path="url(#pb996191baf)" style="fill: none; stroke: #b0b0b0; stroke-width: 0.8; stroke-linecap: square"/>
     </g>
     <g id="line2d_62">
      <g>
       <use xlink:href="#mf49f4245f4" x="469.791156" y="619.740593" style="stroke: #000000; stroke-width: 0.8"/>
      </g>
     </g>
    </g>
    <g id="xtick_21">
     <g id="line2d_63">
      <path d="M 591.709469 619.740593 
L 591.709469 452.256186 
" clip-path="url(#pb996191baf)" style="fill: none; stroke: #b0b0b0; stroke-width: 0.8; stroke-linecap: square"/>
     </g>
     <g id="line2d_64">
      <g>
       <use xlink:href="#mf49f4245f4" x="591.709469" y="619.740593" style="stroke: #000000; stroke-width: 0.8"/>
      </g>
     </g>
    </g>
    <g id="xtick_22">
     <g id="line2d_65">
      <path d="M 713.627783 619.740593 
L 713.627783 452.256186 
" clip-path="url(#pb996191baf)" style="fill: none; stroke: #b0b0b0; stroke-width: 0.8; stroke-linecap: square"/>
     </g>
     <g id="line2d_66">
      <g>
       <use xlink:href="#mf49f4245f4" x="713.627783" y="619.740593" style="stroke: #000000; stroke-width: 0.8"/>
      </g>
     </g>
    </g>
    <g id="xtick_23">
     <g id="line2d_67">
      <path d="M 835.546096 619.740593 
L 835.546096 452.256186 
" clip-path="url(#pb996191baf)" style="fill: none; stroke: #b0b0b0; stroke-width: 0.8; stroke-linecap: square"/>
     </g>
     <g id="line2d_68">
      <g>
       <use xlink:href="#mf49f4245f4" x="835.546096" y="619.740593" style="stroke: #000000; stroke-width: 0.8"/>
      </g>
     </g>
    </g>
    <g id="xtick_24">
     <g id="line2d_69">
      <path d="M 957.46441 619.740593 
L 957.46441 452.256186 
" clip-path="url(#pb996191baf)" style="fill: none; stroke: #b0b0b0; stroke-width: 0.8; stroke-linecap: square"/>
     </g>
     <g id="line2d_70">
      <g>
       <use xlink:href="#mf49f4245f4" x="957.46441" y="619.740593" style="stroke: #000000; stroke-width: 0.8"/>
      </g>
     </g>
    </g>
   </g>
   <g id="matplotlib.axis_6">
    <g id="ytick_11">
     <g id="line2d_71">
      <path d="M 68.070312 600.672732 
L 993.430313 600.672732 
" clip-path="url(#pb996191baf)" style="fill: none; stroke: #b0b0b0; stroke-width: 0.8; stroke-linecap: square"/>
     </g>
     <g id="line2d_72">
      <g>
       <use xlink:href="#mecc313d9e0" x="68.070312" y="600.672732" style="stroke: #000000; stroke-width: 0.8"/>
      </g>
     </g>
     <g id="text_13">
      <!-- −50000 -->
      <g transform="translate(20.878125 604.47195) scale(0.1 -0.1)">
       <defs>
        <path id="DejaVuSans-2212" d="M 678 2272 
L 4684 2272 
L 4684 1741 
L 678 1741 
L 678 2272 
z
" transform="scale(0.015625)"/>
       </defs>
       <use xlink:href="#DejaVuSans-2212"/>
       <use xlink:href="#DejaVuSans-35" x="83.789062"/>
       <use xlink:href="#DejaVuSans-30" x="147.412109"/>
       <use xlink:href="#DejaVuSans-30" x="211.035156"/>
       <use xlink:href="#DejaVuSans-30" x="274.658203"/>
       <use xlink:href="#DejaVuSans-30" x="338.28125"/>
      </g>
     </g>
    </g>
    <g id="ytick_12">
     <g id="line2d_73">
      <path d="M 68.070312 573.067156 
L 993.430313 573.067156 
" clip-path="url(#pb996191baf)" style="fill: none; stroke: #b0b0b0; stroke-width: 0.8; stroke-linecap: square"/>
     </g>
     <g id="line2d_74">
      <g>
       <use xlink:href="#mecc313d9e0" x="68.070312" y="573.067156" style="stroke: #000000; stroke-width: 0.8"/>
      </g>
     </g>
     <g id="text_14">
      <!-- −40000 -->
      <g transform="translate(20.878125 576.866375) scale(0.1 -0.1)">
       <use xlink:href="#DejaVuSans-2212"/>
       <use xlink:href="#DejaVuSans-34" x="83.789062"/>
       <use xlink:href="#DejaVuSans-30" x="147.412109"/>
       <use xlink:href="#DejaVuSans-30" x="211.035156"/>
       <use xlink:href="#DejaVuSans-30" x="274.658203"/>
       <use xlink:href="#DejaVuSans-30" x="338.28125"/>
      </g>
     </g>
    </g>
    <g id="ytick_13">
     <g id="line2d_75">
      <path d="M 68.070312 545.461581 
L 993.430313 545.461581 
" clip-path="url(#pb996191baf)" style="fill: none; stroke: #b0b0b0; stroke-width: 0.8; stroke-linecap: square"/>
     </g>
     <g id="line2d_76">
      <g>
       <use xlink:href="#mecc313d9e0" x="68.070312" y="545.461581" style="stroke: #000000; stroke-width: 0.8"/>
      </g>
     </g>
     <g id="text_15">
      <!-- −30000 -->
      <g transform="translate(20.878125 549.260799) scale(0.1 -0.1)">
       <use xlink:href="#DejaVuSans-2212"/>
       <use xlink:href="#DejaVuSans-33" x="83.789062"/>
       <use xlink:href="#DejaVuSans-30" x="147.412109"/>
       <use xlink:href="#DejaVuSans-30" x="211.035156"/>
       <use xlink:href="#DejaVuSans-30" x="274.658203"/>
       <use xlink:href="#DejaVuSans-30" x="338.28125"/>
      </g>
     </g>
    </g>
    <g id="ytick_14">
     <g id="line2d_77">
      <path d="M 68.070312 517.856005 
L 993.430313 517.856005 
" clip-path="url(#pb996191baf)" style="fill: none; stroke: #b0b0b0; stroke-width: 0.8; stroke-linecap: square"/>
     </g>
     <g id="line2d_78">
      <g>
       <use xlink:href="#mecc313d9e0" x="68.070312" y="517.856005" style="stroke: #000000; stroke-width: 0.8"/>
      </g>
     </g>
     <g id="text_16">
      <!-- −20000 -->
      <g transform="translate(20.878125 521.655224) scale(0.1 -0.1)">
       <use xlink:href="#DejaVuSans-2212"/>
       <use xlink:href="#DejaVuSans-32" x="83.789062"/>
       <use xlink:href="#DejaVuSans-30" x="147.412109"/>
       <use xlink:href="#DejaVuSans-30" x="211.035156"/>
       <use xlink:href="#DejaVuSans-30" x="274.658203"/>
       <use xlink:href="#DejaVuSans-30" x="338.28125"/>
      </g>
     </g>
    </g>
    <g id="ytick_15">
     <g id="line2d_79">
      <path d="M 68.070312 490.25043 
L 993.430313 490.25043 
" clip-path="url(#pb996191baf)" style="fill: none; stroke: #b0b0b0; stroke-width: 0.8; stroke-linecap: square"/>
     </g>
     <g id="line2d_80">
      <g>
       <use xlink:href="#mecc313d9e0" x="68.070312" y="490.25043" style="stroke: #000000; stroke-width: 0.8"/>
      </g>
     </g>
     <g id="text_17">
      <!-- −10000 -->
      <g transform="translate(20.878125 494.049648) scale(0.1 -0.1)">
       <use xlink:href="#DejaVuSans-2212"/>
       <use xlink:href="#DejaVuSans-31" x="83.789062"/>
       <use xlink:href="#DejaVuSans-30" x="147.412109"/>
       <use xlink:href="#DejaVuSans-30" x="211.035156"/>
       <use xlink:href="#DejaVuSans-30" x="274.658203"/>
       <use xlink:href="#DejaVuSans-30" x="338.28125"/>
      </g>
     </g>
    </g>
    <g id="ytick_16">
     <g id="line2d_81">
      <path d="M 68.070312 462.644854 
L 993.430313 462.644854 
" clip-path="url(#pb996191baf)" style="fill: none; stroke: #b0b0b0; stroke-width: 0.8; stroke-linecap: square"/>
     </g>
     <g id="line2d_82">
      <g>
       <use xlink:href="#mecc313d9e0" x="68.070312" y="462.644854" style="stroke: #000000; stroke-width: 0.8"/>
      </g>
     </g>
     <g id="text_18">
      <!-- 0 -->
      <g transform="translate(54.707813 466.444073) scale(0.1 -0.1)">
       <use xlink:href="#DejaVuSans-30"/>
      </g>
     </g>
    </g>
    <g id="text_19">
     <!-- Summe Reward -->
     <g transform="translate(14.798437 575.368702) rotate(-90) scale(0.1 -0.1)">
      <defs>
       <path id="DejaVuSans-53" d="M 3425 4513 
L 3425 3897 
Q 3066 4069 2747 4153 
Q 2428 4238 2131 4238 
Q 1616 4238 1336 4038 
Q 1056 3838 1056 3469 
Q 1056 3159 1242 3001 
Q 1428 2844 1947 2747 
L 2328 2669 
Q 3034 2534 3370 2195 
Q 3706 1856 3706 1288 
Q 3706 609 3251 259 
Q 2797 -91 1919 -91 
Q 1588 -91 1214 -16 
Q 841 59 441 206 
L 441 856 
Q 825 641 1194 531 
Q 1563 422 1919 422 
Q 2459 422 2753 634 
Q 3047 847 3047 1241 
Q 3047 1584 2836 1778 
Q 2625 1972 2144 2069 
L 1759 2144 
Q 1053 2284 737 2584 
Q 422 2884 422 3419 
Q 422 4038 858 4394 
Q 1294 4750 2059 4750 
Q 2388 4750 2728 4690 
Q 3069 4631 3425 4513 
z
" transform="scale(0.015625)"/>
       <path id="DejaVuSans-6d" d="M 3328 2828 
Q 3544 3216 3844 3400 
Q 4144 3584 4550 3584 
Q 5097 3584 5394 3201 
Q 5691 2819 5691 2113 
L 5691 0 
L 5113 0 
L 5113 2094 
Q 5113 2597 4934 2840 
Q 4756 3084 4391 3084 
Q 3944 3084 3684 2787 
Q 3425 2491 3425 1978 
L 3425 0 
L 2847 0 
L 2847 2094 
Q 2847 2600 2669 2842 
Q 2491 3084 2119 3084 
Q 1678 3084 1418 2786 
Q 1159 2488 1159 1978 
L 1159 0 
L 581 0 
L 581 3500 
L 1159 3500 
L 1159 2956 
Q 1356 3278 1631 3431 
Q 1906 3584 2284 3584 
Q 2666 3584 2933 3390 
Q 3200 3197 3328 2828 
z
" transform="scale(0.015625)"/>
       <path id="DejaVuSans-52" d="M 2841 2188 
Q 3044 2119 3236 1894 
Q 3428 1669 3622 1275 
L 4263 0 
L 3584 0 
L 2988 1197 
Q 2756 1666 2539 1819 
Q 2322 1972 1947 1972 
L 1259 1972 
L 1259 0 
L 628 0 
L 628 4666 
L 2053 4666 
Q 2853 4666 3247 4331 
Q 3641 3997 3641 3322 
Q 3641 2881 3436 2590 
Q 3231 2300 2841 2188 
z
M 1259 4147 
L 1259 2491 
L 2053 2491 
Q 2509 2491 2742 2702 
Q 2975 2913 2975 3322 
Q 2975 3731 2742 3939 
Q 2509 4147 2053 4147 
L 1259 4147 
z
" transform="scale(0.015625)"/>
       <path id="DejaVuSans-77" d="M 269 3500 
L 844 3500 
L 1563 769 
L 2278 3500 
L 2956 3500 
L 3675 769 
L 4391 3500 
L 4966 3500 
L 4050 0 
L 3372 0 
L 2619 2869 
L 1863 0 
L 1184 0 
L 269 3500 
z
" transform="scale(0.015625)"/>
      </defs>
      <use xlink:href="#DejaVuSans-53"/>
      <use xlink:href="#DejaVuSans-75" x="63.476562"/>
      <use xlink:href="#DejaVuSans-6d" x="126.855469"/>
      <use xlink:href="#DejaVuSans-6d" x="224.267578"/>
      <use xlink:href="#DejaVuSans-65" x="321.679688"/>
      <use xlink:href="#DejaVuSans-20" x="383.203125"/>
      <use xlink:href="#DejaVuSans-52" x="414.990234"/>
      <use xlink:href="#DejaVuSans-65" x="479.972656"/>
      <use xlink:href="#DejaVuSans-77" x="541.496094"/>
      <use xlink:href="#DejaVuSans-61" x="623.283203"/>
      <use xlink:href="#DejaVuSans-72" x="684.5625"/>
      <use xlink:href="#DejaVuSans-64" x="723.925781"/>
     </g>
    </g>
   </g>
   <g id="line2d_83">
    <path d="M 110.132131 497.550724 
L 110.132131 537.519457 
L 116.228046 612.127665 
L 116.228046 501.968996 
L 122.323962 499.044186 
L 128.419878 463.235613 
L 134.515793 506.842761 
L 140.611709 498.693595 
L 274.721854 470.966555 
L 280.81777 474.974884 
L 286.913685 493.241494 
L 293.009601 471.848553 
L 299.105517 468.497236 
L 305.201432 485.701031 
L 311.297348 480.683717 
L 402.736083 469.987937 
L 408.831999 462.297024 
L 414.927915 489.033024 
L 421.02383 466.185269 
L 427.119746 498.055906 
L 433.215662 480.518084 
L 439.311577 459.869113 
L 914.793 530.329584 
L 920.888916 542.757615 
L 926.984832 504.686765 
L 933.080747 530.253669 
L 939.176663 518.779412 
L 945.272579 504.340315 
L 951.368494 500.870294 
" clip-path="url(#pb996191baf)" style="fill: none; stroke: #1f77b4; stroke-width: 1.5; stroke-linecap: square"/>
    <g clip-path="url(#pb996191baf)">
     <use xlink:href="#m3c72801a1b" x="110.132131" y="497.550724" style="fill: #1f77b4; stroke: #1f77b4"/>
     <use xlink:href="#m3c72801a1b" x="110.132131" y="537.519457" style="fill: #1f77b4; stroke: #1f77b4"/>
     <use xlink:href="#m3c72801a1b" x="116.228046" y="612.127665" style="fill: #1f77b4; stroke: #1f77b4"/>
     <use xlink:href="#m3c72801a1b" x="116.228046" y="501.968996" style="fill: #1f77b4; stroke: #1f77b4"/>
     <use xlink:href="#m3c72801a1b" x="122.323962" y="499.044186" style="fill: #1f77b4; stroke: #1f77b4"/>
     <use xlink:href="#m3c72801a1b" x="128.419878" y="463.235613" style="fill: #1f77b4; stroke: #1f77b4"/>
     <use xlink:href="#m3c72801a1b" x="134.515793" y="506.842761" style="fill: #1f77b4; stroke: #1f77b4"/>
     <use xlink:href="#m3c72801a1b" x="140.611709" y="498.693595" style="fill: #1f77b4; stroke: #1f77b4"/>
     <use xlink:href="#m3c72801a1b" x="274.721854" y="470.966555" style="fill: #1f77b4; stroke: #1f77b4"/>
     <use xlink:href="#m3c72801a1b" x="280.81777" y="474.974884" style="fill: #1f77b4; stroke: #1f77b4"/>
     <use xlink:href="#m3c72801a1b" x="286.913685" y="493.241494" style="fill: #1f77b4; stroke: #1f77b4"/>
     <use xlink:href="#m3c72801a1b" x="293.009601" y="471.848553" style="fill: #1f77b4; stroke: #1f77b4"/>
     <use xlink:href="#m3c72801a1b" x="299.105517" y="468.497236" style="fill: #1f77b4; stroke: #1f77b4"/>
     <use xlink:href="#m3c72801a1b" x="305.201432" y="485.701031" style="fill: #1f77b4; stroke: #1f77b4"/>
     <use xlink:href="#m3c72801a1b" x="311.297348" y="480.683717" style="fill: #1f77b4; stroke: #1f77b4"/>
     <use xlink:href="#m3c72801a1b" x="402.736083" y="469.987937" style="fill: #1f77b4; stroke: #1f77b4"/>
     <use xlink:href="#m3c72801a1b" x="408.831999" y="462.297024" style="fill: #1f77b4; stroke: #1f77b4"/>
     <use xlink:href="#m3c72801a1b" x="414.927915" y="489.033024" style="fill: #1f77b4; stroke: #1f77b4"/>
     <use xlink:href="#m3c72801a1b" x="421.02383" y="466.185269" style="fill: #1f77b4; stroke: #1f77b4"/>
     <use xlink:href="#m3c72801a1b" x="427.119746" y="498.055906" style="fill: #1f77b4; stroke: #1f77b4"/>
     <use xlink:href="#m3c72801a1b" x="433.215662" y="480.518084" style="fill: #1f77b4; stroke: #1f77b4"/>
     <use xlink:href="#m3c72801a1b" x="439.311577" y="459.869113" style="fill: #1f77b4; stroke: #1f77b4"/>
     <use xlink:href="#m3c72801a1b" x="914.793" y="530.329584" style="fill: #1f77b4; stroke: #1f77b4"/>
     <use xlink:href="#m3c72801a1b" x="920.888916" y="542.757615" style="fill: #1f77b4; stroke: #1f77b4"/>
     <use xlink:href="#m3c72801a1b" x="926.984832" y="504.686765" style="fill: #1f77b4; stroke: #1f77b4"/>
     <use xlink:href="#m3c72801a1b" x="933.080747" y="530.253669" style="fill: #1f77b4; stroke: #1f77b4"/>
     <use xlink:href="#m3c72801a1b" x="939.176663" y="518.779412" style="fill: #1f77b4; stroke: #1f77b4"/>
     <use xlink:href="#m3c72801a1b" x="945.272579" y="504.340315" style="fill: #1f77b4; stroke: #1f77b4"/>
     <use xlink:href="#m3c72801a1b" x="951.368494" y="500.870294" style="fill: #1f77b4; stroke: #1f77b4"/>
    </g>
   </g>
   <g id="patch_13">
    <path d="M 68.070312 619.740593 
L 68.070312 452.256186 
" style="fill: none; stroke: #000000; stroke-width: 0.8; stroke-linejoin: miter; stroke-linecap: square"/>
   </g>
   <g id="patch_14">
    <path d="M 993.430313 619.740593 
L 993.430313 452.256186 
" style="fill: none; stroke: #000000; stroke-width: 0.8; stroke-linejoin: miter; stroke-linecap: square"/>
   </g>
   <g id="patch_15">
    <path d="M 68.070312 619.740593 
L 993.430313 619.740593 
" style="fill: none; stroke: #000000; stroke-width: 0.8; stroke-linejoin: miter; stroke-linecap: square"/>
   </g>
   <g id="patch_16">
    <path d="M 68.070312 452.256186 
L 993.430313 452.256186 
" style="fill: none; stroke: #000000; stroke-width: 0.8; stroke-linejoin: miter; stroke-linecap: square"/>
   </g>
  </g>
  <g id="axes_4">
   <g id="patch_17">
    <path d="M 68.070312 801.525 
L 993.430313 801.525 
L 993.430313 634.040593 
L 68.070312 634.040593 
z
" style="fill: #ffffff"/>
   </g>
   <g id="matplotlib.axis_7">
    <g id="xtick_25">
     <g id="line2d_84">
      <path d="M 104.036215 801.525 
L 104.036215 634.040593 
" clip-path="url(#p5ee351f613)" style="fill: none; stroke: #b0b0b0; stroke-width: 0.8; stroke-linecap: square"/>
     </g>
     <g id="line2d_85">
      <g>
       <use xlink:href="#mf49f4245f4" x="104.036215" y="801.525" style="stroke: #000000; stroke-width: 0.8"/>
      </g>
     </g>
     <g id="text_20">
      <!-- 0 -->
      <g transform="translate(100.854965 816.123438) scale(0.1 -0.1)">
       <use xlink:href="#DejaVuSans-30"/>
      </g>
     </g>
    </g>
    <g id="xtick_26">
     <g id="line2d_86">
      <path d="M 225.954529 801.525 
L 225.954529 634.040593 
" clip-path="url(#p5ee351f613)" style="fill: none; stroke: #b0b0b0; stroke-width: 0.8; stroke-linecap: square"/>
     </g>
     <g id="line2d_87">
      <g>
       <use xlink:href="#mf49f4245f4" x="225.954529" y="801.525" style="stroke: #000000; stroke-width: 0.8"/>
      </g>
     </g>
     <g id="text_21">
      <!-- 20 -->
      <g transform="translate(219.592029 816.123438) scale(0.1 -0.1)">
       <use xlink:href="#DejaVuSans-32"/>
       <use xlink:href="#DejaVuSans-30" x="63.623047"/>
      </g>
     </g>
    </g>
    <g id="xtick_27">
     <g id="line2d_88">
      <path d="M 347.872842 801.525 
L 347.872842 634.040593 
" clip-path="url(#p5ee351f613)" style="fill: none; stroke: #b0b0b0; stroke-width: 0.8; stroke-linecap: square"/>
     </g>
     <g id="line2d_89">
      <g>
       <use xlink:href="#mf49f4245f4" x="347.872842" y="801.525" style="stroke: #000000; stroke-width: 0.8"/>
      </g>
     </g>
     <g id="text_22">
      <!-- 40 -->
      <g transform="translate(341.510342 816.123438) scale(0.1 -0.1)">
       <use xlink:href="#DejaVuSans-34"/>
       <use xlink:href="#DejaVuSans-30" x="63.623047"/>
      </g>
     </g>
    </g>
    <g id="xtick_28">
     <g id="line2d_90">
      <path d="M 469.791156 801.525 
L 469.791156 634.040593 
" clip-path="url(#p5ee351f613)" style="fill: none; stroke: #b0b0b0; stroke-width: 0.8; stroke-linecap: square"/>
     </g>
     <g id="line2d_91">
      <g>
       <use xlink:href="#mf49f4245f4" x="469.791156" y="801.525" style="stroke: #000000; stroke-width: 0.8"/>
      </g>
     </g>
     <g id="text_23">
      <!-- 60 -->
      <g transform="translate(463.428656 816.123438) scale(0.1 -0.1)">
       <defs>
        <path id="DejaVuSans-36" d="M 2113 2584 
Q 1688 2584 1439 2293 
Q 1191 2003 1191 1497 
Q 1191 994 1439 701 
Q 1688 409 2113 409 
Q 2538 409 2786 701 
Q 3034 994 3034 1497 
Q 3034 2003 2786 2293 
Q 2538 2584 2113 2584 
z
M 3366 4563 
L 3366 3988 
Q 3128 4100 2886 4159 
Q 2644 4219 2406 4219 
Q 1781 4219 1451 3797 
Q 1122 3375 1075 2522 
Q 1259 2794 1537 2939 
Q 1816 3084 2150 3084 
Q 2853 3084 3261 2657 
Q 3669 2231 3669 1497 
Q 3669 778 3244 343 
Q 2819 -91 2113 -91 
Q 1303 -91 875 529 
Q 447 1150 447 2328 
Q 447 3434 972 4092 
Q 1497 4750 2381 4750 
Q 2619 4750 2861 4703 
Q 3103 4656 3366 4563 
z
" transform="scale(0.015625)"/>
       </defs>
       <use xlink:href="#DejaVuSans-36"/>
       <use xlink:href="#DejaVuSans-30" x="63.623047"/>
      </g>
     </g>
    </g>
    <g id="xtick_29">
     <g id="line2d_92">
      <path d="M 591.709469 801.525 
L 591.709469 634.040593 
" clip-path="url(#p5ee351f613)" style="fill: none; stroke: #b0b0b0; stroke-width: 0.8; stroke-linecap: square"/>
     </g>
     <g id="line2d_93">
      <g>
       <use xlink:href="#mf49f4245f4" x="591.709469" y="801.525" style="stroke: #000000; stroke-width: 0.8"/>
      </g>
     </g>
     <g id="text_24">
      <!-- 80 -->
      <g transform="translate(585.346969 816.123438) scale(0.1 -0.1)">
       <defs>
        <path id="DejaVuSans-38" d="M 2034 2216 
Q 1584 2216 1326 1975 
Q 1069 1734 1069 1313 
Q 1069 891 1326 650 
Q 1584 409 2034 409 
Q 2484 409 2743 651 
Q 3003 894 3003 1313 
Q 3003 1734 2745 1975 
Q 2488 2216 2034 2216 
z
M 1403 2484 
Q 997 2584 770 2862 
Q 544 3141 544 3541 
Q 544 4100 942 4425 
Q 1341 4750 2034 4750 
Q 2731 4750 3128 4425 
Q 3525 4100 3525 3541 
Q 3525 3141 3298 2862 
Q 3072 2584 2669 2484 
Q 3125 2378 3379 2068 
Q 3634 1759 3634 1313 
Q 3634 634 3220 271 
Q 2806 -91 2034 -91 
Q 1263 -91 848 271 
Q 434 634 434 1313 
Q 434 1759 690 2068 
Q 947 2378 1403 2484 
z
M 1172 3481 
Q 1172 3119 1398 2916 
Q 1625 2713 2034 2713 
Q 2441 2713 2670 2916 
Q 2900 3119 2900 3481 
Q 2900 3844 2670 4047 
Q 2441 4250 2034 4250 
Q 1625 4250 1398 4047 
Q 1172 3844 1172 3481 
z
" transform="scale(0.015625)"/>
       </defs>
       <use xlink:href="#DejaVuSans-38"/>
       <use xlink:href="#DejaVuSans-30" x="63.623047"/>
      </g>
     </g>
    </g>
    <g id="xtick_30">
     <g id="line2d_94">
      <path d="M 713.627783 801.525 
L 713.627783 634.040593 
" clip-path="url(#p5ee351f613)" style="fill: none; stroke: #b0b0b0; stroke-width: 0.8; stroke-linecap: square"/>
     </g>
     <g id="line2d_95">
      <g>
       <use xlink:href="#mf49f4245f4" x="713.627783" y="801.525" style="stroke: #000000; stroke-width: 0.8"/>
      </g>
     </g>
     <g id="text_25">
      <!-- 100 -->
      <g transform="translate(704.084033 816.123438) scale(0.1 -0.1)">
       <use xlink:href="#DejaVuSans-31"/>
       <use xlink:href="#DejaVuSans-30" x="63.623047"/>
       <use xlink:href="#DejaVuSans-30" x="127.246094"/>
      </g>
     </g>
    </g>
    <g id="xtick_31">
     <g id="line2d_96">
      <path d="M 835.546096 801.525 
L 835.546096 634.040593 
" clip-path="url(#p5ee351f613)" style="fill: none; stroke: #b0b0b0; stroke-width: 0.8; stroke-linecap: square"/>
     </g>
     <g id="line2d_97">
      <g>
       <use xlink:href="#mf49f4245f4" x="835.546096" y="801.525" style="stroke: #000000; stroke-width: 0.8"/>
      </g>
     </g>
     <g id="text_26">
      <!-- 120 -->
      <g transform="translate(826.002346 816.123438) scale(0.1 -0.1)">
       <use xlink:href="#DejaVuSans-31"/>
       <use xlink:href="#DejaVuSans-32" x="63.623047"/>
       <use xlink:href="#DejaVuSans-30" x="127.246094"/>
      </g>
     </g>
    </g>
    <g id="xtick_32">
     <g id="line2d_98">
      <path d="M 957.46441 801.525 
L 957.46441 634.040593 
" clip-path="url(#p5ee351f613)" style="fill: none; stroke: #b0b0b0; stroke-width: 0.8; stroke-linecap: square"/>
     </g>
     <g id="line2d_99">
      <g>
       <use xlink:href="#mf49f4245f4" x="957.46441" y="801.525" style="stroke: #000000; stroke-width: 0.8"/>
      </g>
     </g>
     <g id="text_27">
      <!-- 140 -->
      <g transform="translate(947.92066 816.123438) scale(0.1 -0.1)">
       <use xlink:href="#DejaVuSans-31"/>
       <use xlink:href="#DejaVuSans-34" x="63.623047"/>
       <use xlink:href="#DejaVuSans-30" x="127.246094"/>
      </g>
     </g>
    </g>
    <g id="text_28">
     <!-- Runde -->
     <g transform="translate(514.912813 829.801563) scale(0.1 -0.1)">
      <use xlink:href="#DejaVuSans-52"/>
      <use xlink:href="#DejaVuSans-75" x="64.982422"/>
      <use xlink:href="#DejaVuSans-6e" x="128.361328"/>
      <use xlink:href="#DejaVuSans-64" x="191.740234"/>
      <use xlink:href="#DejaVuSans-65" x="255.216797"/>
     </g>
    </g>
   </g>
   <g id="matplotlib.axis_8">
    <g id="ytick_17">
     <g id="line2d_100">
      <path d="M 68.070312 796.318822 
L 993.430313 796.318822 
" clip-path="url(#p5ee351f613)" style="fill: none; stroke: #b0b0b0; stroke-width: 0.8; stroke-linecap: square"/>
     </g>
     <g id="line2d_101">
      <g>
       <use xlink:href="#mecc313d9e0" x="68.070312" y="796.318822" style="stroke: #000000; stroke-width: 0.8"/>
      </g>
     </g>
     <g id="text_29">
      <!-- 285 -->
      <g transform="translate(41.982812 800.11804) scale(0.1 -0.1)">
       <use xlink:href="#DejaVuSans-32"/>
       <use xlink:href="#DejaVuSans-38" x="63.623047"/>
       <use xlink:href="#DejaVuSans-35" x="127.246094"/>
      </g>
     </g>
    </g>
    <g id="ytick_18">
     <g id="line2d_102">
      <path d="M 68.070312 770.98462 
L 993.430313 770.98462 
" clip-path="url(#p5ee351f613)" style="fill: none; stroke: #b0b0b0; stroke-width: 0.8; stroke-linecap: square"/>
     </g>
     <g id="line2d_103">
      <g>
       <use xlink:href="#mecc313d9e0" x="68.070312" y="770.98462" style="stroke: #000000; stroke-width: 0.8"/>
      </g>
     </g>
     <g id="text_30">
      <!-- 290 -->
      <g transform="translate(41.982812 774.783839) scale(0.1 -0.1)">
       <defs>
        <path id="DejaVuSans-39" d="M 703 97 
L 703 672 
Q 941 559 1184 500 
Q 1428 441 1663 441 
Q 2288 441 2617 861 
Q 2947 1281 2994 2138 
Q 2813 1869 2534 1725 
Q 2256 1581 1919 1581 
Q 1219 1581 811 2004 
Q 403 2428 403 3163 
Q 403 3881 828 4315 
Q 1253 4750 1959 4750 
Q 2769 4750 3195 4129 
Q 3622 3509 3622 2328 
Q 3622 1225 3098 567 
Q 2575 -91 1691 -91 
Q 1453 -91 1209 -44 
Q 966 3 703 97 
z
M 1959 2075 
Q 2384 2075 2632 2365 
Q 2881 2656 2881 3163 
Q 2881 3666 2632 3958 
Q 2384 4250 1959 4250 
Q 1534 4250 1286 3958 
Q 1038 3666 1038 3163 
Q 1038 2656 1286 2365 
Q 1534 2075 1959 2075 
z
" transform="scale(0.015625)"/>
       </defs>
       <use xlink:href="#DejaVuSans-32"/>
       <use xlink:href="#DejaVuSans-39" x="63.623047"/>
       <use xlink:href="#DejaVuSans-30" x="127.246094"/>
      </g>
     </g>
    </g>
    <g id="ytick_19">
     <g id="line2d_104">
      <path d="M 68.070312 745.650418 
L 993.430313 745.650418 
" clip-path="url(#p5ee351f613)" style="fill: none; stroke: #b0b0b0; stroke-width: 0.8; stroke-linecap: square"/>
     </g>
     <g id="line2d_105">
      <g>
       <use xlink:href="#mecc313d9e0" x="68.070312" y="745.650418" style="stroke: #000000; stroke-width: 0.8"/>
      </g>
     </g>
     <g id="text_31">
      <!-- 295 -->
      <g transform="translate(41.982812 749.449637) scale(0.1 -0.1)">
       <use xlink:href="#DejaVuSans-32"/>
       <use xlink:href="#DejaVuSans-39" x="63.623047"/>
       <use xlink:href="#DejaVuSans-35" x="127.246094"/>
      </g>
     </g>
    </g>
    <g id="ytick_20">
     <g id="line2d_106">
      <path d="M 68.070312 720.316217 
L 993.430313 720.316217 
" clip-path="url(#p5ee351f613)" style="fill: none; stroke: #b0b0b0; stroke-width: 0.8; stroke-linecap: square"/>
     </g>
     <g id="line2d_107">
      <g>
       <use xlink:href="#mecc313d9e0" x="68.070312" y="720.316217" style="stroke: #000000; stroke-width: 0.8"/>
      </g>
     </g>
     <g id="text_32">
      <!-- 300 -->
      <g transform="translate(41.982812 724.115435) scale(0.1 -0.1)">
       <use xlink:href="#DejaVuSans-33"/>
       <use xlink:href="#DejaVuSans-30" x="63.623047"/>
       <use xlink:href="#DejaVuSans-30" x="127.246094"/>
      </g>
     </g>
    </g>
    <g id="ytick_21">
     <g id="line2d_108">
      <path d="M 68.070312 694.982015 
L 993.430313 694.982015 
" clip-path="url(#p5ee351f613)" style="fill: none; stroke: #b0b0b0; stroke-width: 0.8; stroke-linecap: square"/>
     </g>
     <g id="line2d_109">
      <g>
       <use xlink:href="#mecc313d9e0" x="68.070312" y="694.982015" style="stroke: #000000; stroke-width: 0.8"/>
      </g>
     </g>
     <g id="text_33">
      <!-- 305 -->
      <g transform="translate(41.982812 698.781234) scale(0.1 -0.1)">
       <use xlink:href="#DejaVuSans-33"/>
       <use xlink:href="#DejaVuSans-30" x="63.623047"/>
       <use xlink:href="#DejaVuSans-35" x="127.246094"/>
      </g>
     </g>
    </g>
    <g id="ytick_22">
     <g id="line2d_110">
      <path d="M 68.070312 669.647813 
L 993.430313 669.647813 
" clip-path="url(#p5ee351f613)" style="fill: none; stroke: #b0b0b0; stroke-width: 0.8; stroke-linecap: square"/>
     </g>
     <g id="line2d_111">
      <g>
       <use xlink:href="#mecc313d9e0" x="68.070312" y="669.647813" style="stroke: #000000; stroke-width: 0.8"/>
      </g>
     </g>
     <g id="text_34">
      <!-- 310 -->
      <g transform="translate(41.982812 673.447032) scale(0.1 -0.1)">
       <use xlink:href="#DejaVuSans-33"/>
       <use xlink:href="#DejaVuSans-31" x="63.623047"/>
       <use xlink:href="#DejaVuSans-30" x="127.246094"/>
      </g>
     </g>
    </g>
    <g id="ytick_23">
     <g id="line2d_112">
      <path d="M 68.070312 644.313612 
L 993.430313 644.313612 
" clip-path="url(#p5ee351f613)" style="fill: none; stroke: #b0b0b0; stroke-width: 0.8; stroke-linecap: square"/>
     </g>
     <g id="line2d_113">
      <g>
       <use xlink:href="#mecc313d9e0" x="68.070312" y="644.313612" style="stroke: #000000; stroke-width: 0.8"/>
      </g>
     </g>
     <g id="text_35">
      <!-- 315 -->
      <g transform="translate(41.982812 648.11283) scale(0.1 -0.1)">
       <use xlink:href="#DejaVuSans-33"/>
       <use xlink:href="#DejaVuSans-31" x="63.623047"/>
       <use xlink:href="#DejaVuSans-35" x="127.246094"/>
      </g>
     </g>
    </g>
    <g id="text_36">
     <!-- Flugzeit der Runde -->
     <g transform="translate(35.903125 764.762484) rotate(-90) scale(0.1 -0.1)">
      <defs>
       <path id="DejaVuSans-46" d="M 628 4666 
L 3309 4666 
L 3309 4134 
L 1259 4134 
L 1259 2759 
L 3109 2759 
L 3109 2228 
L 1259 2228 
L 1259 0 
L 628 0 
L 628 4666 
z
" transform="scale(0.015625)"/>
       <path id="DejaVuSans-6c" d="M 603 4863 
L 1178 4863 
L 1178 0 
L 603 0 
L 603 4863 
z
" transform="scale(0.015625)"/>
       <path id="DejaVuSans-7a" d="M 353 3500 
L 3084 3500 
L 3084 2975 
L 922 459 
L 3084 459 
L 3084 0 
L 275 0 
L 275 525 
L 2438 3041 
L 353 3041 
L 353 3500 
z
" transform="scale(0.015625)"/>
       <path id="DejaVuSans-69" d="M 603 3500 
L 1178 3500 
L 1178 0 
L 603 0 
L 603 3500 
z
M 603 4863 
L 1178 4863 
L 1178 4134 
L 603 4134 
L 603 4863 
z
" transform="scale(0.015625)"/>
      </defs>
      <use xlink:href="#DejaVuSans-46"/>
      <use xlink:href="#DejaVuSans-6c" x="57.519531"/>
      <use xlink:href="#DejaVuSans-75" x="85.302734"/>
      <use xlink:href="#DejaVuSans-67" x="148.681641"/>
      <use xlink:href="#DejaVuSans-7a" x="212.158203"/>
      <use xlink:href="#DejaVuSans-65" x="264.648438"/>
      <use xlink:href="#DejaVuSans-69" x="326.171875"/>
      <use xlink:href="#DejaVuSans-74" x="353.955078"/>
      <use xlink:href="#DejaVuSans-20" x="393.164062"/>
      <use xlink:href="#DejaVuSans-64" x="424.951172"/>
      <use xlink:href="#DejaVuSans-65" x="488.427734"/>
      <use xlink:href="#DejaVuSans-72" x="549.951172"/>
      <use xlink:href="#DejaVuSans-20" x="591.064453"/>
      <use xlink:href="#DejaVuSans-52" x="622.851562"/>
      <use xlink:href="#DejaVuSans-75" x="687.833984"/>
      <use xlink:href="#DejaVuSans-6e" x="751.212891"/>
      <use xlink:href="#DejaVuSans-64" x="814.591797"/>
      <use xlink:href="#DejaVuSans-65" x="878.068359"/>
     </g>
    </g>
   </g>
   <g id="line2d_114">
    <path d="M 110.132131 717.782796 
L 110.132131 717.782796 
L 116.228046 717.782796 
L 116.228046 717.782796 
L 122.323962 717.782796 
L 128.419878 717.782796 
L 134.515793 717.782796 
L 140.611709 717.782796 
L 274.721854 717.782796 
L 280.81777 717.782796 
L 286.913685 717.782796 
L 293.009601 717.782796 
L 299.105517 717.782796 
L 305.201432 717.782796 
L 311.297348 717.782796 
L 402.736083 717.782796 
L 408.831999 717.782796 
L 414.927915 717.782796 
L 421.02383 717.782796 
L 427.119746 717.782796 
L 433.215662 717.782796 
L 439.311577 717.782796 
L 914.793 717.782796 
L 920.888916 717.782796 
L 926.984832 717.782796 
L 933.080747 717.782796 
L 939.176663 717.782796 
L 945.272579 717.782796 
L 951.368494 717.782796 
" clip-path="url(#p5ee351f613)" style="fill: none; stroke: #1f77b4; stroke-width: 1.5; stroke-linecap: square"/>
    <g clip-path="url(#p5ee351f613)">
     <use xlink:href="#m3c72801a1b" x="110.132131" y="717.782796" style="fill: #1f77b4; stroke: #1f77b4"/>
     <use xlink:href="#m3c72801a1b" x="110.132131" y="717.782796" style="fill: #1f77b4; stroke: #1f77b4"/>
     <use xlink:href="#m3c72801a1b" x="116.228046" y="717.782796" style="fill: #1f77b4; stroke: #1f77b4"/>
     <use xlink:href="#m3c72801a1b" x="116.228046" y="717.782796" style="fill: #1f77b4; stroke: #1f77b4"/>
     <use xlink:href="#m3c72801a1b" x="122.323962" y="717.782796" style="fill: #1f77b4; stroke: #1f77b4"/>
     <use xlink:href="#m3c72801a1b" x="128.419878" y="717.782796" style="fill: #1f77b4; stroke: #1f77b4"/>
     <use xlink:href="#m3c72801a1b" x="134.515793" y="717.782796" style="fill: #1f77b4; stroke: #1f77b4"/>
     <use xlink:href="#m3c72801a1b" x="140.611709" y="717.782796" style="fill: #1f77b4; stroke: #1f77b4"/>
     <use xlink:href="#m3c72801a1b" x="274.721854" y="717.782796" style="fill: #1f77b4; stroke: #1f77b4"/>
     <use xlink:href="#m3c72801a1b" x="280.81777" y="717.782796" style="fill: #1f77b4; stroke: #1f77b4"/>
     <use xlink:href="#m3c72801a1b" x="286.913685" y="717.782796" style="fill: #1f77b4; stroke: #1f77b4"/>
     <use xlink:href="#m3c72801a1b" x="293.009601" y="717.782796" style="fill: #1f77b4; stroke: #1f77b4"/>
     <use xlink:href="#m3c72801a1b" x="299.105517" y="717.782796" style="fill: #1f77b4; stroke: #1f77b4"/>
     <use xlink:href="#m3c72801a1b" x="305.201432" y="717.782796" style="fill: #1f77b4; stroke: #1f77b4"/>
     <use xlink:href="#m3c72801a1b" x="311.297348" y="717.782796" style="fill: #1f77b4; stroke: #1f77b4"/>
     <use xlink:href="#m3c72801a1b" x="402.736083" y="717.782796" style="fill: #1f77b4; stroke: #1f77b4"/>
     <use xlink:href="#m3c72801a1b" x="408.831999" y="717.782796" style="fill: #1f77b4; stroke: #1f77b4"/>
     <use xlink:href="#m3c72801a1b" x="414.927915" y="717.782796" style="fill: #1f77b4; stroke: #1f77b4"/>
     <use xlink:href="#m3c72801a1b" x="421.02383" y="717.782796" style="fill: #1f77b4; stroke: #1f77b4"/>
     <use xlink:href="#m3c72801a1b" x="427.119746" y="717.782796" style="fill: #1f77b4; stroke: #1f77b4"/>
     <use xlink:href="#m3c72801a1b" x="433.215662" y="717.782796" style="fill: #1f77b4; stroke: #1f77b4"/>
     <use xlink:href="#m3c72801a1b" x="439.311577" y="717.782796" style="fill: #1f77b4; stroke: #1f77b4"/>
     <use xlink:href="#m3c72801a1b" x="914.793" y="717.782796" style="fill: #1f77b4; stroke: #1f77b4"/>
     <use xlink:href="#m3c72801a1b" x="920.888916" y="717.782796" style="fill: #1f77b4; stroke: #1f77b4"/>
     <use xlink:href="#m3c72801a1b" x="926.984832" y="717.782796" style="fill: #1f77b4; stroke: #1f77b4"/>
     <use xlink:href="#m3c72801a1b" x="933.080747" y="717.782796" style="fill: #1f77b4; stroke: #1f77b4"/>
     <use xlink:href="#m3c72801a1b" x="939.176663" y="717.782796" style="fill: #1f77b4; stroke: #1f77b4"/>
     <use xlink:href="#m3c72801a1b" x="945.272579" y="717.782796" style="fill: #1f77b4; stroke: #1f77b4"/>
     <use xlink:href="#m3c72801a1b" x="951.368494" y="717.782796" style="fill: #1f77b4; stroke: #1f77b4"/>
    </g>
   </g>
   <g id="patch_18">
    <path d="M 68.070312 801.525 
L 68.070312 634.040593 
" style="fill: none; stroke: #000000; stroke-width: 0.8; stroke-linejoin: miter; stroke-linecap: square"/>
   </g>
   <g id="patch_19">
    <path d="M 993.430313 801.525 
L 993.430313 634.040593 
" style="fill: none; stroke: #000000; stroke-width: 0.8; stroke-linejoin: miter; stroke-linecap: square"/>
   </g>
   <g id="patch_20">
    <path d="M 68.070312 801.525 
L 993.430313 801.525 
" style="fill: none; stroke: #000000; stroke-width: 0.8; stroke-linejoin: miter; stroke-linecap: square"/>
   </g>
   <g id="patch_21">
    <path d="M 68.070312 634.040593 
L 993.430313 634.040593 
" style="fill: none; stroke: #000000; stroke-width: 0.8; stroke-linejoin: miter; stroke-linecap: square"/>
   </g>
  </g>
  <g id="text_37">
   <!-- Auswertung über Runden - Maze 22 -->
   <g transform="translate(356.936563 19.3575) scale(0.16 -0.16)">
    <defs>
     <path id="DejaVuSans-73" d="M 2834 3397 
L 2834 2853 
Q 2591 2978 2328 3040 
Q 2066 3103 1784 3103 
Q 1356 3103 1142 2972 
Q 928 2841 928 2578 
Q 928 2378 1081 2264 
Q 1234 2150 1697 2047 
L 1894 2003 
Q 2506 1872 2764 1633 
Q 3022 1394 3022 966 
Q 3022 478 2636 193 
Q 2250 -91 1575 -91 
Q 1294 -91 989 -36 
Q 684 19 347 128 
L 347 722 
Q 666 556 975 473 
Q 1284 391 1588 391 
Q 1994 391 2212 530 
Q 2431 669 2431 922 
Q 2431 1156 2273 1281 
Q 2116 1406 1581 1522 
L 1381 1569 
Q 847 1681 609 1914 
Q 372 2147 372 2553 
Q 372 3047 722 3315 
Q 1072 3584 1716 3584 
Q 2034 3584 2315 3537 
Q 2597 3491 2834 3397 
z
" transform="scale(0.015625)"/>
    </defs>
    <use xlink:href="#DejaVuSans-41"/>
    <use xlink:href="#DejaVuSans-75" x="68.408203"/>
    <use xlink:href="#DejaVuSans-73" x="131.787109"/>
    <use xlink:href="#DejaVuSans-77" x="183.886719"/>
    <use xlink:href="#DejaVuSans-65" x="265.673828"/>
    <use xlink:href="#DejaVuSans-72" x="327.197266"/>
    <use xlink:href="#DejaVuSans-74" x="368.310547"/>
    <use xlink:href="#DejaVuSans-75" x="407.519531"/>
    <use xlink:href="#DejaVuSans-6e" x="470.898438"/>
    <use xlink:href="#DejaVuSans-67" x="534.277344"/>
    <use xlink:href="#DejaVuSans-20" x="597.753906"/>
    <use xlink:href="#DejaVuSans-fc" x="629.541016"/>
    <use xlink:href="#DejaVuSans-62" x="692.919922"/>
    <use xlink:href="#DejaVuSans-65" x="756.396484"/>
    <use xlink:href="#DejaVuSans-72" x="817.919922"/>
    <use xlink:href="#DejaVuSans-20" x="859.033203"/>
    <use xlink:href="#DejaVuSans-52" x="890.820312"/>
    <use xlink:href="#DejaVuSans-75" x="955.802734"/>
    <use xlink:href="#DejaVuSans-6e" x="1019.181641"/>
    <use xlink:href="#DejaVuSans-64" x="1082.560547"/>
    <use xlink:href="#DejaVuSans-65" x="1146.037109"/>
    <use xlink:href="#DejaVuSans-6e" x="1207.560547"/>
    <use xlink:href="#DejaVuSans-20" x="1270.939453"/>
    <use xlink:href="#DejaVuSans-2d" x="1302.726562"/>
    <use xlink:href="#DejaVuSans-20" x="1338.810547"/>
    <use xlink:href="#DejaVuSans-4d" x="1370.597656"/>
    <use xlink:href="#DejaVuSans-61" x="1456.876953"/>
    <use xlink:href="#DejaVuSans-7a" x="1518.15625"/>
    <use xlink:href="#DejaVuSans-65" x="1570.646484"/>
    <use xlink:href="#DejaVuSans-20" x="1632.169922"/>
    <use xlink:href="#DejaVuSans-32" x="1663.957031"/>
    <use xlink:href="#DejaVuSans-32" x="1727.580078"/>
   </g>
  </g>
  <g id="text_38">
   <!-- M3_R6_O8_A2_TR1_T1_20250412-134724.csv -->
   <g transform="translate(362.160938 57.51125) scale(0.12 -0.12)">
    <defs>
     <path id="DejaVuSans-Oblique-4d" d="M 1081 4666 
L 2028 4666 
L 2572 1522 
L 4378 4666 
L 5350 4666 
L 4441 0 
L 3828 0 
L 4622 4091 
L 2791 897 
L 2175 897 
L 1581 4103 
L 788 0 
L 172 0 
L 1081 4666 
z
" transform="scale(0.015625)"/>
     <path id="DejaVuSans-Oblique-33" d="M 1013 4550 
Q 1356 4650 1679 4700 
Q 2003 4750 2316 4750 
Q 2934 4750 3296 4475 
Q 3659 4200 3659 3738 
Q 3659 3284 3373 2959 
Q 3088 2634 2584 2516 
Q 2978 2403 3162 2165 
Q 3347 1928 3347 1538 
Q 3347 1163 3167 834 
Q 2988 506 2650 269 
Q 2394 88 2037 -1 
Q 1681 -91 1216 -91 
Q 922 -91 622 -33 
Q 322 25 13 141 
L 128 738 
Q 422 575 720 495 
Q 1019 416 1331 416 
Q 1947 416 2330 733 
Q 2713 1050 2713 1556 
Q 2713 1881 2469 2057 
Q 2225 2234 1772 2234 
L 1228 2234 
L 1325 2747 
L 1900 2747 
Q 2419 2747 2717 2984 
Q 3016 3222 3016 3628 
Q 3016 3922 2797 4083 
Q 2578 4244 2181 4244 
Q 1881 4244 1567 4180 
Q 1253 4116 916 3988 
L 1013 4550 
z
" transform="scale(0.015625)"/>
     <path id="DejaVuSans-Oblique-5f" d="M 3263 -1063 
L 3263 -1509 
L -63 -1509 
L -63 -1063 
L 3263 -1063 
z
" transform="scale(0.015625)"/>
     <path id="DejaVuSans-Oblique-52" d="M 1613 4147 
L 1294 2491 
L 2106 2491 
Q 2584 2491 2879 2755 
Q 3175 3019 3175 3444 
Q 3175 3784 2976 3965 
Q 2778 4147 2406 4147 
L 1613 4147 
z
M 2772 2241 
Q 2972 2194 3105 2009 
Q 3238 1825 3413 1275 
L 3809 0 
L 3144 0 
L 2778 1197 
Q 2638 1659 2453 1815 
Q 2269 1972 1888 1972 
L 1191 1972 
L 806 0 
L 172 0 
L 1081 4666 
L 2503 4666 
Q 3150 4666 3495 4373 
Q 3841 4081 3841 3531 
Q 3841 3044 3547 2687 
Q 3253 2331 2772 2241 
z
" transform="scale(0.015625)"/>
     <path id="DejaVuSans-Oblique-36" d="M 2938 1728 
Q 2938 2125 2734 2354 
Q 2531 2584 2181 2584 
Q 1697 2584 1367 2211 
Q 1038 1838 1038 1288 
Q 1038 875 1239 642 
Q 1441 409 1797 409 
Q 2284 409 2611 792 
Q 2938 1175 2938 1728 
z
M 3788 4556 
L 3681 3981 
Q 3500 4100 3265 4162 
Q 3031 4225 2766 4225 
Q 2119 4225 1726 3819 
Q 1334 3413 1141 2547 
Q 1369 2813 1670 2948 
Q 1972 3084 2322 3084 
Q 2894 3084 3233 2754 
Q 3572 2425 3572 1869 
Q 3572 1413 3405 1020 
Q 3238 628 2919 331 
Q 2700 128 2409 18 
Q 2119 -91 1791 -91 
Q 1147 -91 775 318 
Q 403 728 403 1441 
Q 403 2103 573 2717 
Q 744 3331 1050 3781 
Q 1372 4256 1830 4503 
Q 2288 4750 2841 4750 
Q 3084 4750 3321 4701 
Q 3559 4653 3788 4556 
z
" transform="scale(0.015625)"/>
     <path id="DejaVuSans-Oblique-4f" d="M 2919 4238 
Q 2400 4238 2003 3986 
Q 1606 3734 1313 3219 
Q 1125 2891 1026 2522 
Q 928 2153 928 1778 
Q 928 1128 1239 775 
Q 1550 422 2119 422 
Q 2631 422 3032 676 
Q 3434 931 3719 1434 
Q 3909 1772 4009 2142 
Q 4109 2513 4109 2881 
Q 4109 3528 3796 3883 
Q 3484 4238 2919 4238 
z
M 2100 -91 
Q 1241 -91 748 418 
Q 256 928 256 1813 
Q 256 2319 448 2847 
Q 641 3375 978 3788 
Q 1375 4272 1862 4511 
Q 2350 4750 2938 4750 
Q 3794 4750 4287 4245 
Q 4781 3741 4781 2869 
Q 4781 2331 4593 1812 
Q 4406 1294 4056 872 
Q 3656 384 3173 146 
Q 2691 -91 2100 -91 
z
" transform="scale(0.015625)"/>
     <path id="DejaVuSans-Oblique-38" d="M 2847 1416 
Q 2847 1769 2600 1992 
Q 2353 2216 1953 2216 
Q 1466 2216 1148 1923 
Q 831 1631 831 1184 
Q 831 828 1073 618 
Q 1316 409 1728 409 
Q 2219 409 2533 693 
Q 2847 978 2847 1416 
z
M 3169 3591 
Q 3169 3888 2950 4069 
Q 2731 4250 2369 4250 
Q 1941 4250 1664 4009 
Q 1388 3769 1388 3406 
Q 1388 3094 1605 2903 
Q 1822 2713 2181 2713 
Q 2613 2713 2891 2961 
Q 3169 3209 3169 3591 
z
M 2741 2456 
Q 3094 2322 3281 2050 
Q 3469 1778 3469 1394 
Q 3469 747 2969 328 
Q 2469 -91 1678 -91 
Q 1006 -91 609 239 
Q 213 569 213 1119 
Q 213 1619 553 2008 
Q 894 2397 1441 2503 
Q 1113 2616 941 2852 
Q 769 3088 769 3425 
Q 769 3991 1239 4370 
Q 1709 4750 2431 4750 
Q 3034 4750 3414 4442 
Q 3794 4134 3794 3659 
Q 3794 3247 3511 2923 
Q 3228 2600 2741 2456 
z
" transform="scale(0.015625)"/>
     <path id="DejaVuSans-Oblique-41" d="M 2356 4666 
L 3072 4666 
L 3938 0 
L 3278 0 
L 3084 1197 
L 984 1197 
L 325 0 
L -341 0 
L 2356 4666 
z
M 2584 4044 
L 1275 1722 
L 2988 1722 
L 2584 4044 
z
" transform="scale(0.015625)"/>
     <path id="DejaVuSans-Oblique-32" d="M 2950 2253 
L 934 525 
L 3163 525 
L 3053 0 
L 25 0 
L 128 531 
L 2234 2338 
Q 2656 2703 2832 2979 
Q 3009 3256 3009 3547 
Q 3009 3850 2796 4040 
Q 2584 4231 2241 4231 
Q 1944 4231 1581 4125 
Q 1219 4019 806 3816 
L 922 4441 
Q 1309 4594 1662 4672 
Q 2016 4750 2316 4750 
Q 2928 4750 3301 4425 
Q 3675 4100 3675 3572 
Q 3675 3216 3497 2892 
Q 3319 2569 2950 2253 
z
" transform="scale(0.015625)"/>
     <path id="DejaVuSans-Oblique-54" d="M 378 4666 
L 4325 4666 
L 4225 4134 
L 2559 4134 
L 1759 0 
L 1125 0 
L 1925 4134 
L 275 4134 
L 378 4666 
z
" transform="scale(0.015625)"/>
     <path id="DejaVuSans-Oblique-31" d="M 416 531 
L 1447 531 
L 2144 4122 
L 978 3897 
L 1088 4441 
L 2247 4666 
L 2881 4666 
L 2075 531 
L 3103 531 
L 3003 0 
L 313 0 
L 416 531 
z
" transform="scale(0.015625)"/>
     <path id="DejaVuSans-Oblique-30" d="M 2444 4750 
Q 3078 4750 3414 4328 
Q 3750 3906 3750 3116 
Q 3750 2516 3592 1923 
Q 3434 1331 3150 863 
Q 2859 394 2467 151 
Q 2075 -91 1600 -91 
Q 988 -91 653 334 
Q 319 759 319 1544 
Q 319 2138 480 2733 
Q 641 3328 928 3794 
Q 1216 4263 1602 4506 
Q 1988 4750 2444 4750 
z
M 2406 4250 
Q 2169 4250 1955 4123 
Q 1741 3997 1569 3750 
Q 1281 3338 1111 2720 
Q 941 2103 941 1453 
Q 941 938 1123 673 
Q 1306 409 1663 409 
Q 1913 409 2125 536 
Q 2338 663 2509 909 
Q 2794 1319 2961 1936 
Q 3128 2553 3128 3206 
Q 3128 3722 2945 3986 
Q 2763 4250 2406 4250 
z
" transform="scale(0.015625)"/>
     <path id="DejaVuSans-Oblique-35" d="M 3719 4666 
L 3622 4141 
L 1691 4141 
L 1466 2988 
Q 1609 3034 1757 3056 
Q 1906 3078 2059 3078 
Q 2706 3078 3081 2731 
Q 3456 2384 3456 1791 
Q 3456 1375 3264 994 
Q 3072 613 2719 325 
Q 2469 125 2108 17 
Q 1747 -91 1319 -91 
Q 1038 -91 744 -41 
Q 450 9 128 109 
L 244 697 
Q 531 556 820 486 
Q 1109 416 1403 416 
Q 2013 416 2411 781 
Q 2809 1147 2809 1697 
Q 2809 2103 2548 2328 
Q 2288 2553 1819 2553 
Q 1572 2553 1305 2495 
Q 1038 2438 756 2322 
L 1209 4666 
L 3719 4666 
z
" transform="scale(0.015625)"/>
     <path id="DejaVuSans-Oblique-34" d="M 2753 4666 
L 3547 4666 
L 2950 1625 
L 3616 1625 
L 3513 1100 
L 2847 1100 
L 2638 0 
L 2009 0 
L 2222 1100 
L 116 1100 
L 238 1709 
L 2753 4666 
z
M 2809 4116 
L 728 1625 
L 2322 1625 
L 2809 4116 
z
" transform="scale(0.015625)"/>
     <path id="DejaVuSans-Oblique-2d" d="M 391 2009 
L 2075 2009 
L 1978 1497 
L 288 1497 
L 391 2009 
z
" transform="scale(0.015625)"/>
     <path id="DejaVuSans-Oblique-37" d="M 819 4666 
L 4013 4666 
L 3956 4397 
L 1288 0 
L 594 0 
L 3116 4134 
L 716 4134 
L 819 4666 
z
" transform="scale(0.015625)"/>
     <path id="DejaVuSans-Oblique-2e" d="M 525 794 
L 1184 794 
L 1031 0 
L 372 0 
L 525 794 
z
" transform="scale(0.015625)"/>
     <path id="DejaVuSans-Oblique-63" d="M 3431 3366 
L 3316 2797 
Q 3109 2947 2876 3022 
Q 2644 3097 2394 3097 
Q 2119 3097 1870 3000 
Q 1622 2903 1453 2725 
Q 1184 2453 1037 2087 
Q 891 1722 891 1331 
Q 891 859 1127 628 
Q 1363 397 1844 397 
Q 2081 397 2348 469 
Q 2616 541 2906 684 
L 2797 116 
Q 2547 13 2283 -39 
Q 2019 -91 1741 -91 
Q 1044 -91 669 257 
Q 294 606 294 1253 
Q 294 1797 489 2255 
Q 684 2713 1069 3078 
Q 1331 3328 1684 3456 
Q 2038 3584 2456 3584 
Q 2700 3584 2940 3529 
Q 3181 3475 3431 3366 
z
" transform="scale(0.015625)"/>
     <path id="DejaVuSans-Oblique-73" d="M 3200 3397 
L 3091 2853 
Q 2863 2978 2609 3040 
Q 2356 3103 2088 3103 
Q 1634 3103 1373 2948 
Q 1113 2794 1113 2528 
Q 1113 2219 1719 2053 
Q 1766 2041 1788 2034 
L 1972 1978 
Q 2547 1819 2739 1644 
Q 2931 1469 2931 1166 
Q 2931 609 2489 259 
Q 2047 -91 1331 -91 
Q 1053 -91 747 -37 
Q 441 16 72 128 
L 184 722 
Q 500 559 806 475 
Q 1113 391 1394 391 
Q 1816 391 2080 572 
Q 2344 753 2344 1031 
Q 2344 1331 1650 1516 
L 1591 1531 
L 1394 1581 
Q 956 1697 753 1886 
Q 550 2075 550 2369 
Q 550 2928 970 3256 
Q 1391 3584 2113 3584 
Q 2397 3584 2667 3537 
Q 2938 3491 3200 3397 
z
" transform="scale(0.015625)"/>
     <path id="DejaVuSans-Oblique-76" d="M 459 3500 
L 1069 3500 
L 1581 525 
L 3256 3500 
L 3866 3500 
L 1875 0 
L 1100 0 
L 459 3500 
z
" transform="scale(0.015625)"/>
    </defs>
    <use xlink:href="#DejaVuSans-Oblique-4d"/>
    <use xlink:href="#DejaVuSans-Oblique-33" x="86.279297"/>
    <use xlink:href="#DejaVuSans-Oblique-5f" x="149.902344"/>
    <use xlink:href="#DejaVuSans-Oblique-52" x="199.902344"/>
    <use xlink:href="#DejaVuSans-Oblique-36" x="269.384766"/>
    <use xlink:href="#DejaVuSans-Oblique-5f" x="333.007812"/>
    <use xlink:href="#DejaVuSans-Oblique-4f" x="383.007812"/>
    <use xlink:href="#DejaVuSans-Oblique-38" x="461.71875"/>
    <use xlink:href="#DejaVuSans-Oblique-5f" x="525.341797"/>
    <use xlink:href="#DejaVuSans-Oblique-41" x="575.341797"/>
    <use xlink:href="#DejaVuSans-Oblique-32" x="643.75"/>
    <use xlink:href="#DejaVuSans-Oblique-5f" x="707.373047"/>
    <use xlink:href="#DejaVuSans-Oblique-54" x="757.373047"/>
    <use xlink:href="#DejaVuSans-Oblique-52" x="818.457031"/>
    <use xlink:href="#DejaVuSans-Oblique-31" x="887.939453"/>
    <use xlink:href="#DejaVuSans-Oblique-5f" x="951.5625"/>
    <use xlink:href="#DejaVuSans-Oblique-54" x="1001.5625"/>
    <use xlink:href="#DejaVuSans-Oblique-31" x="1062.646484"/>
    <use xlink:href="#DejaVuSans-Oblique-5f" x="1126.269531"/>
    <use xlink:href="#DejaVuSans-Oblique-32" x="1176.269531"/>
    <use xlink:href="#DejaVuSans-Oblique-30" x="1239.892578"/>
    <use xlink:href="#DejaVuSans-Oblique-32" x="1303.515625"/>
    <use xlink:href="#DejaVuSans-Oblique-35" x="1367.138672"/>
    <use xlink:href="#DejaVuSans-Oblique-30" x="1430.761719"/>
    <use xlink:href="#DejaVuSans-Oblique-34" x="1494.384766"/>
    <use xlink:href="#DejaVuSans-Oblique-31" x="1558.007812"/>
    <use xlink:href="#DejaVuSans-Oblique-32" x="1621.630859"/>
    <use xlink:href="#DejaVuSans-Oblique-2d" x="1685.253906"/>
    <use xlink:href="#DejaVuSans-Oblique-31" x="1721.337891"/>
    <use xlink:href="#DejaVuSans-Oblique-33" x="1784.960938"/>
    <use xlink:href="#DejaVuSans-Oblique-34" x="1848.583984"/>
    <use xlink:href="#DejaVuSans-Oblique-37" x="1912.207031"/>
    <use xlink:href="#DejaVuSans-Oblique-32" x="1975.830078"/>
    <use xlink:href="#DejaVuSans-Oblique-34" x="2039.453125"/>
    <use xlink:href="#DejaVuSans-Oblique-2e" x="2103.076172"/>
    <use xlink:href="#DejaVuSans-Oblique-63" x="2134.863281"/>
    <use xlink:href="#DejaVuSans-Oblique-73" x="2189.84375"/>
    <use xlink:href="#DejaVuSans-Oblique-76" x="2241.943359"/>
   </g>
  </g>
 </g>
 <defs>
  <clipPath id="pe363ff0dca">
   <rect x="68.070312" y="88.687372" width="925.36" height="167.484407"/>
  </clipPath>
  <clipPath id="p393f104f43">
   <rect x="68.070312" y="270.471779" width="925.36" height="167.484407"/>
  </clipPath>
  <clipPath id="pb996191baf">
   <rect x="68.070312" y="452.256186" width="925.36" height="167.484407"/>
  </clipPath>
  <clipPath id="p5ee351f613">
   <rect x="68.070312" y="634.040593" width="925.36" height="167.484407"/>
  </clipPath>
 </defs>
</svg>
